<?xml version="1.0" encoding="UTF-8"?>
<svg xmlns="http://www.w3.org/2000/svg" xmlns:xlink="http://www.w3.org/1999/xlink" width="854" height="480" viewBox="0 0 854 480">
<defs>
<g>
<g id="glyph-0-0">
<path d="M 5.21875 0.707031 C 5.238281 0.140625 5.246094 -0.28125 5.246094 -0.5625 L 5.246094 -3.1875 L 3.894531 -3.1875 C 3.855469 -1.457031 3.308594 -0.167969 2.257812 0.675781 L 2.199219 0.59375 C 2.59375 0.160156 2.90625 -0.386719 3.132812 -1.042969 C 3.355469 -1.703125 3.476562 -2.464844 3.484375 -3.328125 C 3.492188 -4.195312 3.488281 -4.871094 3.46875 -5.359375 L 3.894531 -5.078125 C 5.117188 -5.304688 5.859375 -5.539062 6.121094 -5.785156 L 6.601562 -5.246094 C 6.28125 -5.230469 5.90625 -5.191406 5.472656 -5.136719 C 5.039062 -5.078125 4.515625 -5.011719 3.894531 -4.9375 L 3.894531 -3.355469 L 5.980469 -3.355469 L 6.347656 -3.722656 L 6.882812 -3.1875 L 5.644531 -3.1875 L 5.644531 -0.339844 C 5.644531 -0.0546875 5.652344 0.234375 5.671875 0.535156 L 5.21875 0.707031 M 0.339844 -2.230469 C 0.488281 -2.230469 0.960938 -2.378906 1.75 -2.679688 L 1.75 -4.089844 L 0.929688 -4.089844 L 0.59375 -4.035156 L 0.367188 -4.261719 L 1.75 -4.261719 C 1.75 -4.882812 1.738281 -5.425781 1.722656 -5.898438 L 2.398438 -5.585938 L 2.144531 -5.390625 L 2.144531 -4.261719 L 2.511719 -4.261719 L 2.820312 -4.570312 L 3.300781 -4.089844 L 2.144531 -4.089844 L 2.144531 -2.820312 L 3.1875 -3.214844 L 3.214844 -3.101562 L 2.144531 -2.539062 L 2.144531 -0.253906 C 2.164062 0.199219 1.957031 0.5 1.523438 0.648438 C 1.523438 0.40625 1.242188 0.179688 0.675781 -0.0273438 L 0.675781 -0.140625 C 1.089844 -0.0664062 1.375 -0.0273438 1.523438 -0.0273438 C 1.675781 -0.0273438 1.75 -0.132812 1.75 -0.339844 L 1.75 -2.339844 C 1.089844 -2.023438 0.734375 -1.804688 0.675781 -1.691406 Z "/>
</g>
<g id="glyph-0-1">
<path d="M 2.371094 -0.28125 L 2.371094 0.28125 L 4.824219 0.28125 L 4.824219 -0.28125 L 2.371094 -0.28125 M 4.710938 -5.472656 L 2.679688 -5.472656 C 2.4375 -5.472656 2.210938 -5.445312 2.003906 -5.390625 L 1.75 -5.644531 L 4.769531 -5.644531 L 5.023438 -5.839844 L 5.390625 -5.417969 L 5.078125 -5.332031 C 4.816406 -5.183594 4.5625 -5.039062 4.316406 -4.910156 C 4.710938 -4.796875 4.96875 -4.691406 5.09375 -4.597656 C 5.214844 -4.503906 5.261719 -4.410156 5.234375 -4.316406 C 5.207031 -4.222656 5.164062 -4.175781 5.105469 -4.175781 C 5.050781 -4.175781 4.976562 -4.214844 4.882812 -4.289062 C 4.691406 -4.4375 4.402344 -4.597656 4.007812 -4.769531 C 3.40625 -4.523438 2.566406 -4.335938 1.496094 -4.203125 L 1.523438 -4.316406 C 2.40625 -4.46875 3.121094 -4.65625 3.667969 -4.882812 C 3.101562 -5.03125 2.679688 -5.144531 2.398438 -5.21875 L 2.425781 -5.332031 C 2.898438 -5.238281 3.40625 -5.136719 3.949219 -5.023438 C 4.214844 -5.171875 4.46875 -5.324219 4.710938 -5.472656 M 0.902344 -4.0625 L 2.792969 -4.0625 L 3.101562 -4.289062 L 3.441406 -3.835938 L 3.214844 -3.808594 C 3.007812 -3.675781 2.8125 -3.554688 2.625 -3.441406 C 2.886719 -3.347656 3.046875 -3.261719 3.101562 -3.1875 C 3.160156 -3.113281 3.1875 -3.027344 3.1875 -2.933594 C 3.1875 -2.878906 3.179688 -2.824219 3.160156 -2.777344 C 3.140625 -2.730469 3.121094 -2.707031 3.101562 -2.707031 C 3.046875 -2.707031 2.980469 -2.753906 2.90625 -2.847656 C 2.753906 -3 2.566406 -3.132812 2.339844 -3.246094 C 1.851562 -2.980469 1.261719 -2.785156 0.5625 -2.652344 L 0.535156 -2.765625 C 1.136719 -2.898438 1.664062 -3.101562 2.117188 -3.386719 C 1.929688 -3.480469 1.636719 -3.574219 1.242188 -3.667969 L 1.269531 -3.78125 C 1.628906 -3.722656 1.984375 -3.648438 2.339844 -3.554688 C 2.492188 -3.667969 2.644531 -3.78125 2.792969 -3.894531 L 1.46875 -3.894531 L 1.128906 -3.835938 L 0.902344 -4.0625 M 3.582031 -4.0625 L 5.613281 -4.0625 L 5.867188 -4.289062 L 6.234375 -3.894531 L 5.980469 -3.808594 C 5.8125 -3.660156 5.644531 -3.527344 5.472656 -3.414062 C 5.8125 -3.28125 6.007812 -3.179688 6.066406 -3.101562 C 6.121094 -3.027344 6.152344 -2.953125 6.152344 -2.878906 C 6.152344 -2.820312 6.136719 -2.765625 6.109375 -2.707031 C 6.078125 -2.652344 5.972656 -2.707031 5.785156 -2.878906 C 5.59375 -3.027344 5.40625 -3.152344 5.21875 -3.246094 C 4.730469 -3 4.121094 -2.785156 3.386719 -2.59375 L 3.355469 -2.707031 C 4.054688 -2.933594 4.578125 -3.160156 4.9375 -3.386719 C 4.675781 -3.480469 4.390625 -3.5625 4.089844 -3.640625 L 4.121094 -3.753906 C 4.402344 -3.714844 4.738281 -3.640625 5.136719 -3.527344 C 5.265625 -3.621094 5.425781 -3.742188 5.613281 -3.894531 L 4.148438 -3.894531 L 3.808594 -3.835938 L 3.582031 -4.0625 M 5.726562 -1.664062 L 6.039062 -2.339844 L 1.214844 -2.339844 C 1.214844 -1.964844 1.160156 -1.730469 1.058594 -1.636719 C 0.953125 -1.542969 0.855469 -1.496094 0.761719 -1.496094 C 0.722656 -1.496094 0.667969 -1.507812 0.59375 -1.539062 C 0.515625 -1.566406 0.480469 -1.597656 0.480469 -1.636719 C 0.480469 -1.691406 0.546875 -1.777344 0.675781 -1.890625 C 0.882812 -2.058594 1.023438 -2.332031 1.101562 -2.707031 L 1.214844 -2.707031 L 1.214844 -2.511719 L 6.007812 -2.511719 L 6.261719 -2.765625 L 6.742188 -2.257812 C 6.535156 -2.21875 6.382812 -2.164062 6.277344 -2.085938 C 6.175781 -2.011719 6.019531 -1.851562 5.8125 -1.609375 L 5.726562 -1.664062 M 2.003906 -2.117188 L 2.398438 -1.863281 L 4.796875 -1.863281 L 5.050781 -2.117188 L 5.417969 -1.75 L 5.191406 -1.578125 L 5.191406 0.28125 L 5.8125 0.28125 L 6.234375 -0.140625 L 6.828125 0.453125 L 1.355469 0.453125 C 1.109375 0.453125 0.882812 0.480469 0.675781 0.535156 L 0.421875 0.28125 L 2.003906 0.28125 L 2.003906 -2.117188 M 2.371094 -1.691406 L 2.371094 -1.15625 L 4.824219 -1.15625 L 4.824219 -1.691406 L 2.371094 -1.691406 M 2.371094 -0.988281 L 2.371094 -0.453125 L 4.824219 -0.453125 L 4.824219 -0.988281 Z "/>
</g>
<g id="glyph-0-2">
<path d="M 4.484375 -3.894531 C 4.484375 -4.910156 4.476562 -5.566406 4.457031 -5.867188 L 5.164062 -5.558594 L 4.882812 -5.359375 L 4.882812 -3.894531 L 5.699219 -3.894531 L 6.09375 -4.289062 L 6.660156 -3.722656 L 4.882812 -3.722656 L 4.882812 -2.171875 L 5.613281 -2.171875 L 5.980469 -2.539062 L 6.515625 -2.003906 L 4.882812 -2.003906 L 4.882812 -0.0273438 L 5.980469 -0.0273438 L 6.375 -0.421875 L 6.941406 0.140625 L 3.246094 0.140625 C 3 0.140625 2.773438 0.167969 2.566406 0.226562 L 2.3125 -0.0273438 L 4.484375 -0.0273438 L 4.484375 -2.003906 L 3.894531 -2.003906 C 3.648438 -2.003906 3.421875 -1.976562 3.214844 -1.917969 L 2.960938 -2.171875 L 4.484375 -2.171875 L 4.484375 -3.722656 L 3.328125 -3.722656 C 3.085938 -3.121094 2.8125 -2.632812 2.511719 -2.257812 L 2.425781 -2.3125 C 2.652344 -2.765625 2.839844 -3.269531 2.992188 -3.824219 C 3.140625 -4.378906 3.234375 -4.832031 3.273438 -5.191406 L 3.921875 -4.882812 L 3.667969 -4.710938 L 3.386719 -3.894531 L 4.484375 -3.894531 M 0.988281 -4.089844 C 1.042969 -3.527344 1.054688 -3.175781 1.015625 -3.03125 C 0.976562 -2.890625 0.917969 -2.796875 0.832031 -2.75 C 0.746094 -2.703125 0.675781 -2.679688 0.621094 -2.679688 C 0.582031 -2.679688 0.53125 -2.695312 0.464844 -2.722656 C 0.398438 -2.75 0.367188 -2.773438 0.367188 -2.792969 C 0.367188 -2.867188 0.433594 -2.980469 0.5625 -3.132812 C 0.734375 -3.339844 0.835938 -3.660156 0.875 -4.089844 L 0.988281 -4.089844 M 1.777344 -4.457031 C 2.078125 -4.34375 2.292969 -4.242188 2.425781 -4.148438 C 2.558594 -4.054688 2.613281 -3.929688 2.59375 -3.78125 C 2.578125 -3.628906 2.53125 -3.527344 2.453125 -3.46875 C 2.378906 -3.414062 2.304688 -3.488281 2.230469 -3.695312 C 2.136719 -3.902344 1.984375 -4.109375 1.777344 -4.316406 L 1.777344 -0.5625 C 1.777344 -0.246094 1.785156 0.101562 1.804688 0.480469 L 1.355469 0.675781 C 1.375 0.132812 1.382812 -0.355469 1.382812 -0.789062 L 1.382812 -4.769531 C 1.382812 -5.085938 1.375 -5.472656 1.355469 -5.925781 L 2.03125 -5.613281 L 1.777344 -5.417969 Z "/>
</g>
<g id="glyph-0-3">
<path d="M 0.308594 0.480469 C 0.988281 -0.609375 1.308594 -1.898438 1.269531 -3.386719 C 1.269531 -4.324219 1.261719 -4.984375 1.242188 -5.359375 L 1.636719 -5.105469 C 2.765625 -5.199219 3.660156 -5.316406 4.316406 -5.460938 C 4.976562 -5.601562 5.40625 -5.738281 5.613281 -5.867188 L 6.09375 -5.390625 C 5.492188 -5.332031 4.871094 -5.265625 4.230469 -5.191406 C 3.574219 -5.117188 2.707031 -5.039062 1.636719 -4.964844 L 1.636719 -3.101562 C 1.691406 -1.675781 1.269531 -0.460938 0.367188 0.535156 L 0.308594 0.480469 M 3.835938 -4.121094 C 3.835938 -4.421875 3.828125 -4.710938 3.808594 -4.992188 L 4.402344 -4.738281 L 4.203125 -4.570312 L 4.203125 -4.121094 L 5.558594 -4.121094 L 5.925781 -4.457031 L 6.40625 -3.949219 L 4.203125 -3.949219 L 4.203125 -3.160156 L 5.359375 -3.160156 L 5.558594 -3.441406 L 6.007812 -3.101562 L 5.785156 -2.90625 C 5.785156 -1.945312 5.792969 -1.296875 5.8125 -0.960938 L 5.417969 -0.761719 L 5.417969 -2.992188 L 2.707031 -2.992188 L 2.707031 -0.816406 L 2.3125 -0.648438 C 2.332031 -1.214844 2.339844 -1.714844 2.339844 -2.160156 C 2.339844 -2.601562 2.332031 -3.007812 2.3125 -3.386719 L 2.707031 -3.160156 L 3.835938 -3.160156 L 3.835938 -3.949219 L 2.652344 -3.949219 C 2.445312 -3.949219 2.238281 -3.921875 2.03125 -3.867188 L 1.777344 -4.121094 L 3.835938 -4.121094 M 1.382812 0.621094 C 1.816406 0.46875 2.234375 0.269531 2.636719 0.015625 C 3.042969 -0.238281 3.328125 -0.53125 3.5 -0.859375 C 3.667969 -1.191406 3.761719 -1.519531 3.78125 -1.847656 C 3.800781 -2.175781 3.808594 -2.464844 3.808594 -2.707031 L 4.429688 -2.398438 L 4.203125 -2.199219 C 4.167969 -1.335938 3.9375 -0.695312 3.511719 -0.28125 C 3.089844 0.132812 2.390625 0.460938 1.410156 0.707031 L 1.382812 0.621094 M 4.089844 -0.816406 C 4.9375 -0.59375 5.5 -0.417969 5.785156 -0.296875 C 6.066406 -0.175781 6.214844 -0.0625 6.234375 0.0429688 C 6.253906 0.144531 6.261719 0.226562 6.261719 0.28125 C 6.261719 0.375 6.25 0.457031 6.222656 0.523438 C 6.191406 0.585938 6.167969 0.621094 6.152344 0.621094 C 6.09375 0.621094 6.019531 0.574219 5.925781 0.480469 C 5.773438 0.308594 5.566406 0.136719 5.304688 -0.0429688 C 5.039062 -0.222656 4.628906 -0.441406 4.0625 -0.707031 Z "/>
</g>
<g id="glyph-1-0">
<path d="M 1.613281 -3.011719 C 1.613281 -2.878906 1.5625 -2.765625 1.46875 -2.671875 C 1.375 -2.578125 1.261719 -2.53125 1.128906 -2.53125 C 0.996094 -2.53125 0.882812 -2.578125 0.789062 -2.671875 C 0.691406 -2.765625 0.644531 -2.878906 0.644531 -3.011719 C 0.644531 -3.140625 0.691406 -3.253906 0.785156 -3.347656 C 0.878906 -3.445312 0.996094 -3.492188 1.128906 -3.492188 C 1.261719 -3.492188 1.375 -3.445312 1.46875 -3.347656 C 1.566406 -3.253906 1.613281 -3.140625 1.613281 -3.011719 M 1.613281 -0.40625 C 1.613281 -0.273438 1.5625 -0.160156 1.46875 -0.0703125 C 1.375 0.0234375 1.261719 0.0703125 1.128906 0.0703125 C 0.996094 0.0703125 0.882812 0.0234375 0.789062 -0.0703125 C 0.691406 -0.160156 0.644531 -0.273438 0.644531 -0.40625 C 0.644531 -0.539062 0.691406 -0.652344 0.789062 -0.746094 C 0.882812 -0.839844 0.996094 -0.890625 1.128906 -0.890625 C 1.261719 -0.890625 1.375 -0.839844 1.46875 -0.746094 C 1.5625 -0.652344 1.613281 -0.539062 1.613281 -0.40625 Z "/>
</g>
</g>
</defs>
<g fill="rgb(100%, 100%, 0%)" fill-opacity="1">
<use xlink:href="#glyph-0-0" x="30" y="27.091797"/>
<use xlink:href="#glyph-0-1" x="37" y="27.091797"/>
<use xlink:href="#glyph-0-2" x="44" y="27.091797"/>
<use xlink:href="#glyph-0-3" x="51" y="27.091797"/>
</g>
<g fill="rgb(100%, 100%, 0%)" fill-opacity="1">
<use xlink:href="#glyph-1-0" x="58" y="26.623047"/>
</g>
</svg>
