<?xml version="1.0" encoding="UTF-8"?>
<svg xmlns="http://www.w3.org/2000/svg" xmlns:xlink="http://www.w3.org/1999/xlink" width="1920" height="1080" viewBox="0 0 1920 1080">
<defs>
<g>
<g id="glyph-0-0">
<path d="M 0.980469 -4.820312 L 1.050781 -4.871094 C 1.304688 -4.710938 1.484375 -4.574219 1.585938 -4.464844 C 1.691406 -4.351562 1.738281 -4.246094 1.730469 -4.140625 C 1.722656 -4.039062 1.683594 -3.953125 1.609375 -3.890625 C 1.539062 -3.828125 1.496094 -3.796875 1.480469 -3.796875 C 1.417969 -3.796875 1.367188 -3.875 1.335938 -4.035156 C 1.289062 -4.257812 1.167969 -4.519531 0.980469 -4.820312 M 1.648438 -0.621094 L 2.554688 -1.433594 L 2.625 -1.359375 C 2.371094 -1.074219 2.160156 -0.820312 1.992188 -0.597656 C 1.824219 -0.375 1.679688 -0.160156 1.550781 0.046875 L 1.195312 -0.285156 C 1.289062 -0.382812 1.328125 -0.492188 1.3125 -0.621094 L 1.3125 -2.816406 L 1.003906 -2.816406 C 0.875 -2.816406 0.722656 -2.792969 0.550781 -2.746094 L 0.335938 -2.960938 L 1.289062 -2.960938 L 1.457031 -3.199219 L 1.886719 -2.886719 L 1.648438 -2.722656 L 1.648438 -0.621094 M 3.078125 -2.339844 C 3.300781 -1.640625 3.554688 -1.144531 3.84375 -0.859375 C 4.144531 -1.242188 4.390625 -1.734375 4.582031 -2.339844 L 3.078125 -2.339844 M 2.433594 -2.484375 L 4.558594 -2.484375 L 4.75 -2.722656 L 5.179688 -2.339844 L 4.941406 -2.21875 C 4.703125 -1.582031 4.414062 -1.050781 4.082031 -0.621094 C 4.542969 -0.253906 5.125 -0.0390625 5.824219 0.0234375 L 5.824219 0.09375 C 5.507812 0.175781 5.339844 0.292969 5.324219 0.453125 C 4.765625 0.261719 4.28125 -0.03125 3.867188 -0.429688 C 3.199219 0.113281 2.410156 0.445312 1.503906 0.574219 L 1.480469 0.5 C 2.5 0.199219 3.214844 -0.191406 3.628906 -0.667969 C 3.292969 -1.160156 3.070312 -1.71875 2.960938 -2.339844 L 2.839844 -2.339844 L 2.625 -2.292969 L 2.433594 -2.484375 M 4.628906 -3.4375 C 4.628906 -3.277344 4.71875 -3.199219 4.894531 -3.199219 C 5.070312 -3.199219 5.234375 -3.222656 5.394531 -3.269531 C 5.539062 -3.300781 5.632812 -3.273438 5.679688 -3.1875 C 5.730469 -3.097656 5.753906 -3.03125 5.753906 -2.984375 C 5.753906 -2.953125 5.734375 -2.933594 5.691406 -2.925781 C 5.652344 -2.917969 5.441406 -2.914062 5.058594 -2.914062 L 4.679688 -2.914062 C 4.390625 -2.914062 4.257812 -3.039062 4.273438 -3.292969 L 4.273438 -4.488281 L 3.222656 -4.488281 C 3.238281 -3.945312 3.160156 -3.511719 2.984375 -3.1875 C 2.808594 -2.859375 2.441406 -2.554688 1.886719 -2.269531 L 1.839844 -2.339844 C 2.347656 -2.738281 2.644531 -3.082031 2.734375 -3.378906 C 2.820312 -3.671875 2.863281 -3.929688 2.863281 -4.152344 C 2.863281 -4.375 2.855469 -4.597656 2.839844 -4.820312 L 3.222656 -4.628906 L 4.25 -4.628906 L 4.414062 -4.871094 L 4.820312 -4.558594 L 4.628906 -4.414062 Z "/>
</g>
<g id="glyph-0-1">
<path d="M 1.085938 -0.144531 C 1.171875 -0.253906 1.25 -0.414062 1.3125 -0.621094 C 1.167969 -0.621094 1.066406 -0.644531 1.003906 -0.691406 C 0.9375 -0.738281 0.894531 -0.804688 0.871094 -0.882812 C 0.847656 -0.960938 0.84375 -1.039062 0.859375 -1.109375 C 0.875 -1.179688 0.929688 -1.253906 1.027344 -1.324219 C 1.121094 -1.394531 1.242188 -1.417969 1.382812 -1.382812 C 1.527344 -1.351562 1.613281 -1.292969 1.648438 -1.207031 C 1.679688 -1.117188 1.695312 -1.035156 1.695312 -0.953125 C 1.695312 -0.859375 1.671875 -0.734375 1.625 -0.585938 C 1.574219 -0.433594 1.46875 -0.265625 1.300781 -0.0820312 C 1.132812 0.0976562 1 0.199219 0.894531 0.214844 C 0.792969 0.230469 0.738281 0.230469 0.738281 0.214844 C 0.738281 0.199219 0.765625 0.175781 0.8125 0.144531 C 0.90625 0.0625 1 -0.03125 1.085938 -0.144531 Z "/>
</g>
<g id="glyph-0-2">
<path d="M 3.175781 -2.054688 C 3.175781 -1.765625 3.183594 -1.519531 3.199219 -1.3125 L 2.863281 -1.121094 L 2.863281 -4.367188 L 1.195312 -4.367188 L 1.195312 -1.121094 L 0.859375 -0.953125 C 0.875 -1.351562 0.882812 -1.960938 0.882812 -2.78125 C 0.882812 -3.601562 0.875 -4.25 0.859375 -4.726562 L 1.195312 -4.511719 L 2.839844 -4.511719 L 3.007812 -4.75 L 3.367188 -4.464844 L 3.175781 -4.296875 L 3.175781 -2.054688 M 0.359375 0.5 C 0.960938 0.0546875 1.355469 -0.367188 1.539062 -0.765625 C 1.722656 -1.160156 1.824219 -1.5625 1.851562 -1.96875 C 1.875 -2.375 1.878906 -3 1.863281 -3.84375 L 2.386719 -3.605469 L 2.195312 -3.4375 L 2.195312 -2.433594 C 2.210938 -1.8125 2.101562 -1.253906 1.863281 -0.75 C 1.625 -0.25 1.136719 0.191406 0.40625 0.574219 L 0.359375 0.5 M 2.171875 -1.027344 C 2.96875 -0.644531 3.386719 -0.390625 3.425781 -0.261719 C 3.464844 -0.136719 3.484375 -0.0390625 3.484375 0.0234375 C 3.484375 0.121094 3.464844 0.203125 3.425781 0.273438 C 3.386719 0.347656 3.359375 0.382812 3.339844 0.382812 C 3.277344 0.382812 3.199219 0.285156 3.101562 0.09375 C 2.945312 -0.175781 2.617188 -0.523438 2.125 -0.953125 L 2.171875 -1.027344 M 3.960938 -0.835938 C 3.976562 -1.234375 3.984375 -1.792969 3.984375 -2.519531 C 3.984375 -3.242188 3.976562 -3.804688 3.960938 -4.199219 L 4.488281 -3.9375 L 4.296875 -3.769531 L 4.296875 -1.71875 C 4.296875 -1.417969 4.304688 -1.175781 4.320312 -1.003906 L 3.960938 -0.835938 M 4.011719 -0.046875 C 4.328125 -0.015625 4.578125 0 4.761719 0 C 4.945312 0 5.035156 -0.09375 5.035156 -0.285156 L 5.035156 -4.035156 C 5.035156 -4.335938 5.027344 -4.648438 5.011719 -4.964844 L 5.5625 -4.703125 L 5.371094 -4.535156 L 5.371094 -0.144531 C 5.386719 0.207031 5.210938 0.453125 4.84375 0.597656 C 4.8125 0.34375 4.535156 0.160156 4.011719 0.046875 Z "/>
</g>
<g id="glyph-1-0">
<path d="M 4.347656 -2.089844 C 4.347656 -1.730469 4.28125 -1.417969 4.144531 -1.15625 C 4.007812 -0.890625 3.832031 -0.671875 3.617188 -0.503906 C 3.398438 -0.335938 3.152344 -0.207031 2.878906 -0.125 C 2.605469 -0.0429688 2.324219 0 2.035156 0 L 0.28125 0 L 0.28125 -0.210938 C 0.339844 -0.210938 0.414062 -0.21875 0.503906 -0.226562 C 0.597656 -0.238281 0.660156 -0.25 0.6875 -0.265625 C 0.75 -0.292969 0.792969 -0.328125 0.820312 -0.378906 C 0.847656 -0.429688 0.859375 -0.492188 0.859375 -0.5625 L 0.859375 -3.621094 C 0.859375 -3.6875 0.847656 -3.746094 0.824219 -3.800781 C 0.800781 -3.855469 0.757812 -3.898438 0.6875 -3.929688 C 0.628906 -3.960938 0.5625 -3.980469 0.488281 -3.996094 C 0.417969 -4.007812 0.355469 -4.019531 0.304688 -4.023438 L 0.304688 -4.234375 L 2.152344 -4.234375 C 2.410156 -4.234375 2.660156 -4.195312 2.90625 -4.117188 C 3.152344 -4.039062 3.367188 -3.929688 3.550781 -3.796875 C 3.800781 -3.621094 3.996094 -3.390625 4.136719 -3.101562 C 4.277344 -2.816406 4.347656 -2.480469 4.347656 -2.089844 M 3.617188 -2.09375 C 3.617188 -2.378906 3.578125 -2.632812 3.503906 -2.863281 C 3.425781 -3.09375 3.316406 -3.292969 3.171875 -3.464844 C 3.035156 -3.628906 2.867188 -3.753906 2.664062 -3.847656 C 2.464844 -3.941406 2.242188 -3.988281 2 -3.988281 C 1.917969 -3.988281 1.824219 -3.988281 1.722656 -3.984375 C 1.621094 -3.980469 1.542969 -3.980469 1.496094 -3.976562 L 1.496094 -0.726562 C 1.496094 -0.542969 1.546875 -0.417969 1.652344 -0.347656 C 1.757812 -0.28125 1.921875 -0.246094 2.140625 -0.246094 C 2.390625 -0.246094 2.613281 -0.289062 2.800781 -0.378906 C 2.992188 -0.46875 3.144531 -0.59375 3.261719 -0.75 C 3.382812 -0.917969 3.472656 -1.113281 3.53125 -1.332031 C 3.589844 -1.550781 3.617188 -1.804688 3.617188 -2.09375 Z "/>
</g>
<g id="glyph-1-1">
<path d="M 2.15625 0.101562 C 1.902344 0.101562 1.660156 0.0507812 1.429688 -0.046875 C 1.199219 -0.148438 0.992188 -0.289062 0.8125 -0.476562 C 0.636719 -0.664062 0.496094 -0.894531 0.390625 -1.164062 C 0.285156 -1.433594 0.234375 -1.738281 0.234375 -2.074219 C 0.234375 -2.414062 0.285156 -2.71875 0.386719 -2.996094 C 0.492188 -3.273438 0.632812 -3.507812 0.816406 -3.707031 C 0.996094 -3.90625 1.210938 -4.058594 1.457031 -4.164062 C 1.703125 -4.273438 1.96875 -4.328125 2.246094 -4.328125 C 2.457031 -4.328125 2.644531 -4.300781 2.8125 -4.25 C 2.984375 -4.195312 3.144531 -4.125 3.296875 -4.03125 L 3.417969 -4.234375 L 3.65625 -4.234375 L 3.683594 -2.722656 L 3.441406 -2.722656 C 3.410156 -2.871094 3.359375 -3.03125 3.296875 -3.203125 C 3.234375 -3.375 3.160156 -3.519531 3.074219 -3.640625 C 2.976562 -3.777344 2.863281 -3.882812 2.734375 -3.957031 C 2.601562 -4.035156 2.453125 -4.074219 2.285156 -4.074219 C 2.089844 -4.074219 1.910156 -4.03125 1.746094 -3.945312 C 1.582031 -3.859375 1.4375 -3.730469 1.316406 -3.566406 C 1.199219 -3.402344 1.109375 -3.199219 1.042969 -2.949219 C 0.980469 -2.703125 0.945312 -2.421875 0.945312 -2.117188 C 0.945312 -1.847656 0.980469 -1.597656 1.046875 -1.371094 C 1.117188 -1.144531 1.214844 -0.949219 1.34375 -0.777344 C 1.46875 -0.605469 1.621094 -0.472656 1.792969 -0.378906 C 1.96875 -0.285156 2.160156 -0.234375 2.375 -0.234375 C 2.539062 -0.234375 2.683594 -0.261719 2.820312 -0.3125 C 2.957031 -0.363281 3.074219 -0.429688 3.171875 -0.511719 C 3.273438 -0.601562 3.359375 -0.699219 3.433594 -0.8125 C 3.511719 -0.921875 3.570312 -1.042969 3.621094 -1.175781 L 3.84375 -1.066406 C 3.671875 -0.648438 3.445312 -0.347656 3.164062 -0.167969 C 2.882812 0.0117188 2.546875 0.101562 2.15625 0.101562 Z "/>
</g>
<g id="glyph-1-2">
<path d="M 3.46875 -2.039062 L 0.460938 -2.039062 L 0.460938 -2.410156 L 3.46875 -2.410156 L 3.46875 -2.039062 M 3.46875 -0.929688 L 0.460938 -0.929688 L 0.460938 -1.300781 L 3.46875 -1.300781 Z "/>
</g>
<g id="glyph-1-3">
<path d="M 3.050781 0 L 1.699219 0 L 1.699219 -0.195312 C 1.789062 -0.207031 1.867188 -0.21875 1.929688 -0.226562 C 1.992188 -0.238281 2.023438 -0.261719 2.023438 -0.304688 C 2.023438 -0.320312 2.015625 -0.351562 1.996094 -0.386719 C 1.972656 -0.425781 1.953125 -0.460938 1.933594 -0.492188 C 1.882812 -0.570312 1.816406 -0.675781 1.730469 -0.804688 C 1.644531 -0.933594 1.535156 -1.089844 1.410156 -1.273438 C 1.308594 -1.140625 1.210938 -1.015625 1.125 -0.894531 C 1.035156 -0.769531 0.945312 -0.640625 0.851562 -0.503906 C 0.835938 -0.484375 0.820312 -0.460938 0.804688 -0.429688 C 0.792969 -0.398438 0.785156 -0.375 0.785156 -0.359375 C 0.785156 -0.3125 0.8125 -0.277344 0.871094 -0.25 C 0.925781 -0.21875 1.011719 -0.199219 1.125 -0.191406 L 1.125 0 L 0.0351562 0 L 0.0351562 -0.183594 C 0.171875 -0.226562 0.28125 -0.273438 0.363281 -0.328125 C 0.445312 -0.386719 0.519531 -0.457031 0.589844 -0.539062 C 0.652344 -0.621094 0.738281 -0.730469 0.847656 -0.871094 C 0.960938 -1.007812 1.101562 -1.199219 1.277344 -1.4375 C 1.175781 -1.582031 1.050781 -1.761719 0.90625 -1.96875 C 0.761719 -2.179688 0.640625 -2.351562 0.542969 -2.492188 C 0.492188 -2.566406 0.433594 -2.628906 0.367188 -2.675781 C 0.300781 -2.722656 0.203125 -2.746094 0.0820312 -2.746094 L 0.0820312 -2.941406 L 1.363281 -2.941406 L 1.363281 -2.746094 C 1.300781 -2.746094 1.238281 -2.742188 1.175781 -2.734375 C 1.113281 -2.726562 1.082031 -2.707031 1.082031 -2.679688 C 1.082031 -2.660156 1.089844 -2.640625 1.101562 -2.621094 C 1.113281 -2.597656 1.128906 -2.574219 1.144531 -2.546875 C 1.191406 -2.480469 1.257812 -2.375 1.351562 -2.234375 C 1.441406 -2.09375 1.542969 -1.945312 1.648438 -1.789062 C 1.71875 -1.882812 1.800781 -1.996094 1.894531 -2.121094 C 1.984375 -2.25 2.070312 -2.371094 2.148438 -2.484375 C 2.15625 -2.5 2.164062 -2.515625 2.171875 -2.539062 C 2.179688 -2.558594 2.183594 -2.578125 2.183594 -2.597656 C 2.183594 -2.640625 2.152344 -2.675781 2.082031 -2.699219 C 2.011719 -2.722656 1.949219 -2.742188 1.886719 -2.75 L 1.886719 -2.941406 L 2.972656 -2.941406 L 2.972656 -2.757812 C 2.820312 -2.71875 2.699219 -2.671875 2.613281 -2.617188 C 2.527344 -2.558594 2.457031 -2.496094 2.394531 -2.425781 C 2.332031 -2.34375 2.253906 -2.242188 2.160156 -2.125 C 2.070312 -2.003906 1.945312 -1.835938 1.78125 -1.621094 C 1.960938 -1.367188 2.109375 -1.160156 2.222656 -0.996094 C 2.335938 -0.832031 2.449219 -0.664062 2.566406 -0.492188 C 2.625 -0.40625 2.6875 -0.335938 2.757812 -0.285156 C 2.828125 -0.234375 2.925781 -0.203125 3.050781 -0.195312 Z "/>
</g>
<g id="glyph-1-4">
</g>
<g id="glyph-1-5">
<path d="M 1.574219 0.078125 C 1.148438 0.078125 0.816406 -0.0625 0.574219 -0.347656 C 0.335938 -0.628906 0.214844 -1.007812 0.214844 -1.484375 C 0.214844 -1.691406 0.246094 -1.882812 0.3125 -2.0625 C 0.375 -2.242188 0.46875 -2.40625 0.59375 -2.554688 C 0.710938 -2.695312 0.859375 -2.808594 1.035156 -2.894531 C 1.210938 -2.980469 1.40625 -3.027344 1.613281 -3.027344 C 1.902344 -3.027344 2.136719 -2.957031 2.316406 -2.816406 C 2.5 -2.679688 2.589844 -2.492188 2.589844 -2.253906 C 2.589844 -2.152344 2.566406 -2.066406 2.519531 -1.988281 C 2.46875 -1.910156 2.390625 -1.875 2.28125 -1.875 C 2.164062 -1.875 2.074219 -1.902344 2.007812 -1.964844 C 1.945312 -2.023438 1.914062 -2.089844 1.914062 -2.164062 C 1.914062 -2.25 1.925781 -2.34375 1.949219 -2.4375 C 1.972656 -2.53125 1.984375 -2.601562 1.988281 -2.644531 C 1.953125 -2.707031 1.902344 -2.746094 1.832031 -2.765625 C 1.761719 -2.789062 1.683594 -2.796875 1.601562 -2.796875 C 1.507812 -2.796875 1.417969 -2.777344 1.332031 -2.738281 C 1.246094 -2.695312 1.160156 -2.621094 1.078125 -2.511719 C 1.007812 -2.414062 0.945312 -2.277344 0.902344 -2.109375 C 0.855469 -1.941406 0.832031 -1.738281 0.832031 -1.503906 C 0.832031 -1.132812 0.914062 -0.832031 1.078125 -0.597656 C 1.242188 -0.363281 1.457031 -0.246094 1.722656 -0.246094 C 1.914062 -0.246094 2.078125 -0.292969 2.207031 -0.386719 C 2.335938 -0.484375 2.457031 -0.625 2.570312 -0.8125 L 2.761719 -0.6875 C 2.628906 -0.453125 2.457031 -0.265625 2.242188 -0.128906 C 2.027344 0.0078125 1.804688 0.078125 1.574219 0.078125 Z "/>
</g>
<g id="glyph-1-6">
<path d="M 5.25 0 L 3.816406 0 L 3.816406 -0.195312 C 3.863281 -0.199219 3.90625 -0.203125 3.953125 -0.207031 C 4 -0.210938 4.042969 -0.222656 4.078125 -0.234375 C 4.132812 -0.25 4.175781 -0.28125 4.203125 -0.328125 C 4.230469 -0.371094 4.242188 -0.429688 4.242188 -0.5 L 4.242188 -2.019531 C 4.242188 -2.226562 4.195312 -2.386719 4.101562 -2.5 C 4.007812 -2.609375 3.890625 -2.667969 3.746094 -2.667969 C 3.648438 -2.667969 3.558594 -2.652344 3.472656 -2.621094 C 3.386719 -2.59375 3.308594 -2.550781 3.238281 -2.496094 C 3.179688 -2.453125 3.132812 -2.40625 3.09375 -2.355469 C 3.054688 -2.304688 3.023438 -2.261719 3.003906 -2.230469 L 3.003906 -0.53125 C 3.003906 -0.460938 3.015625 -0.402344 3.039062 -0.359375 C 3.0625 -0.316406 3.105469 -0.28125 3.164062 -0.257812 C 3.207031 -0.238281 3.25 -0.226562 3.285156 -0.214844 C 3.324219 -0.207031 3.371094 -0.199219 3.429688 -0.195312 L 3.429688 0 L 2.027344 0 L 2.027344 -0.195312 C 2.074219 -0.199219 2.117188 -0.203125 2.160156 -0.207031 C 2.203125 -0.210938 2.242188 -0.222656 2.28125 -0.234375 C 2.335938 -0.25 2.375 -0.28125 2.402344 -0.328125 C 2.429688 -0.371094 2.445312 -0.429688 2.445312 -0.5 L 2.445312 -2.019531 C 2.445312 -2.226562 2.394531 -2.386719 2.300781 -2.5 C 2.207031 -2.609375 2.089844 -2.667969 1.945312 -2.667969 C 1.847656 -2.667969 1.757812 -2.652344 1.671875 -2.621094 C 1.585938 -2.589844 1.507812 -2.546875 1.4375 -2.496094 C 1.378906 -2.449219 1.328125 -2.402344 1.289062 -2.347656 C 1.25 -2.292969 1.21875 -2.25 1.199219 -2.222656 L 1.199219 -0.535156 C 1.199219 -0.46875 1.214844 -0.414062 1.242188 -0.367188 C 1.269531 -0.320312 1.3125 -0.285156 1.367188 -0.261719 C 1.410156 -0.242188 1.449219 -0.226562 1.496094 -0.21875 C 1.539062 -0.207031 1.585938 -0.199219 1.640625 -0.195312 L 1.640625 0 L 0.210938 0 L 0.210938 -0.195312 C 0.257812 -0.199219 0.304688 -0.203125 0.355469 -0.207031 C 0.402344 -0.210938 0.445312 -0.222656 0.480469 -0.234375 C 0.535156 -0.25 0.578125 -0.28125 0.605469 -0.328125 C 0.632812 -0.371094 0.644531 -0.429688 0.644531 -0.5 L 0.644531 -2.328125 C 0.644531 -2.390625 0.628906 -2.449219 0.601562 -2.5 C 0.574219 -2.550781 0.53125 -2.59375 0.480469 -2.628906 C 0.441406 -2.652344 0.394531 -2.671875 0.339844 -2.6875 C 0.285156 -2.703125 0.226562 -2.710938 0.167969 -2.714844 L 0.167969 -2.914062 L 1.152344 -2.976562 L 1.195312 -2.9375 L 1.195312 -2.515625 L 1.214844 -2.515625 C 1.265625 -2.566406 1.324219 -2.625 1.394531 -2.691406 C 1.46875 -2.757812 1.535156 -2.8125 1.597656 -2.855469 C 1.664062 -2.902344 1.753906 -2.941406 1.855469 -2.976562 C 1.960938 -3.007812 2.074219 -3.023438 2.195312 -3.023438 C 2.386719 -3.023438 2.550781 -2.972656 2.6875 -2.867188 C 2.824219 -2.765625 2.925781 -2.644531 2.984375 -2.496094 C 3.054688 -2.566406 3.117188 -2.628906 3.171875 -2.679688 C 3.226562 -2.734375 3.300781 -2.789062 3.390625 -2.847656 C 3.464844 -2.902344 3.554688 -2.941406 3.65625 -2.976562 C 3.757812 -3.007812 3.871094 -3.023438 3.996094 -3.023438 C 4.246094 -3.023438 4.441406 -2.941406 4.585938 -2.777344 C 4.730469 -2.613281 4.804688 -2.363281 4.804688 -2.027344 L 4.804688 -0.53125 C 4.804688 -0.460938 4.816406 -0.402344 4.839844 -0.359375 C 4.863281 -0.316406 4.902344 -0.28125 4.960938 -0.257812 C 5.007812 -0.238281 5.054688 -0.226562 5.097656 -0.214844 C 5.140625 -0.207031 5.191406 -0.199219 5.25 -0.195312 Z "/>
</g>
<g id="glyph-1-7">
<path d="M 0.992188 -4.230469 C 0.992188 -4.152344 0.96875 -4 0.914062 -3.769531 C 0.863281 -3.542969 0.804688 -3.25 0.742188 -2.886719 L 0.5625 -2.886719 C 0.507812 -3.226562 0.453125 -3.515625 0.402344 -3.753906 C 0.347656 -3.996094 0.320312 -4.152344 0.320312 -4.230469 C 0.320312 -4.324219 0.351562 -4.402344 0.40625 -4.464844 C 0.460938 -4.53125 0.546875 -4.566406 0.660156 -4.566406 C 0.765625 -4.566406 0.847656 -4.53125 0.90625 -4.464844 C 0.964844 -4.402344 0.992188 -4.324219 0.992188 -4.230469 Z "/>
</g>
<g id="glyph-1-8">
<path d="M 4.238281 0 L 2.480469 0 L 2.480469 -0.210938 C 2.636719 -0.222656 2.765625 -0.242188 2.867188 -0.273438 C 2.96875 -0.300781 3.019531 -0.339844 3.019531 -0.382812 C 3.019531 -0.398438 3.019531 -0.421875 3.015625 -0.449219 C 3.011719 -0.472656 3.003906 -0.496094 2.996094 -0.515625 L 2.644531 -1.464844 L 1.160156 -1.464844 C 1.101562 -1.324219 1.058594 -1.203125 1.023438 -1.101562 C 0.988281 -0.996094 0.957031 -0.902344 0.929688 -0.816406 C 0.902344 -0.730469 0.886719 -0.660156 0.875 -0.605469 C 0.867188 -0.550781 0.859375 -0.507812 0.859375 -0.472656 C 0.859375 -0.394531 0.921875 -0.332031 1.046875 -0.289062 C 1.171875 -0.246094 1.316406 -0.21875 1.472656 -0.210938 L 1.472656 0 L -0.121094 0 L -0.121094 -0.210938 C -0.0703125 -0.214844 -0.0078125 -0.226562 0.0703125 -0.246094 C 0.148438 -0.265625 0.210938 -0.289062 0.261719 -0.320312 C 0.34375 -0.375 0.402344 -0.433594 0.449219 -0.492188 C 0.492188 -0.550781 0.535156 -0.628906 0.574219 -0.734375 C 0.789062 -1.265625 1.023438 -1.863281 1.28125 -2.523438 C 1.535156 -3.1875 1.765625 -3.777344 1.964844 -4.292969 L 2.203125 -4.292969 L 3.617188 -0.640625 C 3.644531 -0.5625 3.679688 -0.5 3.71875 -0.453125 C 3.753906 -0.40625 3.808594 -0.359375 3.875 -0.3125 C 3.921875 -0.285156 3.980469 -0.261719 4.054688 -0.242188 C 4.128906 -0.222656 4.191406 -0.214844 4.238281 -0.210938 L 4.238281 0 M 2.535156 -1.730469 L 1.894531 -3.375 L 1.261719 -1.730469 Z "/>
</g>
<g id="glyph-1-9">
<path d="M 2.089844 0.980469 C 1.546875 0.910156 1.121094 0.636719 0.8125 0.15625 C 0.503906 -0.320312 0.347656 -0.964844 0.347656 -1.777344 C 0.347656 -2.605469 0.503906 -3.257812 0.8125 -3.738281 C 1.121094 -4.222656 1.546875 -4.5 2.089844 -4.570312 L 2.089844 -4.324219 C 1.710938 -4.253906 1.417969 -4.011719 1.21875 -3.59375 C 1.019531 -3.175781 0.921875 -2.566406 0.921875 -1.773438 C 0.921875 -1.015625 1.019531 -0.425781 1.214844 -0.00390625 C 1.410156 0.417969 1.703125 0.664062 2.089844 0.734375 Z "/>
</g>
<g id="glyph-1-10">
<path d="M 3.332031 -1.121094 C 3.332031 -0.789062 3.1875 -0.5 2.898438 -0.257812 C 2.613281 -0.0195312 2.234375 0.101562 1.761719 0.101562 C 1.324219 0.101562 0.972656 -0.0078125 0.707031 -0.230469 C 0.441406 -0.449219 0.308594 -0.734375 0.308594 -1.082031 C 0.308594 -1.339844 0.386719 -1.554688 0.542969 -1.726562 C 0.699219 -1.898438 0.933594 -2.042969 1.238281 -2.164062 C 0.984375 -2.304688 0.796875 -2.460938 0.671875 -2.628906 C 0.546875 -2.796875 0.484375 -2.988281 0.484375 -3.203125 C 0.484375 -3.527344 0.621094 -3.796875 0.898438 -4.015625 C 1.171875 -4.234375 1.5 -4.34375 1.886719 -4.34375 C 2.269531 -4.34375 2.582031 -4.242188 2.816406 -4.035156 C 3.054688 -3.828125 3.175781 -3.566406 3.175781 -3.253906 C 3.175781 -3.054688 3.109375 -2.863281 2.976562 -2.683594 C 2.847656 -2.503906 2.652344 -2.355469 2.398438 -2.242188 C 2.730469 -2.097656 2.96875 -1.945312 3.113281 -1.773438 C 3.257812 -1.601562 3.332031 -1.382812 3.332031 -1.121094 M 2.609375 -3.289062 C 2.609375 -3.53125 2.539062 -3.726562 2.394531 -3.878906 C 2.25 -4.03125 2.066406 -4.109375 1.839844 -4.109375 C 1.617188 -4.109375 1.433594 -4.035156 1.289062 -3.890625 C 1.144531 -3.742188 1.074219 -3.5625 1.074219 -3.34375 C 1.074219 -3.136719 1.15625 -2.957031 1.320312 -2.8125 C 1.480469 -2.667969 1.773438 -2.511719 2.191406 -2.347656 C 2.339844 -2.445312 2.445312 -2.570312 2.511719 -2.726562 C 2.578125 -2.882812 2.609375 -3.070312 2.609375 -3.289062 M 2.734375 -0.980469 C 2.734375 -1.105469 2.710938 -1.21875 2.65625 -1.3125 C 2.601562 -1.40625 2.523438 -1.492188 2.421875 -1.570312 C 2.324219 -1.644531 2.191406 -1.722656 2.015625 -1.808594 C 1.839844 -1.890625 1.652344 -1.972656 1.449219 -2.058594 C 1.257812 -1.957031 1.117188 -1.824219 1.03125 -1.664062 C 0.941406 -1.503906 0.894531 -1.320312 0.894531 -1.117188 C 0.894531 -0.824219 0.980469 -0.585938 1.152344 -0.40625 C 1.324219 -0.226562 1.554688 -0.136719 1.839844 -0.136719 C 2.117188 -0.136719 2.332031 -0.21875 2.496094 -0.375 C 2.65625 -0.535156 2.734375 -0.738281 2.734375 -0.980469 Z "/>
</g>
<g id="glyph-1-11">
<path d="M 2.03125 -1.382812 L 0.253906 -1.382812 L 0.253906 -1.855469 L 2.03125 -1.855469 Z "/>
</g>
<g id="glyph-1-12">
<path d="M 1.941406 -1.777344 C 1.941406 -0.964844 1.789062 -0.320312 1.476562 0.15625 C 1.167969 0.636719 0.742188 0.910156 0.199219 0.980469 L 0.199219 0.734375 C 0.589844 0.664062 0.882812 0.417969 1.078125 -0.00390625 C 1.273438 -0.425781 1.371094 -1.015625 1.371094 -1.773438 C 1.371094 -2.566406 1.269531 -3.175781 1.070312 -3.59375 C 0.871094 -4.011719 0.582031 -4.253906 0.199219 -4.324219 L 0.199219 -4.570312 C 0.742188 -4.5 1.167969 -4.222656 1.476562 -3.738281 C 1.789062 -3.257812 1.941406 -2.605469 1.941406 -1.777344 Z "/>
</g>
</g>
</defs>
<g fill="rgb(100%, 100%, 0%)" fill-opacity="1">
<use xlink:href="#glyph-0-0" x="30" y="26"/>
</g>
<g fill="rgb(100%, 100%, 0%)" fill-opacity="1">
<use xlink:href="#glyph-1-0" x="36" y="25.603516"/>
<use xlink:href="#glyph-1-1" x="41" y="25.603516"/>
<use xlink:href="#glyph-1-2" x="45" y="25.603516"/>
<use xlink:href="#glyph-1-3" x="49" y="25.603516"/>
<use xlink:href="#glyph-1-4" x="52" y="25.603516"/>
<use xlink:href="#glyph-1-5" x="53" y="25.603516"/>
<use xlink:href="#glyph-1-6" x="56" y="25.603516"/>
</g>
<g fill="rgb(100%, 100%, 0%)" fill-opacity="1">
<use xlink:href="#glyph-0-1" x="61" y="26"/>
</g>
<g fill="rgb(100%, 100%, 0%)" fill-opacity="1">
<use xlink:href="#glyph-0-2" x="67" y="26"/>
</g>
<g fill="rgb(100%, 100%, 0%)" fill-opacity="1">
<use xlink:href="#glyph-1-0" x="73" y="25.603516"/>
<use xlink:href="#glyph-1-1" x="78" y="25.603516"/>
<use xlink:href="#glyph-1-7" x="82" y="25.603516"/>
<use xlink:href="#glyph-1-2" x="83" y="25.603516"/>
<use xlink:href="#glyph-1-3" x="87" y="25.603516"/>
<use xlink:href="#glyph-1-4" x="90" y="25.603516"/>
<use xlink:href="#glyph-1-5" x="91" y="25.603516"/>
<use xlink:href="#glyph-1-6" x="94" y="25.603516"/>
</g>
<g fill="rgb(100%, 100%, 0%)" fill-opacity="1">
<use xlink:href="#glyph-0-1" x="99" y="26"/>
</g>
<g fill="rgb(100%, 100%, 0%)" fill-opacity="1">
<use xlink:href="#glyph-1-8" x="105" y="25.603516"/>
<use xlink:href="#glyph-1-4" x="109" y="25.603516"/>
<use xlink:href="#glyph-1-0" x="110" y="25.603516"/>
<use xlink:href="#glyph-1-2" x="115" y="25.603516"/>
<use xlink:href="#glyph-1-9" x="119" y="25.603516"/>
<use xlink:href="#glyph-1-10" x="121" y="25.603516"/>
<use xlink:href="#glyph-1-11" x="125" y="25.603516"/>
<use xlink:href="#glyph-1-3" x="127" y="25.603516"/>
<use xlink:href="#glyph-1-12" x="130" y="25.603516"/>
<use xlink:href="#glyph-1-5" x="132" y="25.603516"/>
<use xlink:href="#glyph-1-6" x="135" y="25.603516"/>
</g>
</svg>
