<?xml version="1.0" encoding="UTF-8"?>
<svg xmlns="http://www.w3.org/2000/svg" xmlns:xlink="http://www.w3.org/1999/xlink" width="1920" height="1080" viewBox="0 0 1920 1080">
<defs>
<g>
<g id="glyph-0-0">
<path d="M 2.839844 -3.628906 L 3.269531 -3.339844 L 3.101562 -3.246094 C 3.390625 -2.960938 3.671875 -2.742188 3.949219 -2.589844 C 4.230469 -2.4375 4.507812 -2.324219 4.785156 -2.242188 C 5.0625 -2.164062 5.425781 -2.101562 5.871094 -2.054688 L 5.871094 -1.980469 C 5.648438 -1.949219 5.507812 -1.839844 5.441406 -1.648438 C 5.109375 -1.742188 4.820312 -1.847656 4.582031 -1.957031 C 4.34375 -2.070312 4.085938 -2.214844 3.808594 -2.398438 C 3.527344 -2.582031 3.261719 -2.839844 3.007812 -3.175781 C 2.738281 -2.886719 2.375 -2.582031 1.921875 -2.253906 C 1.46875 -1.929688 0.914062 -1.648438 0.261719 -1.410156 L 0.238281 -1.503906 C 0.652344 -1.695312 1.046875 -1.929688 1.421875 -2.207031 C 1.792969 -2.488281 2.09375 -2.742188 2.316406 -2.972656 C 2.539062 -3.203125 2.714844 -3.421875 2.839844 -3.628906 M 1.597656 -1.933594 L 3.652344 -1.933594 L 3.914062 -2.195312 L 4.296875 -1.789062 L 2.269531 -1.789062 C 2.140625 -1.789062 1.988281 -1.765625 1.8125 -1.71875 L 1.597656 -1.933594 M 1.433594 0.597656 C 1.449219 0.292969 1.457031 -0.0273438 1.457031 -0.371094 C 1.457031 -0.710938 1.449219 -1.050781 1.433594 -1.382812 L 1.789062 -1.167969 L 4.128906 -1.167969 L 4.367188 -1.410156 L 4.726562 -1.050781 L 4.511719 -0.90625 C 4.511719 -0.222656 4.519531 0.214844 4.535156 0.40625 L 4.175781 0.550781 L 4.175781 0.191406 L 1.789062 0.191406 L 1.789062 0.453125 L 1.433594 0.597656 M 1.789062 -1.027344 L 1.789062 0.046875 L 4.175781 0.046875 L 4.175781 -1.027344 L 1.789062 -1.027344 M 2.003906 -4.65625 C 1.910156 -4.621094 1.757812 -4.457031 1.550781 -4.152344 L 2.648438 -4.152344 L 2.914062 -4.414062 L 3.292969 -4.011719 L 1.8125 -4.011719 C 1.941406 -3.914062 2.058594 -3.808594 2.160156 -3.6875 C 2.261719 -3.570312 2.300781 -3.460938 2.269531 -3.367188 C 2.234375 -3.269531 2.1875 -3.203125 2.125 -3.164062 C 2.0625 -3.121094 2.019531 -3.101562 2.003906 -3.101562 C 1.972656 -3.101562 1.949219 -3.144531 1.933594 -3.222656 C 1.917969 -3.332031 1.894531 -3.460938 1.863281 -3.605469 C 1.828125 -3.746094 1.773438 -3.882812 1.695312 -4.011719 L 1.480469 -4.011719 C 1.351562 -3.851562 1.226562 -3.683594 1.097656 -3.507812 C 0.953125 -3.332031 0.730469 -3.117188 0.429688 -2.863281 L 0.382812 -2.9375 C 0.652344 -3.269531 0.878906 -3.609375 1.0625 -3.949219 C 1.246094 -4.292969 1.382812 -4.628906 1.480469 -4.964844 L 2.003906 -4.65625 M 4.152344 -4.703125 C 4.105469 -4.65625 4.042969 -4.578125 3.960938 -4.476562 C 3.882812 -4.371094 3.804688 -4.265625 3.722656 -4.152344 L 5.011719 -4.152344 L 5.273438 -4.414062 L 5.65625 -4.011719 L 4.273438 -4.011719 C 4.464844 -3.898438 4.617188 -3.789062 4.738281 -3.675781 C 4.859375 -3.566406 4.910156 -3.457031 4.894531 -3.355469 C 4.878906 -3.25 4.839844 -3.175781 4.785156 -3.125 C 4.730469 -3.078125 4.6875 -3.054688 4.65625 -3.054688 C 4.605469 -3.054688 4.574219 -3.101562 4.558594 -3.199219 C 4.511719 -3.324219 4.464844 -3.449219 4.414062 -3.570312 C 4.367188 -3.6875 4.273438 -3.835938 4.128906 -4.011719 L 3.652344 -4.011719 C 3.523438 -3.835938 3.375 -3.652344 3.199219 -3.460938 L 3.101562 -3.507812 C 3.246094 -3.761719 3.371094 -4.023438 3.472656 -4.285156 C 3.578125 -4.546875 3.652344 -4.78125 3.699219 -4.988281 Z "/>
</g>
<g id="glyph-0-1">
<path d="M 2.554688 -5.011719 C 2.886719 -4.902344 3.085938 -4.808594 3.152344 -4.738281 C 3.214844 -4.667969 3.246094 -4.597656 3.246094 -4.535156 C 3.246094 -4.457031 3.226562 -4.382812 3.1875 -4.320312 C 3.148438 -4.257812 3.109375 -4.226562 3.078125 -4.226562 C 3.03125 -4.226562 2.984375 -4.289062 2.9375 -4.414062 C 2.839844 -4.605469 2.707031 -4.78125 2.53125 -4.941406 L 2.554688 -5.011719 M 4.679688 -3.554688 L 4.894531 -4.035156 L 2.722656 -4.035156 L 3.007812 -3.820312 L 2.816406 -3.722656 L 2.507812 -3.316406 L 4.726562 -3.316406 L 5.058594 -3.652344 L 5.539062 -3.175781 L 4.226562 -3.175781 C 4.003906 -2.871094 3.789062 -2.632812 3.582031 -2.457031 C 4.042969 -2.363281 4.378906 -2.269531 4.59375 -2.171875 C 4.808594 -2.078125 4.914062 -1.964844 4.90625 -1.839844 C 4.898438 -1.710938 4.871094 -1.648438 4.820312 -1.648438 C 4.773438 -1.648438 4.726562 -1.664062 4.679688 -1.695312 C 4.519531 -1.773438 4.339844 -1.867188 4.140625 -1.96875 C 3.941406 -2.074219 3.691406 -2.171875 3.390625 -2.269531 C 2.847656 -1.902344 1.988281 -1.679688 0.8125 -1.597656 L 0.8125 -1.695312 C 1.796875 -1.820312 2.554688 -2.042969 3.078125 -2.363281 C 2.746094 -2.441406 2.269531 -2.523438 1.648438 -2.601562 C 1.804688 -2.792969 1.957031 -2.984375 2.101562 -3.175781 L 0.980469 -3.175781 L 0.765625 -3.125 L 0.574219 -3.316406 L 2.171875 -3.316406 C 2.394531 -3.667969 2.53125 -3.90625 2.578125 -4.035156 L 1.195312 -4.035156 C 1.195312 -3.796875 1.148438 -3.640625 1.0625 -3.570312 C 0.976562 -3.496094 0.898438 -3.460938 0.835938 -3.460938 C 0.773438 -3.460938 0.710938 -3.476562 0.65625 -3.507812 C 0.601562 -3.539062 0.574219 -3.566406 0.574219 -3.582031 C 0.574219 -3.644531 0.628906 -3.707031 0.738281 -3.769531 C 0.898438 -3.882812 1.019531 -4.097656 1.097656 -4.414062 L 1.195312 -4.414062 L 1.195312 -4.175781 L 4.871094 -4.175781 L 5.085938 -4.414062 L 5.488281 -4.035156 C 5.394531 -4.035156 5.289062 -3.992188 5.167969 -3.902344 C 5.046875 -3.816406 4.910156 -3.683594 4.75 -3.507812 L 4.679688 -3.554688 M 2.433594 -3.175781 C 2.324219 -3.03125 2.195312 -2.863281 2.054688 -2.671875 C 2.402344 -2.640625 2.808594 -2.59375 3.269531 -2.53125 C 3.460938 -2.707031 3.644531 -2.921875 3.820312 -3.175781 L 2.433594 -3.175781 M 2.886719 0.597656 C 2.902344 0.0546875 2.914062 -0.5 2.914062 -1.074219 C 2.292969 -0.328125 1.425781 0.207031 0.308594 0.523438 L 0.285156 0.429688 C 1.242188 0.0625 1.988281 -0.460938 2.53125 -1.144531 L 0.882812 -1.144531 L 0.621094 -1.097656 L 0.429688 -1.289062 L 2.914062 -1.289062 C 2.914062 -1.464844 2.902344 -1.671875 2.886719 -1.910156 L 3.460938 -1.671875 L 3.246094 -1.527344 L 3.246094 -1.289062 L 4.894531 -1.289062 L 5.25 -1.648438 L 5.753906 -1.144531 L 3.4375 -1.144531 C 4.011719 -0.460938 4.796875 -0.0859375 5.800781 -0.0234375 L 5.800781 0.0703125 C 5.5625 0.121094 5.410156 0.230469 5.347656 0.40625 C 4.40625 0.101562 3.730469 -0.414062 3.316406 -1.144531 L 3.246094 -1.144531 C 3.246094 -0.414062 3.253906 0.101562 3.269531 0.40625 Z "/>
</g>
<g id="glyph-0-2">
<path d="M 1.480469 -0.644531 C 1.574219 -0.582031 1.621094 -0.472656 1.609375 -0.320312 C 1.601562 -0.171875 1.542969 -0.0625 1.433594 0 C 1.320312 0.0625 1.242188 0.09375 1.195312 0.09375 C 1.144531 0.09375 1.066406 0.0625 0.953125 0 C 0.84375 -0.0625 0.785156 -0.175781 0.777344 -0.335938 C 0.769531 -0.492188 0.816406 -0.601562 0.917969 -0.65625 C 1.023438 -0.710938 1.113281 -0.738281 1.195312 -0.738281 C 1.289062 -0.738281 1.382812 -0.707031 1.480469 -0.644531 M 1.480469 -2.089844 C 1.589844 -2.03125 1.648438 -1.921875 1.648438 -1.753906 C 1.648438 -1.585938 1.582031 -1.476562 1.457031 -1.421875 C 1.328125 -1.363281 1.242188 -1.335938 1.195312 -1.335938 C 1.113281 -1.335938 1.023438 -1.371094 0.917969 -1.445312 C 0.816406 -1.515625 0.769531 -1.628906 0.777344 -1.777344 C 0.785156 -1.929688 0.84375 -2.03125 0.953125 -2.089844 C 1.066406 -2.144531 1.152344 -2.171875 1.21875 -2.171875 C 1.28125 -2.171875 1.367188 -2.144531 1.480469 -2.089844 Z "/>
</g>
<g id="glyph-1-0">
<path d="M 3.207031 -1.375 C 3.207031 -1.167969 3.171875 -0.972656 3.09375 -0.792969 C 3.019531 -0.613281 2.921875 -0.457031 2.796875 -0.332031 C 2.652344 -0.1875 2.488281 -0.078125 2.3125 -0.0078125 C 2.136719 0.0625 1.953125 0.09375 1.761719 0.09375 C 1.542969 0.09375 1.34375 0.0546875 1.164062 -0.0273438 C 0.984375 -0.109375 0.832031 -0.222656 0.707031 -0.371094 C 0.578125 -0.523438 0.480469 -0.707031 0.410156 -0.925781 C 0.34375 -1.144531 0.308594 -1.390625 0.308594 -1.664062 C 0.308594 -2.375 0.519531 -2.972656 0.941406 -3.457031 C 1.363281 -3.945312 1.929688 -4.238281 2.640625 -4.335938 L 2.695312 -4.066406 L 2.425781 -4.019531 C 1.992188 -3.878906 1.660156 -3.664062 1.425781 -3.367188 C 1.1875 -3.074219 1.035156 -2.71875 0.964844 -2.296875 C 1.136719 -2.445312 1.308594 -2.550781 1.472656 -2.613281 C 1.640625 -2.675781 1.816406 -2.707031 2.003906 -2.707031 C 2.335938 -2.707031 2.617188 -2.578125 2.855469 -2.324219 C 3.089844 -2.070312 3.207031 -1.753906 3.207031 -1.375 M 2.558594 -1.296875 C 2.558594 -1.617188 2.484375 -1.875 2.335938 -2.070312 C 2.191406 -2.265625 1.992188 -2.363281 1.742188 -2.363281 C 1.59375 -2.363281 1.453125 -2.335938 1.328125 -2.28125 C 1.199219 -2.222656 1.074219 -2.128906 0.953125 -2 C 0.953125 -1.976562 0.949219 -1.921875 0.945312 -1.832031 C 0.941406 -1.746094 0.941406 -1.679688 0.941406 -1.628906 C 0.941406 -1.164062 1.015625 -0.800781 1.167969 -0.535156 C 1.320312 -0.273438 1.519531 -0.140625 1.769531 -0.140625 C 2.007812 -0.140625 2.195312 -0.242188 2.34375 -0.449219 C 2.488281 -0.65625 2.558594 -0.9375 2.558594 -1.296875 Z "/>
</g>
</g>
</defs>
<g fill="rgb(100%, 100%, 0%)" fill-opacity="1">
<use xlink:href="#glyph-0-0" x="30" y="26"/>
<use xlink:href="#glyph-0-1" x="36" y="26"/>
<use xlink:href="#glyph-0-2" x="42" y="26"/>
</g>
<g fill="rgb(100%, 100%, 0%)" fill-opacity="1">
<use xlink:href="#glyph-1-0" x="48" y="25.603516"/>
</g>
</svg>
