<?xml version="1.0" encoding="UTF-8"?>
<svg xmlns="http://www.w3.org/2000/svg" xmlns:xlink="http://www.w3.org/1999/xlink" width="1920" height="1080" viewBox="0 0 1920 1080">
<defs>
<g>
<g id="glyph-0-0">
<path d="M 2.742188 0.128906 C 2.421875 0.128906 2.113281 0.0664062 1.820312 -0.0625 C 1.523438 -0.1875 1.265625 -0.371094 1.035156 -0.609375 C 0.8125 -0.847656 0.632812 -1.136719 0.496094 -1.480469 C 0.363281 -1.824219 0.296875 -2.210938 0.296875 -2.640625 C 0.296875 -3.070312 0.363281 -3.460938 0.492188 -3.8125 C 0.625 -4.164062 0.808594 -4.464844 1.039062 -4.71875 C 1.269531 -4.96875 1.542969 -5.164062 1.855469 -5.300781 C 2.167969 -5.4375 2.503906 -5.507812 2.859375 -5.507812 C 3.125 -5.507812 3.367188 -5.472656 3.582031 -5.40625 C 3.796875 -5.34375 4 -5.25 4.195312 -5.128906 L 4.351562 -5.390625 L 4.65625 -5.390625 L 4.691406 -3.46875 L 4.378906 -3.46875 C 4.339844 -3.65625 4.277344 -3.859375 4.195312 -4.078125 C 4.117188 -4.296875 4.019531 -4.480469 3.910156 -4.632812 C 3.789062 -4.804688 3.648438 -4.941406 3.480469 -5.039062 C 3.3125 -5.136719 3.121094 -5.183594 2.90625 -5.183594 C 2.660156 -5.183594 2.433594 -5.128906 2.222656 -5.019531 C 2.011719 -4.910156 1.828125 -4.75 1.675781 -4.539062 C 1.527344 -4.332031 1.414062 -4.070312 1.328125 -3.753906 C 1.246094 -3.4375 1.203125 -3.085938 1.203125 -2.695312 C 1.203125 -2.351562 1.246094 -2.035156 1.335938 -1.746094 C 1.421875 -1.457031 1.546875 -1.207031 1.707031 -0.988281 C 1.871094 -0.773438 2.0625 -0.605469 2.28125 -0.484375 C 2.503906 -0.359375 2.75 -0.300781 3.023438 -0.300781 C 3.230469 -0.300781 3.417969 -0.332031 3.589844 -0.398438 C 3.761719 -0.460938 3.910156 -0.546875 4.039062 -0.652344 C 4.164062 -0.765625 4.273438 -0.890625 4.371094 -1.03125 C 4.46875 -1.175781 4.546875 -1.328125 4.605469 -1.496094 L 4.890625 -1.359375 C 4.671875 -0.824219 4.386719 -0.445312 4.027344 -0.214844 C 3.667969 0.015625 3.238281 0.128906 2.742188 0.128906 Z "/>
</g>
<g id="glyph-0-1">
<path d="M 4.902344 -1.585938 L 4.800781 0 L 0.328125 0 L 0.328125 -0.269531 C 0.402344 -0.273438 0.503906 -0.285156 0.628906 -0.300781 C 0.757812 -0.320312 0.839844 -0.335938 0.878906 -0.351562 C 0.957031 -0.390625 1.015625 -0.441406 1.046875 -0.5 C 1.078125 -0.5625 1.09375 -0.640625 1.09375 -0.734375 L 1.09375 -4.605469 C 1.09375 -4.691406 1.078125 -4.765625 1.050781 -4.828125 C 1.023438 -4.894531 0.964844 -4.945312 0.878906 -4.984375 C 0.808594 -5.019531 0.71875 -5.046875 0.601562 -5.074219 C 0.488281 -5.097656 0.394531 -5.113281 0.328125 -5.117188 L 0.328125 -5.390625 L 4.496094 -5.390625 L 4.496094 -4.089844 L 4.210938 -4.089844 C 4.160156 -4.28125 4.050781 -4.488281 3.882812 -4.703125 C 3.714844 -4.917969 3.554688 -5.039062 3.402344 -5.058594 C 3.324219 -5.070312 3.230469 -5.074219 3.121094 -5.082031 C 3.011719 -5.085938 2.886719 -5.089844 2.75 -5.089844 L 1.902344 -5.089844 L 1.902344 -2.945312 L 2.511719 -2.945312 C 2.707031 -2.945312 2.847656 -2.964844 2.9375 -3 C 3.027344 -3.039062 3.105469 -3.101562 3.175781 -3.1875 C 3.230469 -3.257812 3.277344 -3.359375 3.316406 -3.480469 C 3.355469 -3.601562 3.382812 -3.71875 3.394531 -3.828125 L 3.679688 -3.828125 L 3.679688 -1.714844 L 3.394531 -1.714844 C 3.386719 -1.839844 3.359375 -1.964844 3.3125 -2.101562 C 3.269531 -2.238281 3.222656 -2.335938 3.175781 -2.394531 C 3.097656 -2.496094 3.007812 -2.558594 2.90625 -2.589844 C 2.808594 -2.621094 2.675781 -2.636719 2.511719 -2.636719 L 1.902344 -2.636719 L 1.902344 -1.019531 C 1.902344 -0.859375 1.914062 -0.730469 1.9375 -0.636719 C 1.960938 -0.542969 2.003906 -0.472656 2.070312 -0.425781 C 2.136719 -0.378906 2.226562 -0.347656 2.339844 -0.332031 C 2.453125 -0.316406 2.613281 -0.3125 2.824219 -0.3125 C 2.910156 -0.3125 3.019531 -0.3125 3.15625 -0.3125 C 3.292969 -0.3125 3.40625 -0.316406 3.5 -0.328125 C 3.597656 -0.335938 3.695312 -0.355469 3.800781 -0.382812 C 3.902344 -0.410156 3.976562 -0.445312 4.019531 -0.488281 C 4.132812 -0.613281 4.257812 -0.796875 4.382812 -1.042969 C 4.511719 -1.289062 4.59375 -1.472656 4.628906 -1.585938 Z "/>
</g>
<g id="glyph-0-2">
</g>
<g id="glyph-0-3">
<path d="M 3.070312 0 L 0.511719 0 L 0.511719 -0.269531 C 0.589844 -0.273438 0.707031 -0.285156 0.867188 -0.300781 C 1.027344 -0.320312 1.140625 -0.335938 1.199219 -0.351562 C 1.277344 -0.378906 1.339844 -0.417969 1.378906 -0.476562 C 1.421875 -0.535156 1.441406 -0.617188 1.441406 -0.734375 L 1.441406 -3.398438 L 0.496094 -3.398438 L 0.496094 -3.71875 L 0.707031 -3.71875 C 0.980469 -3.71875 1.226562 -3.769531 1.441406 -3.871094 C 1.65625 -3.972656 1.8125 -4.078125 1.90625 -4.195312 L 2.222656 -4.195312 C 2.214844 -4.03125 2.207031 -3.839844 2.199219 -3.617188 C 2.191406 -3.398438 2.1875 -3.203125 2.1875 -3.027344 L 2.1875 -0.773438 C 2.1875 -0.6875 2.207031 -0.605469 2.246094 -0.539062 C 2.285156 -0.46875 2.34375 -0.417969 2.414062 -0.382812 C 2.480469 -0.355469 2.589844 -0.332031 2.738281 -0.308594 C 2.886719 -0.285156 3 -0.273438 3.070312 -0.269531 Z "/>
</g>
<g id="glyph-0-4">
<path d="M 1.574219 -0.4375 C 1.574219 -0.296875 1.523438 -0.175781 1.421875 -0.0742188 C 1.320312 0.0273438 1.199219 0.0742188 1.054688 0.0742188 C 0.914062 0.0742188 0.792969 0.0273438 0.6875 -0.0742188 C 0.585938 -0.175781 0.535156 -0.296875 0.535156 -0.4375 C 0.535156 -0.578125 0.585938 -0.699219 0.6875 -0.804688 C 0.792969 -0.90625 0.914062 -0.957031 1.054688 -0.957031 C 1.199219 -0.957031 1.320312 -0.90625 1.421875 -0.804688 C 1.523438 -0.699219 1.574219 -0.578125 1.574219 -0.4375 Z "/>
</g>
<g id="glyph-0-5">
<path d="M 4.242188 -1.429688 C 4.242188 -1.003906 4.058594 -0.636719 3.691406 -0.332031 C 3.324219 -0.0234375 2.84375 0.128906 2.246094 0.128906 C 1.683594 0.128906 1.238281 -0.0117188 0.898438 -0.292969 C 0.5625 -0.574219 0.394531 -0.933594 0.394531 -1.378906 C 0.394531 -1.707031 0.496094 -1.976562 0.691406 -2.195312 C 0.890625 -2.414062 1.1875 -2.601562 1.574219 -2.753906 C 1.253906 -2.933594 1.015625 -3.128906 0.855469 -3.34375 C 0.695312 -3.5625 0.613281 -3.804688 0.613281 -4.074219 C 0.613281 -4.488281 0.789062 -4.832031 1.140625 -5.113281 C 1.492188 -5.390625 1.910156 -5.527344 2.398438 -5.527344 C 2.886719 -5.527344 3.285156 -5.398438 3.585938 -5.132812 C 3.890625 -4.871094 4.039062 -4.539062 4.039062 -4.144531 C 4.039062 -3.886719 3.957031 -3.644531 3.789062 -3.414062 C 3.621094 -3.1875 3.378906 -3 3.054688 -2.851562 C 3.472656 -2.671875 3.777344 -2.472656 3.960938 -2.253906 C 4.148438 -2.039062 4.242188 -1.761719 4.242188 -1.429688 M 3.324219 -4.183594 C 3.324219 -4.492188 3.230469 -4.746094 3.046875 -4.9375 C 2.863281 -5.132812 2.628906 -5.230469 2.34375 -5.230469 C 2.058594 -5.230469 1.824219 -5.136719 1.640625 -4.949219 C 1.457031 -4.765625 1.367188 -4.53125 1.367188 -4.257812 C 1.367188 -3.992188 1.472656 -3.765625 1.679688 -3.582031 C 1.886719 -3.394531 2.253906 -3.199219 2.789062 -2.988281 C 2.976562 -3.109375 3.113281 -3.269531 3.199219 -3.472656 C 3.28125 -3.671875 3.324219 -3.910156 3.324219 -4.183594 M 3.480469 -1.25 C 3.480469 -1.410156 3.449219 -1.546875 3.378906 -1.667969 C 3.3125 -1.789062 3.210938 -1.898438 3.082031 -1.996094 C 2.960938 -2.09375 2.785156 -2.195312 2.566406 -2.300781 C 2.34375 -2.40625 2.105469 -2.511719 1.84375 -2.621094 C 1.601562 -2.488281 1.425781 -2.320312 1.308594 -2.117188 C 1.195312 -1.914062 1.140625 -1.679688 1.140625 -1.421875 C 1.140625 -1.046875 1.25 -0.746094 1.46875 -0.519531 C 1.6875 -0.289062 1.976562 -0.175781 2.34375 -0.175781 C 2.691406 -0.175781 2.96875 -0.277344 3.175781 -0.476562 C 3.378906 -0.679688 3.480469 -0.9375 3.480469 -1.25 Z "/>
</g>
<g id="glyph-1-0">
<path d="M 1.367188 -4.585938 L 1.367188 -2.644531 L 2.945312 -2.644531 L 2.945312 -4.585938 L 1.367188 -4.585938 M 1.367188 -2.460938 L 1.367188 -0.335938 L 2.945312 -0.335938 L 2.945312 -2.460938 L 1.367188 -2.460938 M 3.34375 -4.40625 C 3.34375 -2.035156 3.351562 -0.484375 3.371094 0.242188 L 2.945312 0.484375 L 2.945312 -0.152344 L 1.367188 -0.152344 L 1.367188 0.363281 L 0.941406 0.609375 C 0.960938 -0.34375 0.972656 -1.292969 0.972656 -2.234375 C 0.972656 -3.175781 0.960938 -4.113281 0.941406 -5.042969 L 1.398438 -4.769531 L 1.703125 -4.769531 C 1.902344 -5.457031 2.015625 -5.984375 2.035156 -6.347656 L 2.703125 -5.984375 C 2.5 -5.882812 2.226562 -5.480469 1.882812 -4.769531 L 2.886719 -4.769531 L 3.191406 -5.074219 L 3.644531 -4.617188 L 3.34375 -4.40625 M 4.832031 -6.320312 L 5.5 -5.925781 C 5.335938 -5.824219 5.082031 -5.40625 4.738281 -4.679688 L 6.378906 -4.679688 L 6.714844 -5.011719 L 7.167969 -4.558594 L 6.894531 -4.34375 C 6.855469 -1.976562 6.800781 -0.632812 6.730469 -0.320312 C 6.660156 -0.00390625 6.558594 0.210938 6.425781 0.335938 C 6.292969 0.457031 6.085938 0.566406 5.800781 0.667969 C 5.703125 0.34375 5.367188 0.101562 4.800781 -0.0625 L 4.800781 -0.210938 C 5.304688 -0.113281 5.671875 -0.0625 5.894531 -0.0625 C 6.117188 -0.0625 6.253906 -0.234375 6.304688 -0.578125 C 6.355469 -0.921875 6.398438 -2.226562 6.441406 -4.496094 L 4.679688 -4.496094 C 4.3125 -3.910156 3.929688 -3.414062 3.523438 -3.007812 L 3.433594 -3.070312 C 3.859375 -3.714844 4.171875 -4.292969 4.375 -4.800781 C 4.578125 -5.304688 4.730469 -5.8125 4.832031 -6.320312 M 4.285156 -3.34375 C 4.769531 -2.976562 5.054688 -2.707031 5.132812 -2.535156 C 5.214844 -2.363281 5.253906 -2.238281 5.253906 -2.15625 C 5.253906 -2.015625 5.214844 -1.894531 5.132812 -1.792969 C 5.054688 -1.691406 4.992188 -1.640625 4.953125 -1.640625 C 4.871094 -1.640625 4.808594 -1.78125 4.769531 -2.066406 C 4.6875 -2.472656 4.507812 -2.867188 4.222656 -3.25 Z "/>
</g>
<g id="glyph-1-1">
<path d="M 2.035156 -3.160156 C 2.035156 -4.335938 2.035156 -5.039062 2.035156 -5.269531 C 2.035156 -5.503906 2.023438 -5.84375 2.003906 -6.289062 L 2.734375 -5.953125 L 2.492188 -5.710938 L 2.492188 -3.160156 L 6.136719 -3.160156 L 6.652344 -3.617188 L 7.199219 -2.976562 L 3.765625 -2.976562 C 4.132812 -2.25 4.632812 -1.660156 5.269531 -1.214844 C 5.910156 -0.769531 6.621094 -0.496094 7.414062 -0.394531 L 7.414062 -0.273438 C 7.089844 -0.273438 6.84375 -0.132812 6.683594 0.152344 C 6.054688 -0.0703125 5.457031 -0.433594 4.890625 -0.941406 C 4.324219 -1.449219 3.898438 -2.125 3.617188 -2.976562 L 2.492188 -2.976562 L 2.492188 -0.0898438 C 3.097656 -0.355469 3.714844 -0.617188 4.34375 -0.882812 L 4.40625 -0.730469 C 3.351562 -0.183594 2.644531 0.273438 2.277344 0.636719 L 1.882812 0.152344 C 1.984375 0.0117188 2.035156 -0.140625 2.035156 -0.304688 L 2.035156 -2.976562 L 1.335938 -2.976562 C 1.074219 -2.976562 0.832031 -2.945312 0.609375 -2.886719 L 0.335938 -3.160156 L 2.035156 -3.160156 M 5.4375 -6.199219 L 6.015625 -5.652344 L 5.621094 -5.5 C 4.507812 -4.527344 3.566406 -3.859375 2.796875 -3.492188 L 2.734375 -3.617188 C 3.382812 -4.0625 3.933594 -4.507812 4.390625 -4.953125 C 4.84375 -5.398438 5.195312 -5.8125 5.4375 -6.199219 Z "/>
</g>
<g id="glyph-1-2">
<path d="M 1.519531 -5.925781 C 2.226562 -5.5 2.601562 -5.191406 2.644531 -4.996094 C 2.683594 -4.804688 2.664062 -4.660156 2.582031 -4.558594 C 2.5 -4.457031 2.441406 -4.40625 2.398438 -4.40625 C 2.320312 -4.40625 2.25 -4.507812 2.1875 -4.707031 C 2.066406 -5.011719 1.8125 -5.386719 1.429688 -5.832031 L 1.519531 -5.925781 M 3.707031 -6.378906 L 4.527344 -5.984375 L 4.222656 -5.773438 C 4.160156 -5.183594 4.089844 -4.597656 4.011719 -4.011719 L 6.59375 -4.011719 L 6.835938 -4.40625 L 7.382812 -3.980469 L 7.109375 -3.738281 C 6.96875 -1.914062 6.859375 -0.824219 6.789062 -0.472656 C 6.71875 -0.117188 6.582031 0.152344 6.378906 0.335938 C 6.175781 0.515625 5.925781 0.648438 5.621094 0.730469 C 5.5 0.386719 5.082031 0.140625 4.375 0 L 4.375 -0.152344 C 5.0625 -0.0507812 5.519531 -0.00390625 5.742188 -0.015625 C 5.964844 -0.0234375 6.125 -0.132812 6.226562 -0.335938 C 6.328125 -0.535156 6.472656 -1.703125 6.652344 -3.828125 L 3.980469 -3.828125 C 3.714844 -2.550781 3.242188 -1.550781 2.550781 -0.820312 C 1.863281 -0.0898438 1.164062 0.425781 0.457031 0.730469 L 0.394531 0.636719 C 1.144531 0.152344 1.800781 -0.472656 2.371094 -1.230469 C 2.9375 -1.988281 3.3125 -2.855469 3.492188 -3.828125 L 1.703125 -3.828125 C 1.4375 -3.828125 1.195312 -3.796875 0.972656 -3.738281 L 0.699219 -4.011719 L 3.523438 -4.011719 C 3.644531 -4.71875 3.707031 -5.507812 3.707031 -6.378906 M 4.070312 -2.917969 C 5.003906 -2.492188 5.519531 -2.203125 5.621094 -2.050781 C 5.722656 -1.898438 5.773438 -1.761719 5.773438 -1.640625 C 5.773438 -1.539062 5.753906 -1.4375 5.710938 -1.335938 C 5.671875 -1.234375 5.628906 -1.183594 5.589844 -1.183594 C 5.527344 -1.183594 5.429688 -1.296875 5.285156 -1.519531 C 5.082031 -1.84375 4.660156 -2.269531 4.011719 -2.796875 Z "/>
</g>
</g>
</defs>
<g fill="rgb(100%, 100%, 0%)" fill-opacity="1">
<use xlink:href="#glyph-0-0" x="30" y="27.131836"/>
<use xlink:href="#glyph-0-1" x="35" y="27.131836"/>
<use xlink:href="#glyph-0-2" x="40" y="27.131836"/>
</g>
<g fill="rgb(100%, 100%, 0%)" fill-opacity="1">
<use xlink:href="#glyph-1-0" x="42" y="27.131836"/>
<use xlink:href="#glyph-1-1" x="50" y="27.131836"/>
<use xlink:href="#glyph-1-2" x="58" y="27.131836"/>
</g>
<g fill="rgb(100%, 100%, 0%)" fill-opacity="1">
<use xlink:href="#glyph-0-2" x="66" y="27.131836"/>
<use xlink:href="#glyph-0-3" x="68" y="27.131836"/>
<use xlink:href="#glyph-0-4" x="71" y="27.131836"/>
<use xlink:href="#glyph-0-5" x="73" y="27.131836"/>
</g>
</svg>
