<?xml version="1.0" encoding="UTF-8"?>
<svg xmlns="http://www.w3.org/2000/svg" xmlns:xlink="http://www.w3.org/1999/xlink" width="1920" height="1080" viewBox="0 0 1920 1080">
<defs>
<g>
<g id="glyph-0-0">
<path d="M 6.21875 -2.898438 C 7.042969 -2.074219 7.496094 -1.5625 7.585938 -1.367188 C 7.671875 -1.171875 7.714844 -1.019531 7.714844 -0.910156 C 7.714844 -0.757812 7.671875 -0.617188 7.585938 -0.488281 C 7.496094 -0.359375 7.445312 -0.292969 7.421875 -0.292969 C 7.3125 -0.292969 7.214844 -0.476562 7.128906 -0.847656 C 6.976562 -1.34375 6.640625 -2.007812 6.121094 -2.832031 L 6.21875 -2.898438 M 3.582031 -5.988281 L 6.476562 -5.988281 L 6.867188 -6.378906 L 7.453125 -5.792969 L 4.132812 -5.792969 L 3.839844 -5.730469 L 3.582031 -5.988281 M 4.035156 -0.0976562 C 4.621094 0.0117188 4.96875 0.0546875 5.078125 0.03125 C 5.1875 0.0117188 5.242188 -0.0742188 5.242188 -0.226562 L 5.242188 -3.839844 L 3.644531 -3.839844 L 3.351562 -3.777344 L 3.09375 -4.035156 L 6.964844 -4.035156 L 7.390625 -4.460938 L 8.007812 -3.839844 L 5.730469 -3.839844 L 5.730469 0.03125 C 5.707031 0.378906 5.46875 0.628906 5.011719 0.78125 C 5.011719 0.519531 4.6875 0.28125 4.035156 0.0664062 L 4.035156 -0.0976562 M 4.070312 -2.960938 L 4.785156 -2.539062 L 4.460938 -2.375 C 3.917969 -1.398438 3.34375 -0.617188 2.734375 -0.03125 L 2.636719 -0.128906 C 3.246094 -0.933594 3.722656 -1.878906 4.070312 -2.960938 M 2.179688 -3.546875 C 2.179688 -1.203125 2.191406 0.183594 2.214844 0.617188 L 1.691406 0.8125 C 1.714844 -0.121094 1.726562 -1.398438 1.726562 -3.027344 C 1.398438 -2.269531 0.976562 -1.5625 0.457031 -0.910156 L 0.359375 -1.042969 C 0.964844 -2.019531 1.421875 -3.179688 1.726562 -4.523438 L 0.910156 -4.523438 L 0.617188 -4.460938 L 0.359375 -4.71875 L 1.726562 -4.71875 C 1.726562 -5.542969 1.714844 -6.261719 1.691406 -6.867188 L 2.472656 -6.476562 L 2.179688 -6.25 L 2.179688 -4.71875 L 2.605469 -4.71875 L 2.960938 -5.078125 L 3.515625 -4.523438 L 2.179688 -4.523438 L 2.179688 -3.710938 C 2.59375 -3.492188 2.871094 -3.308594 3.011719 -3.15625 C 3.152344 -3.003906 3.222656 -2.875 3.222656 -2.765625 C 3.222656 -2.703125 3.191406 -2.609375 3.125 -2.488281 C 3.058594 -2.371094 3.003906 -2.3125 2.960938 -2.3125 C 2.898438 -2.3125 2.820312 -2.441406 2.734375 -2.703125 C 2.582031 -3.050781 2.398438 -3.332031 2.179688 -3.546875 Z "/>
</g>
<g id="glyph-0-1">
<path d="M 4.199219 -6.640625 C 4.699219 -6.402344 5.023438 -6.21875 5.175781 -6.085938 C 5.328125 -5.957031 5.402344 -5.828125 5.402344 -5.695312 C 5.402344 -5.589844 5.359375 -5.464844 5.273438 -5.320312 C 5.1875 -5.179688 5.121094 -5.109375 5.078125 -5.109375 C 4.992188 -5.109375 4.914062 -5.21875 4.851562 -5.4375 C 4.742188 -5.761719 4.503906 -6.128906 4.132812 -6.542969 L 4.199219 -6.640625 M 2.929688 -4.816406 L 6.640625 -4.816406 L 7.160156 -5.304688 L 7.78125 -4.621094 L 5.304688 -4.621094 L 5.304688 -2.570312 L 6.347656 -2.570312 L 6.804688 -3.027344 L 7.421875 -2.375 L 5.304688 -2.375 L 5.304688 0.03125 L 6.769531 0.03125 L 7.292969 -0.457031 L 7.910156 0.226562 L 3.351562 0.226562 C 3.070312 0.226562 2.808594 0.261719 2.570312 0.324219 L 2.277344 0.03125 L 4.851562 0.03125 L 4.851562 -2.375 L 4.035156 -2.375 C 3.753906 -2.375 3.492188 -2.34375 3.253906 -2.277344 L 2.960938 -2.570312 L 4.851562 -2.570312 L 4.851562 -4.621094 L 4.003906 -4.621094 C 3.722656 -4.621094 3.460938 -4.589844 3.222656 -4.523438 L 2.929688 -4.816406 M 2.929688 -5.304688 C 2.234375 -2.960938 1.84375 -1.644531 1.757812 -1.351562 C 1.671875 -1.058594 1.621094 -0.722656 1.609375 -0.339844 C 1.601562 0.0390625 1.605469 0.316406 1.628906 0.488281 C 1.628906 0.597656 1.585938 0.652344 1.496094 0.652344 C 1.433594 0.652344 1.324219 0.617188 1.171875 0.554688 C 1.019531 0.488281 0.945312 0.367188 0.945312 0.195312 C 0.945312 0.0859375 0.976562 -0.0664062 1.042969 -0.261719 C 1.105469 -0.476562 1.140625 -0.652344 1.140625 -0.78125 C 1.140625 -0.933594 1.089844 -1.050781 0.992188 -1.140625 C 0.894531 -1.226562 0.683594 -1.3125 0.359375 -1.398438 L 0.359375 -1.53125 C 0.75 -1.488281 0.992188 -1.46875 1.089844 -1.480469 C 1.1875 -1.492188 1.300781 -1.589844 1.433594 -1.773438 C 1.5625 -1.957031 2.019531 -3.148438 2.800781 -5.339844 L 2.929688 -5.304688 M 0.390625 -4.492188 C 1.148438 -4.144531 1.535156 -3.863281 1.546875 -3.644531 C 1.558594 -3.429688 1.523438 -3.269531 1.449219 -3.171875 C 1.371094 -3.074219 1.3125 -3.027344 1.269531 -3.027344 C 1.183594 -3.027344 1.105469 -3.125 1.042969 -3.320312 C 0.933594 -3.601562 0.695312 -3.960938 0.324219 -4.394531 L 0.390625 -4.492188 M 1.171875 -6.445312 C 1.757812 -6.164062 2.082031 -5.960938 2.148438 -5.84375 C 2.214844 -5.722656 2.246094 -5.621094 2.246094 -5.535156 C 2.246094 -5.402344 2.203125 -5.273438 2.117188 -5.144531 C 2.027344 -5.011719 1.976562 -4.949219 1.953125 -4.949219 C 1.886719 -4.949219 1.824219 -5.054688 1.757812 -5.273438 C 1.648438 -5.578125 1.433594 -5.933594 1.105469 -6.347656 Z "/>
</g>
<g id="glyph-0-2">
<path d="M 7.292969 -5.925781 L 7.519531 -5.664062 L 1.855469 -0.324219 L 7.03125 -0.324219 L 7.03125 0 L 1.042969 0 Z "/>
</g>
<g id="glyph-0-3">
<path d="M 1.464844 -4.914062 L 1.464844 -2.832031 L 3.15625 -2.832031 L 3.15625 -4.914062 L 1.464844 -4.914062 M 1.464844 -2.636719 L 1.464844 -0.359375 L 3.15625 -0.359375 L 3.15625 -2.636719 L 1.464844 -2.636719 M 3.582031 -4.71875 C 3.582031 -2.179688 3.589844 -0.519531 3.613281 0.261719 L 3.15625 0.519531 L 3.15625 -0.164062 L 1.464844 -0.164062 L 1.464844 0.390625 L 1.007812 0.652344 C 1.03125 -0.367188 1.042969 -1.382812 1.042969 -2.390625 C 1.042969 -3.402344 1.03125 -4.40625 1.007812 -5.402344 L 1.496094 -5.109375 L 1.824219 -5.109375 C 2.039062 -5.847656 2.160156 -6.414062 2.179688 -6.804688 L 2.898438 -6.414062 C 2.679688 -6.304688 2.386719 -5.871094 2.019531 -5.109375 L 3.09375 -5.109375 L 3.417969 -5.4375 L 3.90625 -4.949219 L 3.582031 -4.71875 M 5.175781 -6.769531 L 5.890625 -6.347656 C 5.71875 -6.238281 5.445312 -5.792969 5.078125 -5.011719 L 6.835938 -5.011719 L 7.195312 -5.371094 L 7.683594 -4.882812 L 7.390625 -4.65625 C 7.347656 -2.117188 7.285156 -0.679688 7.210938 -0.339844 C 7.132812 -0.00390625 7.027344 0.226562 6.882812 0.359375 C 6.742188 0.488281 6.519531 0.609375 6.21875 0.714844 C 6.109375 0.367188 5.75 0.109375 5.144531 -0.0664062 L 5.144531 -0.226562 C 5.6875 -0.121094 6.078125 -0.0664062 6.316406 -0.0664062 C 6.554688 -0.0664062 6.699219 -0.25 6.753906 -0.617188 C 6.808594 -0.988281 6.859375 -2.386719 6.902344 -4.816406 L 5.011719 -4.816406 C 4.621094 -4.1875 4.210938 -3.65625 3.777344 -3.222656 L 3.679688 -3.289062 C 4.132812 -3.980469 4.46875 -4.601562 4.6875 -5.144531 C 4.90625 -5.6875 5.066406 -6.226562 5.175781 -6.769531 M 4.589844 -3.582031 C 5.109375 -3.191406 5.414062 -2.902344 5.5 -2.71875 C 5.589844 -2.535156 5.632812 -2.398438 5.632812 -2.3125 C 5.632812 -2.160156 5.589844 -2.027344 5.5 -1.921875 C 5.414062 -1.8125 5.347656 -1.757812 5.304688 -1.757812 C 5.21875 -1.757812 5.152344 -1.910156 5.109375 -2.214844 C 5.023438 -2.648438 4.828125 -3.070312 4.523438 -3.484375 Z "/>
</g>
<g id="glyph-0-4">
<path d="M 2.472656 -4.460938 L 2.472656 -3.546875 L 5.859375 -3.546875 L 5.859375 -4.460938 L 2.472656 -4.460938 M 2.472656 -3.351562 L 2.472656 -2.375 L 5.859375 -2.375 L 5.859375 -3.351562 L 2.472656 -3.351562 M 2.472656 -2.179688 L 2.472656 -1.171875 L 5.859375 -1.171875 L 5.859375 -2.179688 L 2.472656 -2.179688 M 2.472656 -0.976562 L 2.472656 0.0664062 L 5.859375 0.0664062 L 5.859375 -0.976562 L 2.472656 -0.976562 M 0.8125 -5.695312 L 3.90625 -5.695312 C 3.949219 -6.128906 3.980469 -6.5 4.003906 -6.804688 L 4.753906 -6.414062 L 4.460938 -6.25 L 4.363281 -5.695312 L 6.476562 -5.695312 L 6.933594 -6.183594 L 7.519531 -5.5 L 4.328125 -5.5 L 4.167969 -4.65625 L 5.828125 -4.65625 L 6.054688 -5.011719 L 6.574219 -4.621094 L 6.316406 -4.394531 L 6.316406 0.0664062 L 6.804688 0.0664062 L 7.324219 -0.421875 L 7.941406 0.261719 L 1.433594 0.261719 C 1.148438 0.238281 0.890625 0.261719 0.652344 0.324219 L 0.390625 0.0664062 L 2.019531 0.0664062 C 2.019531 -2.710938 2.007812 -4.394531 1.984375 -4.980469 L 2.472656 -4.65625 L 3.742188 -4.65625 L 3.875 -5.5 L 1.886719 -5.5 C 1.605469 -5.5 1.34375 -5.46875 1.105469 -5.402344 Z "/>
</g>
<g id="glyph-0-5">
<path d="M 3.027344 -5.632812 C 2.808594 -5.328125 2.582031 -5.023438 2.34375 -4.71875 L 2.507812 -4.523438 L 4.492188 -4.523438 L 5.046875 -5.632812 L 3.027344 -5.632812 M 2.539062 -4.328125 L 2.539062 -3.222656 L 4.199219 -3.222656 L 4.199219 -4.328125 L 2.539062 -4.328125 M 4.65625 -4.328125 L 4.65625 -3.222656 L 6.542969 -3.222656 L 6.542969 -4.328125 L 4.65625 -4.328125 M 2.539062 -3.027344 C 2.539062 -2.613281 2.527344 -2.246094 2.507812 -1.921875 L 4.199219 -1.921875 L 4.199219 -3.027344 L 2.539062 -3.027344 M 4.65625 -3.027344 L 4.65625 -1.921875 L 6.542969 -1.921875 L 6.542969 -3.027344 L 4.65625 -3.027344 M 5.273438 0.03125 C 5.792969 0.0976562 6.136719 0.136719 6.296875 0.144531 C 6.460938 0.15625 6.542969 0.0742188 6.542969 -0.0976562 L 6.542969 -1.726562 L 4.65625 -1.726562 C 4.65625 -0.53125 4.664062 0.171875 4.6875 0.390625 L 4.132812 0.683594 C 4.175781 0.378906 4.199219 -0.421875 4.199219 -1.726562 L 2.472656 -1.726562 C 2.410156 -1.140625 2.214844 -0.632812 1.886719 -0.210938 C 1.5625 0.210938 1.105469 0.5625 0.519531 0.847656 L 0.457031 0.75 C 0.847656 0.464844 1.167969 0.164062 1.414062 -0.164062 C 1.664062 -0.488281 1.84375 -0.875 1.953125 -1.316406 C 2.0625 -1.761719 2.105469 -2.800781 2.082031 -4.425781 C 1.734375 -4.058594 1.28125 -3.722656 0.714844 -3.417969 L 0.617188 -3.515625 C 1.183594 -3.929688 1.691406 -4.46875 2.148438 -5.144531 C 2.605469 -5.816406 2.886719 -6.378906 2.996094 -6.835938 L 3.710938 -6.378906 L 3.417969 -6.28125 C 3.332031 -6.175781 3.234375 -6.023438 3.125 -5.828125 L 4.980469 -5.828125 L 5.339844 -6.183594 L 5.925781 -5.597656 C 5.75 -5.554688 5.59375 -5.484375 5.453125 -5.386719 C 5.3125 -5.289062 5.046875 -5.003906 4.65625 -4.523438 L 6.414062 -4.523438 L 6.769531 -4.882812 L 7.292969 -4.425781 L 7 -4.199219 L 7 -0.0664062 C 7.019531 0.238281 6.972656 0.449219 6.851562 0.570312 C 6.734375 0.6875 6.566406 0.792969 6.347656 0.878906 C 6.21875 0.554688 5.859375 0.324219 5.273438 0.195312 Z "/>
</g>
<g id="glyph-0-6">
<path d="M 2.050781 -6.769531 L 2.703125 -6.378906 L 2.441406 -6.21875 L 2.050781 -5.695312 L 3.644531 -5.695312 L 3.972656 -6.023438 L 4.492188 -5.5 L 2.800781 -5.5 C 3.148438 -5.304688 3.351562 -5.160156 3.417969 -5.0625 C 3.484375 -4.964844 3.515625 -4.894531 3.515625 -4.851562 C 3.515625 -4.761719 3.472656 -4.671875 3.386719 -4.574219 C 3.296875 -4.476562 3.246094 -4.425781 3.222656 -4.425781 C 3.179688 -4.425781 3.148438 -4.480469 3.125 -4.589844 C 3.058594 -4.761719 2.996094 -4.921875 2.929688 -5.0625 C 2.863281 -5.203125 2.765625 -5.347656 2.636719 -5.5 L 1.953125 -5.5 C 1.757812 -5.242188 1.578125 -5.027344 1.414062 -4.867188 C 1.253906 -4.703125 0.988281 -4.46875 0.617188 -4.167969 L 0.519531 -4.265625 C 0.953125 -4.71875 1.28125 -5.148438 1.496094 -5.550781 C 1.714844 -5.953125 1.898438 -6.359375 2.050781 -6.769531 M 5.207031 -5.5 C 5.011719 -5.21875 4.828125 -4.976562 4.65625 -4.769531 C 4.480469 -4.5625 4.273438 -4.351562 4.035156 -4.132812 L 3.90625 -4.230469 C 4.320312 -4.730469 4.617188 -5.164062 4.800781 -5.535156 C 4.984375 -5.902344 5.152344 -6.335938 5.304688 -6.835938 L 5.957031 -6.378906 L 5.664062 -6.25 L 5.304688 -5.695312 L 7 -5.695312 L 7.355469 -6.023438 L 7.84375 -5.5 L 6.183594 -5.5 C 6.46875 -5.304688 6.640625 -5.152344 6.707031 -5.046875 C 6.769531 -4.9375 6.804688 -4.859375 6.804688 -4.816406 C 6.804688 -4.753906 6.761719 -4.664062 6.671875 -4.558594 C 6.585938 -4.449219 6.519531 -4.394531 6.476562 -4.394531 C 6.457031 -4.394531 6.433594 -4.4375 6.414062 -4.523438 C 6.371094 -4.65625 6.316406 -4.808594 6.25 -4.980469 C 6.183594 -5.152344 6.085938 -5.328125 5.957031 -5.5 L 5.207031 -5.5 M 2.3125 -2.507812 L 2.3125 -0.0976562 C 2.3125 0.140625 2.320312 0.367188 2.34375 0.585938 L 1.855469 0.847656 C 1.878906 0.261719 1.886719 -0.195312 1.886719 -0.519531 L 1.886719 -2.636719 C 1.390625 -2.136719 0.910156 -1.757812 0.457031 -1.496094 L 0.390625 -1.59375 C 0.976562 -2.09375 1.441406 -2.585938 1.789062 -3.074219 C 2.136719 -3.5625 2.417969 -4.058594 2.636719 -4.558594 L 3.253906 -4.035156 L 2.929688 -3.9375 C 2.648438 -3.527344 2.410156 -3.199219 2.214844 -2.960938 L 2.539062 -2.667969 L 2.3125 -2.507812 M 5.925781 -3.289062 C 5.925781 -3.699219 5.914062 -4.058594 5.890625 -4.363281 L 6.574219 -4.003906 L 6.347656 -3.777344 L 6.347656 -3.289062 L 7.0625 -3.289062 L 7.453125 -3.679688 L 8.007812 -3.09375 L 6.347656 -3.09375 L 6.347656 -0.03125 C 6.347656 0.25 6.292969 0.4375 6.183594 0.535156 C 6.078125 0.632812 5.902344 0.738281 5.664062 0.847656 C 5.554688 0.542969 5.199219 0.316406 4.589844 0.164062 L 4.589844 0.03125 C 5.304688 0.121094 5.707031 0.152344 5.792969 0.128906 C 5.882812 0.109375 5.925781 0.03125 5.925781 -0.0976562 L 5.925781 -3.09375 L 4.003906 -3.09375 C 3.722656 -3.09375 3.460938 -3.058594 3.222656 -2.996094 L 2.929688 -3.289062 L 5.925781 -3.289062 M 3.644531 -2.667969 C 4.058594 -2.367188 4.34375 -2.121094 4.507812 -1.9375 C 4.671875 -1.753906 4.746094 -1.589844 4.734375 -1.449219 C 4.726562 -1.308594 4.6875 -1.199219 4.621094 -1.121094 C 4.558594 -1.046875 4.488281 -1.007812 4.410156 -1.007812 C 4.335938 -1.007812 4.273438 -1.117188 4.230469 -1.335938 C 4.167969 -1.550781 4.078125 -1.761719 3.972656 -1.96875 C 3.863281 -2.175781 3.734375 -2.375 3.582031 -2.570312 Z "/>
</g>
<g id="glyph-0-7">
<path d="M 6.25 -6.085938 C 6.25 -5.109375 6.261719 -4.480469 6.28125 -4.199219 L 5.792969 -4.003906 L 5.792969 -4.328125 L 2.539062 -4.328125 L 2.539062 -4.035156 L 2.050781 -3.875 C 2.074219 -4.308594 2.082031 -4.769531 2.082031 -5.257812 C 2.082031 -5.746094 2.074219 -6.207031 2.050781 -6.640625 L 2.539062 -6.378906 L 5.761719 -6.378906 L 6.054688 -6.707031 L 6.511719 -6.316406 L 6.25 -6.085938 M 2.539062 -6.183594 L 2.539062 -4.523438 L 5.792969 -4.523438 L 5.792969 -6.183594 L 2.539062 -6.183594 M 6.445312 -1.789062 C 6.25 -0.660156 6.078125 -0.0117188 5.925781 0.164062 C 5.773438 0.335938 5.621094 0.460938 5.46875 0.535156 C 5.316406 0.613281 5.066406 0.695312 4.71875 0.78125 C 4.675781 0.457031 4.339844 0.164062 3.710938 -0.0976562 L 3.742188 -0.226562 C 4.328125 -0.0546875 4.761719 0.03125 5.046875 0.03125 C 5.152344 0.03125 5.289062 0 5.453125 -0.0664062 C 5.613281 -0.128906 5.785156 -0.757812 5.957031 -1.953125 L 2.960938 -1.953125 L 2.667969 -1.691406 L 2.277344 -2.148438 C 2.429688 -2.234375 2.554688 -2.375 2.652344 -2.570312 C 2.75 -2.765625 2.84375 -3.015625 2.929688 -3.320312 L 1.074219 -3.320312 L 0.78125 -3.253906 L 0.519531 -3.515625 L 6.804688 -3.515625 L 7.226562 -3.9375 L 7.8125 -3.320312 L 3.484375 -3.320312 L 3.027344 -2.148438 L 5.925781 -2.148438 L 6.28125 -2.507812 L 6.769531 -2.019531 Z "/>
</g>
<g id="glyph-1-0">
<path d="M 5.78125 0 L 3.382812 0 L 3.382812 -0.289062 C 3.59375 -0.300781 3.769531 -0.328125 3.910156 -0.371094 C 4.046875 -0.410156 4.117188 -0.460938 4.117188 -0.519531 C 4.117188 -0.546875 4.117188 -0.574219 4.109375 -0.609375 C 4.105469 -0.644531 4.097656 -0.675781 4.085938 -0.703125 L 3.609375 -1.996094 L 1.582031 -1.996094 C 1.503906 -1.808594 1.441406 -1.640625 1.394531 -1.5 C 1.347656 -1.359375 1.304688 -1.230469 1.265625 -1.109375 C 1.230469 -0.996094 1.207031 -0.898438 1.195312 -0.824219 C 1.179688 -0.753906 1.171875 -0.691406 1.171875 -0.648438 C 1.171875 -0.539062 1.257812 -0.453125 1.429688 -0.394531 C 1.601562 -0.335938 1.792969 -0.300781 2.007812 -0.289062 L 2.007812 0 L -0.167969 0 L -0.167969 -0.289062 C -0.0976562 -0.292969 -0.0078125 -0.308594 0.0976562 -0.335938 C 0.203125 -0.363281 0.289062 -0.394531 0.359375 -0.4375 C 0.464844 -0.511719 0.550781 -0.589844 0.609375 -0.667969 C 0.671875 -0.75 0.726562 -0.859375 0.785156 -1 C 1.074219 -1.726562 1.394531 -2.539062 1.746094 -3.441406 C 2.09375 -4.34375 2.40625 -5.148438 2.679688 -5.855469 L 3.007812 -5.855469 L 4.929688 -0.875 C 4.972656 -0.769531 5.019531 -0.683594 5.070312 -0.617188 C 5.121094 -0.554688 5.195312 -0.488281 5.285156 -0.425781 C 5.347656 -0.390625 5.429688 -0.355469 5.53125 -0.332031 C 5.628906 -0.304688 5.714844 -0.292969 5.78125 -0.289062 L 5.78125 0 M 3.460938 -2.359375 L 2.585938 -4.601562 L 1.722656 -2.359375 Z "/>
</g>
<g id="glyph-1-1">
<path d="M 2.941406 0.136719 C 2.59375 0.136719 2.265625 0.0703125 1.949219 -0.0664062 C 1.632812 -0.199219 1.355469 -0.394531 1.109375 -0.652344 C 0.867188 -0.90625 0.675781 -1.21875 0.53125 -1.585938 C 0.390625 -1.953125 0.316406 -2.367188 0.316406 -2.828125 C 0.316406 -3.292969 0.386719 -3.710938 0.527344 -4.085938 C 0.667969 -4.460938 0.863281 -4.785156 1.113281 -5.058594 C 1.359375 -5.324219 1.652344 -5.535156 1.988281 -5.679688 C 2.324219 -5.828125 2.683594 -5.898438 3.066406 -5.898438 C 3.351562 -5.898438 3.609375 -5.863281 3.835938 -5.792969 C 4.066406 -5.722656 4.289062 -5.625 4.496094 -5.496094 L 4.664062 -5.773438 L 4.988281 -5.773438 L 5.023438 -3.714844 L 4.691406 -3.714844 C 4.648438 -3.914062 4.582031 -4.132812 4.496094 -4.367188 C 4.410156 -4.601562 4.308594 -4.800781 4.191406 -4.964844 C 4.0625 -5.148438 3.90625 -5.292969 3.726562 -5.398438 C 3.550781 -5.503906 3.34375 -5.554688 3.113281 -5.554688 C 2.851562 -5.554688 2.605469 -5.496094 2.382812 -5.378906 C 2.15625 -5.261719 1.960938 -5.089844 1.792969 -4.863281 C 1.636719 -4.640625 1.511719 -4.363281 1.425781 -4.023438 C 1.335938 -3.683594 1.289062 -3.304688 1.289062 -2.886719 C 1.289062 -2.519531 1.335938 -2.179688 1.429688 -1.871094 C 1.523438 -1.5625 1.65625 -1.292969 1.832031 -1.058594 C 2.003906 -0.828125 2.210938 -0.648438 2.445312 -0.515625 C 2.683594 -0.386719 2.949219 -0.320312 3.242188 -0.320312 C 3.460938 -0.320312 3.664062 -0.355469 3.847656 -0.425781 C 4.03125 -0.496094 4.191406 -0.585938 4.324219 -0.699219 C 4.460938 -0.820312 4.582031 -0.953125 4.683594 -1.105469 C 4.785156 -1.257812 4.871094 -1.425781 4.9375 -1.601562 L 5.242188 -1.457031 C 5.007812 -0.882812 4.699219 -0.476562 4.3125 -0.230469 C 3.929688 0.015625 3.472656 0.136719 2.941406 0.136719 Z "/>
</g>
<g id="glyph-1-2">
<path d="M 1.355469 -5.769531 C 1.355469 -5.660156 1.320312 -5.453125 1.25 -5.144531 C 1.179688 -4.832031 1.101562 -4.433594 1.011719 -3.9375 L 0.765625 -3.9375 C 0.691406 -4.398438 0.621094 -4.792969 0.546875 -5.121094 C 0.476562 -5.449219 0.4375 -5.664062 0.4375 -5.769531 C 0.4375 -5.894531 0.476562 -6 0.554688 -6.089844 C 0.628906 -6.179688 0.746094 -6.226562 0.898438 -6.226562 C 1.046875 -6.226562 1.160156 -6.179688 1.238281 -6.089844 C 1.316406 -6 1.355469 -5.894531 1.355469 -5.769531 Z "/>
</g>
<g id="glyph-1-3">
<path d="M 5.929688 -2.851562 C 5.929688 -2.363281 5.835938 -1.933594 5.652344 -1.574219 C 5.46875 -1.214844 5.226562 -0.917969 4.929688 -0.6875 C 4.632812 -0.457031 4.296875 -0.285156 3.925781 -0.171875 C 3.554688 -0.0585938 3.171875 0 2.773438 0 L 0.382812 0 L 0.382812 -0.289062 C 0.460938 -0.289062 0.5625 -0.296875 0.691406 -0.3125 C 0.816406 -0.328125 0.898438 -0.34375 0.941406 -0.363281 C 1.019531 -0.398438 1.082031 -0.449219 1.117188 -0.519531 C 1.152344 -0.589844 1.171875 -0.671875 1.171875 -0.769531 L 1.171875 -4.9375 C 1.171875 -5.027344 1.15625 -5.109375 1.125 -5.183594 C 1.09375 -5.257812 1.03125 -5.316406 0.941406 -5.359375 C 0.855469 -5.398438 0.765625 -5.429688 0.667969 -5.449219 C 0.570312 -5.46875 0.484375 -5.480469 0.414062 -5.484375 L 0.414062 -5.773438 L 2.9375 -5.773438 C 3.285156 -5.773438 3.625 -5.71875 3.964844 -5.613281 C 4.300781 -5.507812 4.59375 -5.363281 4.84375 -5.179688 C 5.179688 -4.9375 5.445312 -4.621094 5.640625 -4.230469 C 5.832031 -3.839844 5.929688 -3.382812 5.929688 -2.851562 M 4.929688 -2.855469 C 4.929688 -3.242188 4.878906 -3.59375 4.777344 -3.90625 C 4.675781 -4.21875 4.523438 -4.492188 4.324219 -4.726562 C 4.136719 -4.945312 3.910156 -5.121094 3.636719 -5.25 C 3.363281 -5.375 3.058594 -5.441406 2.726562 -5.441406 C 2.613281 -5.441406 2.488281 -5.4375 2.351562 -5.433594 C 2.210938 -5.429688 2.105469 -5.425781 2.039062 -5.425781 L 2.039062 -0.988281 C 2.039062 -0.742188 2.109375 -0.570312 2.253906 -0.476562 C 2.398438 -0.382812 2.617188 -0.332031 2.917969 -0.332031 C 3.261719 -0.332031 3.5625 -0.394531 3.820312 -0.515625 C 4.078125 -0.636719 4.289062 -0.808594 4.449219 -1.023438 C 4.617188 -1.253906 4.738281 -1.515625 4.816406 -1.816406 C 4.894531 -2.113281 4.929688 -2.460938 4.929688 -2.855469 Z "/>
</g>
</g>
</defs>
<g fill="rgb(100%, 100%, 0%)" fill-opacity="1">
<use xlink:href="#glyph-0-0" x="30" y="28.183594"/>
<use xlink:href="#glyph-0-1" x="38" y="28.183594"/>
<use xlink:href="#glyph-0-2" x="46" y="28.183594"/>
</g>
<g fill="rgb(100%, 100%, 0%)" fill-opacity="1">
<use xlink:href="#glyph-1-0" x="54" y="27.641602"/>
<use xlink:href="#glyph-1-1" x="60" y="27.641602"/>
<use xlink:href="#glyph-1-2" x="65" y="27.641602"/>
<use xlink:href="#glyph-1-3" x="67" y="27.641602"/>
</g>
<g fill="rgb(100%, 100%, 0%)" fill-opacity="1">
<use xlink:href="#glyph-0-3" x="73" y="28.183594"/>
<use xlink:href="#glyph-0-4" x="81" y="28.183594"/>
<use xlink:href="#glyph-0-5" x="89" y="28.183594"/>
<use xlink:href="#glyph-0-6" x="97" y="28.183594"/>
<use xlink:href="#glyph-0-7" x="105" y="28.183594"/>
</g>
</svg>
