<?xml version="1.0" encoding="UTF-8"?>
<svg xmlns="http://www.w3.org/2000/svg" xmlns:xlink="http://www.w3.org/1999/xlink" width="1920" height="1080" viewBox="0 0 1920 1080">
<defs>
<g>
<g id="glyph-0-0">
<path d="M 3.351562 -1.855469 C 3.375 -2.441406 3.386719 -3.03125 3.386719 -3.628906 C 3.386719 -4.226562 3.375 -4.816406 3.351562 -5.402344 L 3.839844 -5.144531 L 5.46875 -5.144531 C 5.859375 -5.925781 6.078125 -6.476562 6.121094 -6.804688 L 6.769531 -6.347656 C 6.617188 -6.261719 6.460938 -6.136719 6.296875 -5.972656 C 6.136719 -5.808594 5.914062 -5.535156 5.632812 -5.144531 L 6.640625 -5.144531 L 6.902344 -5.46875 L 7.390625 -5.046875 L 7.128906 -4.851562 C 7.128906 -3.417969 7.140625 -2.527344 7.160156 -2.179688 L 6.707031 -1.953125 L 6.707031 -2.441406 L 5.4375 -2.441406 L 5.4375 -1.335938 L 6.964844 -1.335938 L 7.390625 -1.757812 L 7.976562 -1.140625 L 5.4375 -1.140625 C 5.4375 -0.378906 5.445312 0.21875 5.46875 0.652344 L 4.980469 0.878906 C 5.003906 0.226562 5.011719 -0.445312 5.011719 -1.140625 L 3.222656 -1.140625 L 2.929688 -1.074219 L 2.667969 -1.335938 L 5.011719 -1.335938 L 5.011719 -2.441406 L 3.808594 -2.441406 L 3.808594 -2.082031 L 3.351562 -1.855469 M 3.9375 -6.707031 C 4.394531 -6.402344 4.671875 -6.191406 4.769531 -6.070312 C 4.867188 -5.953125 4.914062 -5.847656 4.914062 -5.761719 C 4.914062 -5.675781 4.878906 -5.578125 4.800781 -5.46875 C 4.726562 -5.359375 4.664062 -5.304688 4.621094 -5.304688 C 4.535156 -5.304688 4.46875 -5.394531 4.425781 -5.566406 C 4.339844 -5.847656 4.144531 -6.207031 3.839844 -6.640625 L 3.9375 -6.707031 M 3.808594 -4.949219 L 3.808594 -3.90625 L 5.011719 -3.90625 L 5.011719 -4.949219 L 3.808594 -4.949219 M 5.4375 -4.949219 L 5.4375 -3.90625 L 6.707031 -3.90625 L 6.707031 -4.949219 L 5.4375 -4.949219 M 3.808594 -3.710938 L 3.808594 -2.636719 L 5.011719 -2.636719 L 5.011719 -3.710938 L 3.808594 -3.710938 M 5.4375 -3.710938 L 5.4375 -2.636719 L 6.707031 -2.636719 L 6.707031 -3.710938 L 5.4375 -3.710938 M 1.367188 -4.003906 L 1.140625 -2.734375 L 2.179688 -2.734375 L 2.472656 -3.027344 L 2.898438 -2.605469 L 2.667969 -2.410156 C 2.625 -1.867188 2.570312 -1.371094 2.507812 -0.925781 C 2.441406 -0.484375 2.347656 -0.144531 2.230469 0.0820312 C 2.109375 0.308594 1.84375 0.511719 1.433594 0.683594 C 1.34375 0.335938 1.042969 0.0742188 0.519531 -0.0976562 L 0.554688 -0.226562 C 1.140625 -0.0976562 1.492188 -0.0390625 1.609375 -0.046875 C 1.730469 -0.0585938 1.824219 -0.136719 1.886719 -0.277344 C 1.953125 -0.417969 2.011719 -0.640625 2.066406 -0.945312 C 2.121094 -1.246094 2.171875 -1.78125 2.214844 -2.539062 L 1.140625 -2.539062 L 0.910156 -2.214844 L 0.457031 -2.636719 C 0.609375 -2.722656 0.710938 -2.898438 0.765625 -3.15625 C 0.820312 -3.417969 0.878906 -3.863281 0.945312 -4.492188 L 1.398438 -4.199219 L 2.3125 -4.199219 L 2.3125 -5.730469 L 1.238281 -5.730469 L 0.878906 -5.664062 L 0.617188 -5.925781 L 2.246094 -5.925781 L 2.539062 -6.21875 L 2.960938 -5.792969 L 2.734375 -5.597656 C 2.734375 -4.796875 2.746094 -4.210938 2.765625 -3.839844 L 2.3125 -3.644531 L 2.3125 -4.003906 Z "/>
</g>
<g id="glyph-0-1">
<path d="M 6.738281 -5.175781 L 6.738281 -3.90625 C 6.738281 -3.6875 6.761719 -3.386719 6.804688 -2.996094 L 6.28125 -2.800781 L 6.28125 -3.191406 L 4.363281 -3.191406 L 4.363281 -0.03125 L 6.609375 -0.03125 L 6.609375 -1.464844 C 6.609375 -1.769531 6.597656 -2.105469 6.574219 -2.472656 L 7.324219 -2.050781 L 7.0625 -1.855469 L 7.0625 -0.652344 C 7.0625 -0.261719 7.074219 0.128906 7.097656 0.519531 L 6.609375 0.683594 L 6.609375 0.164062 L 1.726562 0.164062 L 1.496094 0.390625 L 1.042969 0.03125 L 1.269531 -0.195312 L 1.269531 -1.464844 C 1.269531 -1.789062 1.257812 -2.148438 1.238281 -2.539062 L 1.984375 -2.148438 L 1.726562 -1.921875 L 1.726562 -0.03125 L 3.90625 -0.03125 L 3.90625 -3.191406 L 2.019531 -3.191406 L 1.757812 -2.960938 L 1.300781 -3.320312 L 1.53125 -3.515625 L 1.53125 -4.851562 C 1.53125 -5.109375 1.519531 -5.394531 1.496094 -5.695312 L 2.277344 -5.304688 L 1.984375 -5.109375 L 1.984375 -3.386719 L 3.90625 -3.386719 L 3.90625 -5.535156 C 3.90625 -5.925781 3.894531 -6.304688 3.875 -6.671875 L 4.621094 -6.316406 L 4.363281 -6.023438 L 4.363281 -3.386719 L 6.28125 -3.386719 L 6.28125 -4.851562 C 6.28125 -5.109375 6.273438 -5.414062 6.25 -5.761719 L 7 -5.402344 Z "/>
</g>
<g id="glyph-0-2">
<path d="M 1.269531 -6.476562 L 1.300781 -6.574219 C 1.78125 -6.359375 2.109375 -6.175781 2.292969 -6.023438 C 2.480469 -5.871094 2.570312 -5.71875 2.570312 -5.566406 C 2.570312 -5.414062 2.535156 -5.304688 2.457031 -5.242188 C 2.382812 -5.175781 2.332031 -5.144531 2.3125 -5.144531 C 2.203125 -5.144531 2.105469 -5.273438 2.019531 -5.535156 C 1.867188 -5.859375 1.617188 -6.175781 1.269531 -6.476562 M 2.148438 -0.488281 L 3.417969 -1.59375 L 3.484375 -1.496094 C 2.722656 -0.519531 2.257812 0.128906 2.082031 0.457031 L 1.59375 -0.0976562 C 1.683594 -0.226562 1.726562 -0.433594 1.726562 -0.714844 L 1.726562 -3.644531 L 0.878906 -3.644531 L 1.171875 -3.644531 C 1.042969 -3.644531 0.855469 -3.613281 0.617188 -3.546875 L 0.324219 -3.839844 L 1.660156 -3.839844 L 2.019531 -4.199219 L 2.472656 -3.742188 L 2.148438 -3.515625 L 2.148438 -0.488281 M 5.011719 -3.808594 C 5.011719 -5.261719 5.003906 -6.207031 4.980469 -6.640625 L 5.761719 -6.28125 L 5.5 -6.023438 L 5.5 -3.808594 L 6.964844 -3.808594 L 7.390625 -4.230469 L 7.976562 -3.613281 L 5.5 -3.613281 L 5.5 -0.652344 C 5.5 -0.21875 5.511719 0.183594 5.535156 0.554688 L 4.980469 0.78125 C 5.003906 0.109375 5.011719 -0.402344 5.011719 -0.75 L 5.011719 -3.613281 L 3.351562 -3.613281 L 3.839844 -3.613281 C 3.582031 -3.613281 3.332031 -3.582031 3.09375 -3.515625 L 2.800781 -3.808594 Z "/>
</g>
<g id="glyph-0-3">
<path d="M 3.484375 -1.984375 C 3.460938 -1.636719 3.429688 -1.300781 3.386719 -0.976562 L 4.980469 -0.976562 L 4.980469 -1.984375 L 3.484375 -1.984375 M 6.378906 -2.703125 C 6.378906 -2.527344 6.390625 -2.246094 6.414062 -1.855469 L 5.925781 -1.660156 L 5.925781 -1.984375 L 5.4375 -1.984375 L 5.4375 -1.007812 L 6.902344 -1.007812 L 7.355469 -1.433594 L 7.941406 -0.8125 L 5.4375 -0.8125 C 5.4375 -0.0742188 5.445312 0.402344 5.46875 0.617188 L 4.949219 0.847656 C 4.96875 0.195312 4.980469 -0.347656 4.980469 -0.78125 L 3.351562 -0.78125 C 3.199219 -0.304688 2.878906 0.0664062 2.390625 0.324219 C 1.902344 0.585938 1.378906 0.757812 0.8125 0.847656 L 0.78125 0.75 C 1.410156 0.53125 1.882812 0.308594 2.195312 0.0820312 C 2.511719 -0.144531 2.734375 -0.433594 2.863281 -0.78125 L 1.464844 -0.78125 C 1.183594 -0.78125 0.921875 -0.75 0.683594 -0.683594 L 0.390625 -0.976562 L 2.898438 -0.976562 C 2.941406 -1.28125 2.972656 -1.617188 2.996094 -1.984375 L 2.410156 -1.984375 L 2.410156 -1.726562 L 1.953125 -1.5625 C 1.976562 -2.234375 1.980469 -2.925781 1.96875 -3.628906 C 1.957031 -4.335938 1.941406 -4.761719 1.921875 -4.914062 L 2.410156 -4.65625 L 5.890625 -4.65625 L 6.085938 -4.949219 L 6.609375 -4.589844 L 6.378906 -4.394531 L 6.378906 -2.703125 M 2.410156 -4.460938 L 2.410156 -3.875 L 5.925781 -3.875 L 5.925781 -4.460938 L 2.410156 -4.460938 M 2.410156 -3.679688 L 2.410156 -3.058594 L 5.925781 -3.058594 L 5.925781 -3.679688 L 2.410156 -3.679688 M 2.410156 -2.863281 L 2.410156 -2.179688 L 5.925781 -2.179688 L 5.925781 -2.863281 L 2.410156 -2.863281 M 2.050781 -6.867188 L 2.703125 -6.511719 C 2.570312 -6.445312 2.46875 -6.371094 2.390625 -6.28125 C 2.316406 -6.195312 2.214844 -6.054688 2.082031 -5.859375 L 3.515625 -5.859375 L 3.90625 -6.25 L 4.425781 -5.664062 L 2.765625 -5.664062 C 3.222656 -5.425781 3.421875 -5.222656 3.367188 -5.0625 C 3.316406 -4.898438 3.261719 -4.800781 3.207031 -4.769531 C 3.152344 -4.734375 3.101562 -4.71875 3.058594 -4.71875 C 2.996094 -4.71875 2.953125 -4.757812 2.929688 -4.832031 C 2.90625 -4.910156 2.886719 -5.023438 2.863281 -5.175781 C 2.820312 -5.304688 2.710938 -5.46875 2.539062 -5.664062 L 1.984375 -5.664062 C 1.769531 -5.339844 1.5625 -5.066406 1.367188 -4.851562 C 1.171875 -4.632812 0.921875 -4.417969 0.617188 -4.199219 L 0.554688 -4.296875 C 0.75 -4.492188 0.976562 -4.773438 1.238281 -5.144531 C 1.496094 -5.511719 1.769531 -6.085938 2.050781 -6.867188 M 5.207031 -6.835938 L 5.792969 -6.445312 C 5.6875 -6.421875 5.578125 -6.347656 5.46875 -6.21875 C 5.359375 -6.085938 5.261719 -5.957031 5.175781 -5.828125 L 6.933594 -5.828125 L 7.324219 -6.183594 L 7.8125 -5.632812 L 6.085938 -5.632812 C 6.628906 -5.457031 6.902344 -5.289062 6.902344 -5.125 C 6.902344 -4.964844 6.863281 -4.851562 6.785156 -4.785156 C 6.710938 -4.71875 6.664062 -4.6875 6.640625 -4.6875 C 6.597656 -4.6875 6.546875 -4.734375 6.492188 -4.832031 C 6.441406 -4.929688 6.378906 -5.039062 6.316406 -5.160156 C 6.25 -5.277344 6.097656 -5.4375 5.859375 -5.632812 L 5.078125 -5.632812 C 4.925781 -5.480469 4.785156 -5.328125 4.65625 -5.175781 C 4.503906 -5.003906 4.351562 -4.851562 4.199219 -4.71875 L 4.101562 -4.785156 C 4.363281 -5.109375 4.605469 -5.496094 4.832031 -5.941406 C 5.0625 -6.386719 5.1875 -6.683594 5.207031 -6.835938 Z "/>
</g>
<g id="glyph-0-4">
<path d="M 2.863281 -0.75 L 4.753906 -1.171875 L 4.785156 -1.042969 C 3.460938 -0.628906 2.511719 -0.320312 1.9375 -0.113281 C 1.363281 0.09375 1.03125 0.261719 0.945312 0.390625 L 0.488281 -0.226562 C 1.183594 -0.359375 1.824219 -0.488281 2.410156 -0.617188 L 2.410156 -3.125 L 1.855469 -3.125 C 1.574219 -3.125 1.3125 -3.09375 1.074219 -3.027344 L 0.78125 -3.320312 L 3.417969 -3.320312 L 3.839844 -3.742188 L 4.460938 -3.125 L 2.863281 -3.125 L 2.863281 -0.75 M 5.761719 -6.476562 C 6.175781 -6.324219 6.472656 -6.191406 6.65625 -6.070312 C 6.839844 -5.953125 6.929688 -5.816406 6.917969 -5.664062 C 6.90625 -5.511719 6.867188 -5.402344 6.804688 -5.339844 C 6.738281 -5.273438 6.683594 -5.242188 6.640625 -5.242188 C 6.554688 -5.242188 6.476562 -5.328125 6.414062 -5.5 C 6.28125 -5.761719 6.042969 -6.054688 5.695312 -6.378906 L 5.761719 -6.476562 M 5.046875 -6.21875 C 5.046875 -5.71875 5.054688 -5.285156 5.078125 -4.914062 L 6.574219 -4.914062 L 7.097656 -5.4375 L 7.8125 -4.71875 L 5.078125 -4.71875 C 5.164062 -3.613281 5.3125 -2.761719 5.515625 -2.164062 C 5.722656 -1.566406 5.960938 -1.105469 6.234375 -0.78125 C 6.503906 -0.457031 6.859375 -0.207031 7.292969 -0.03125 C 7.355469 -0.464844 7.433594 -0.988281 7.519531 -1.59375 L 7.683594 -1.59375 C 7.660156 -0.75 7.675781 -0.191406 7.730469 0.0820312 C 7.785156 0.351562 7.855469 0.554688 7.941406 0.683594 C 7.984375 0.75 7.964844 0.78125 7.878906 0.78125 C 7.789062 0.78125 7.546875 0.710938 7.144531 0.570312 C 6.742188 0.429688 6.359375 0.15625 5.988281 -0.242188 C 5.621094 -0.644531 5.316406 -1.203125 5.078125 -1.921875 C 4.839844 -2.636719 4.6875 -3.570312 4.621094 -4.71875 L 1.757812 -4.71875 C 1.476562 -4.71875 1.214844 -4.6875 0.976562 -4.621094 L 0.683594 -4.914062 L 4.589844 -4.914062 C 4.566406 -5.542969 4.546875 -6.175781 4.523438 -6.804688 L 5.339844 -6.445312 Z "/>
</g>
<g id="glyph-0-5">
<path d="M 2.019531 -0.878906 C 2.148438 -0.792969 2.207031 -0.644531 2.195312 -0.4375 C 2.1875 -0.234375 2.105469 -0.0859375 1.953125 0 C 1.800781 0.0859375 1.691406 0.128906 1.628906 0.128906 C 1.5625 0.128906 1.453125 0.0859375 1.300781 0 C 1.148438 -0.0859375 1.070312 -0.238281 1.058594 -0.457031 C 1.046875 -0.671875 1.113281 -0.820312 1.253906 -0.894531 C 1.394531 -0.972656 1.519531 -1.007812 1.628906 -1.007812 C 1.757812 -1.007812 1.886719 -0.964844 2.019531 -0.878906 M 2.019531 -2.847656 C 2.171875 -2.773438 2.246094 -2.621094 2.246094 -2.390625 C 2.246094 -2.164062 2.160156 -2.011719 1.984375 -1.9375 C 1.8125 -1.859375 1.691406 -1.824219 1.628906 -1.824219 C 1.519531 -1.824219 1.394531 -1.871094 1.253906 -1.96875 C 1.113281 -2.066406 1.046875 -2.21875 1.058594 -2.425781 C 1.070312 -2.632812 1.148438 -2.773438 1.300781 -2.847656 C 1.453125 -2.925781 1.574219 -2.960938 1.660156 -2.960938 C 1.746094 -2.960938 1.867188 -2.925781 2.019531 -2.847656 Z "/>
</g>
<g id="glyph-1-0">
<path d="M 5.78125 0 L 3.382812 0 L 3.382812 -0.289062 C 3.59375 -0.300781 3.769531 -0.328125 3.910156 -0.371094 C 4.046875 -0.410156 4.117188 -0.460938 4.117188 -0.519531 C 4.117188 -0.546875 4.117188 -0.574219 4.109375 -0.609375 C 4.105469 -0.644531 4.097656 -0.675781 4.085938 -0.703125 L 3.609375 -1.996094 L 1.582031 -1.996094 C 1.503906 -1.808594 1.441406 -1.640625 1.394531 -1.5 C 1.347656 -1.359375 1.304688 -1.230469 1.265625 -1.109375 C 1.230469 -0.996094 1.207031 -0.898438 1.195312 -0.824219 C 1.179688 -0.753906 1.171875 -0.691406 1.171875 -0.648438 C 1.171875 -0.539062 1.257812 -0.453125 1.429688 -0.394531 C 1.601562 -0.335938 1.792969 -0.300781 2.007812 -0.289062 L 2.007812 0 L -0.167969 0 L -0.167969 -0.289062 C -0.0976562 -0.292969 -0.0078125 -0.308594 0.0976562 -0.335938 C 0.203125 -0.363281 0.289062 -0.394531 0.359375 -0.4375 C 0.464844 -0.511719 0.550781 -0.589844 0.609375 -0.667969 C 0.671875 -0.75 0.726562 -0.859375 0.785156 -1 C 1.074219 -1.726562 1.394531 -2.539062 1.746094 -3.441406 C 2.09375 -4.34375 2.40625 -5.148438 2.679688 -5.855469 L 3.007812 -5.855469 L 4.929688 -0.875 C 4.972656 -0.769531 5.019531 -0.683594 5.070312 -0.617188 C 5.121094 -0.554688 5.195312 -0.488281 5.285156 -0.425781 C 5.347656 -0.390625 5.429688 -0.355469 5.53125 -0.332031 C 5.628906 -0.304688 5.714844 -0.292969 5.78125 -0.289062 L 5.78125 0 M 3.460938 -2.359375 L 2.585938 -4.601562 L 1.722656 -2.359375 Z "/>
</g>
<g id="glyph-1-1">
<path d="M 2.941406 0.136719 C 2.59375 0.136719 2.265625 0.0703125 1.949219 -0.0664062 C 1.632812 -0.199219 1.355469 -0.394531 1.109375 -0.652344 C 0.867188 -0.90625 0.675781 -1.21875 0.53125 -1.585938 C 0.390625 -1.953125 0.316406 -2.367188 0.316406 -2.828125 C 0.316406 -3.292969 0.386719 -3.710938 0.527344 -4.085938 C 0.667969 -4.460938 0.863281 -4.785156 1.113281 -5.058594 C 1.359375 -5.324219 1.652344 -5.535156 1.988281 -5.679688 C 2.324219 -5.828125 2.683594 -5.898438 3.066406 -5.898438 C 3.351562 -5.898438 3.609375 -5.863281 3.835938 -5.792969 C 4.066406 -5.722656 4.289062 -5.625 4.496094 -5.496094 L 4.664062 -5.773438 L 4.988281 -5.773438 L 5.023438 -3.714844 L 4.691406 -3.714844 C 4.648438 -3.914062 4.582031 -4.132812 4.496094 -4.367188 C 4.410156 -4.601562 4.308594 -4.800781 4.191406 -4.964844 C 4.0625 -5.148438 3.90625 -5.292969 3.726562 -5.398438 C 3.550781 -5.503906 3.34375 -5.554688 3.113281 -5.554688 C 2.851562 -5.554688 2.605469 -5.496094 2.382812 -5.378906 C 2.15625 -5.261719 1.960938 -5.089844 1.792969 -4.863281 C 1.636719 -4.640625 1.511719 -4.363281 1.425781 -4.023438 C 1.335938 -3.683594 1.289062 -3.304688 1.289062 -2.886719 C 1.289062 -2.519531 1.335938 -2.179688 1.429688 -1.871094 C 1.523438 -1.5625 1.65625 -1.292969 1.832031 -1.058594 C 2.003906 -0.828125 2.210938 -0.648438 2.445312 -0.515625 C 2.683594 -0.386719 2.949219 -0.320312 3.242188 -0.320312 C 3.460938 -0.320312 3.664062 -0.355469 3.847656 -0.425781 C 4.03125 -0.496094 4.191406 -0.585938 4.324219 -0.699219 C 4.460938 -0.820312 4.582031 -0.953125 4.683594 -1.105469 C 4.785156 -1.257812 4.871094 -1.425781 4.9375 -1.601562 L 5.242188 -1.457031 C 5.007812 -0.882812 4.699219 -0.476562 4.3125 -0.230469 C 3.929688 0.015625 3.472656 0.136719 2.941406 0.136719 Z "/>
</g>
<g id="glyph-1-2">
<path d="M 1.355469 -5.769531 C 1.355469 -5.660156 1.320312 -5.453125 1.25 -5.144531 C 1.179688 -4.832031 1.101562 -4.433594 1.011719 -3.9375 L 0.765625 -3.9375 C 0.691406 -4.398438 0.621094 -4.792969 0.546875 -5.121094 C 0.476562 -5.449219 0.4375 -5.664062 0.4375 -5.769531 C 0.4375 -5.894531 0.476562 -6 0.554688 -6.089844 C 0.628906 -6.179688 0.746094 -6.226562 0.898438 -6.226562 C 1.046875 -6.226562 1.160156 -6.179688 1.238281 -6.089844 C 1.316406 -6 1.355469 -5.894531 1.355469 -5.769531 Z "/>
</g>
<g id="glyph-1-3">
<path d="M 4.730469 -2.777344 L 0.625 -2.777344 L 0.625 -3.289062 L 4.730469 -3.289062 L 4.730469 -2.777344 M 4.730469 -1.265625 L 0.625 -1.265625 L 0.625 -1.773438 L 4.730469 -1.773438 Z "/>
</g>
<g id="glyph-1-4">
<path d="M 4.492188 -2.691406 C 4.660156 -2.574219 4.800781 -2.425781 4.910156 -2.242188 C 5.023438 -2.058594 5.078125 -1.832031 5.078125 -1.570312 C 5.078125 -1.300781 5.019531 -1.070312 4.902344 -0.871094 C 4.785156 -0.671875 4.632812 -0.511719 4.449219 -0.382812 C 4.265625 -0.257812 4.058594 -0.164062 3.832031 -0.0976562 C 3.601562 -0.03125 3.363281 0 3.121094 0 L 0.386719 0 L 0.386719 -0.289062 C 0.453125 -0.292969 0.546875 -0.304688 0.671875 -0.324219 C 0.796875 -0.339844 0.886719 -0.363281 0.941406 -0.386719 C 1.023438 -0.425781 1.082031 -0.476562 1.117188 -0.539062 C 1.152344 -0.601562 1.171875 -0.683594 1.171875 -0.785156 L 1.171875 -4.9375 C 1.171875 -5.027344 1.15625 -5.109375 1.125 -5.179688 C 1.09375 -5.25 1.03125 -5.308594 0.941406 -5.351562 C 0.859375 -5.390625 0.769531 -5.421875 0.667969 -5.445312 C 0.566406 -5.464844 0.484375 -5.480469 0.414062 -5.484375 L 0.414062 -5.773438 L 3.082031 -5.773438 C 3.285156 -5.773438 3.484375 -5.753906 3.671875 -5.710938 C 3.859375 -5.671875 4.039062 -5.601562 4.210938 -5.496094 C 4.371094 -5.402344 4.503906 -5.273438 4.605469 -5.109375 C 4.710938 -4.949219 4.761719 -4.75 4.761719 -4.515625 C 4.761719 -4.3125 4.722656 -4.132812 4.652344 -3.972656 C 4.578125 -3.816406 4.472656 -3.679688 4.339844 -3.5625 C 4.21875 -3.457031 4.074219 -3.363281 3.914062 -3.289062 C 3.75 -3.214844 3.578125 -3.15625 3.390625 -3.117188 L 3.390625 -3.082031 C 3.554688 -3.0625 3.738281 -3.019531 3.945312 -2.957031 C 4.148438 -2.890625 4.332031 -2.804688 4.492188 -2.691406 M 3.507812 -3.5625 C 3.609375 -3.679688 3.679688 -3.804688 3.71875 -3.945312 C 3.757812 -4.082031 3.777344 -4.246094 3.777344 -4.4375 C 3.777344 -4.753906 3.6875 -5.003906 3.515625 -5.183594 C 3.34375 -5.367188 3.070312 -5.457031 2.695312 -5.457031 C 2.609375 -5.457031 2.5 -5.453125 2.371094 -5.449219 C 2.238281 -5.445312 2.128906 -5.441406 2.039062 -5.441406 L 2.039062 -3.21875 L 2.554688 -3.21875 C 2.777344 -3.21875 2.964844 -3.246094 3.125 -3.304688 C 3.28125 -3.359375 3.410156 -3.445312 3.507812 -3.5625 M 4.074219 -1.71875 C 4.074219 -2.058594 3.957031 -2.339844 3.730469 -2.558594 C 3.5 -2.777344 3.171875 -2.890625 2.746094 -2.890625 C 2.574219 -2.890625 2.425781 -2.886719 2.308594 -2.882812 C 2.1875 -2.878906 2.097656 -2.875 2.039062 -2.871094 L 2.039062 -0.839844 C 2.039062 -0.667969 2.109375 -0.539062 2.246094 -0.453125 C 2.382812 -0.363281 2.578125 -0.320312 2.824219 -0.320312 C 3.226562 -0.320312 3.539062 -0.4375 3.75 -0.675781 C 3.964844 -0.910156 4.074219 -1.257812 4.074219 -1.71875 Z "/>
</g>
<g id="glyph-1-5">
<path d="M 2.769531 -1.886719 L 0.347656 -1.886719 L 0.347656 -2.53125 L 2.769531 -2.53125 Z "/>
</g>
<g id="glyph-1-6">
<path d="M 3.292969 0 L 0.550781 0 L 0.550781 -0.289062 C 0.628906 -0.292969 0.757812 -0.304688 0.929688 -0.324219 C 1.101562 -0.339844 1.21875 -0.359375 1.285156 -0.378906 C 1.371094 -0.40625 1.433594 -0.449219 1.480469 -0.511719 C 1.523438 -0.570312 1.546875 -0.664062 1.546875 -0.785156 L 1.546875 -3.640625 L 0.53125 -3.640625 L 0.53125 -3.984375 L 0.757812 -3.984375 C 1.050781 -3.984375 1.3125 -4.039062 1.542969 -4.144531 C 1.777344 -4.253906 1.941406 -4.371094 2.042969 -4.496094 L 2.378906 -4.496094 C 2.371094 -4.320312 2.363281 -4.113281 2.355469 -3.878906 C 2.347656 -3.640625 2.34375 -3.429688 2.34375 -3.242188 L 2.34375 -0.828125 C 2.34375 -0.734375 2.363281 -0.648438 2.40625 -0.574219 C 2.449219 -0.5 2.507812 -0.445312 2.585938 -0.410156 C 2.660156 -0.382812 2.773438 -0.355469 2.933594 -0.328125 C 3.09375 -0.304688 3.214844 -0.292969 3.292969 -0.289062 Z "/>
</g>
<g id="glyph-1-7">
<path d="M 4.179688 -3.800781 C 4.351562 -3.589844 4.480469 -3.347656 4.566406 -3.066406 C 4.652344 -2.785156 4.695312 -2.492188 4.695312 -2.183594 C 4.695312 -1.816406 4.644531 -1.484375 4.535156 -1.195312 C 4.429688 -0.902344 4.285156 -0.660156 4.101562 -0.46875 C 3.910156 -0.269531 3.6875 -0.121094 3.425781 -0.0195312 C 3.164062 0.078125 2.875 0.128906 2.554688 0.128906 C 2.207031 0.128906 1.894531 0.0703125 1.621094 -0.0429688 C 1.34375 -0.160156 1.121094 -0.320312 0.953125 -0.523438 C 0.773438 -0.738281 0.640625 -0.984375 0.550781 -1.265625 C 0.464844 -1.550781 0.417969 -1.855469 0.417969 -2.183594 C 0.417969 -2.507812 0.460938 -2.804688 0.546875 -3.074219 C 0.632812 -3.347656 0.765625 -3.59375 0.949219 -3.8125 C 1.121094 -4.023438 1.34375 -4.191406 1.621094 -4.3125 C 1.894531 -4.433594 2.207031 -4.496094 2.558594 -4.496094 C 2.929688 -4.496094 3.25 -4.433594 3.515625 -4.308594 C 3.78125 -4.183594 4.003906 -4.015625 4.179688 -3.800781 M 3.796875 -2.183594 C 3.796875 -2.832031 3.6875 -3.332031 3.464844 -3.6875 C 3.242188 -4.042969 2.941406 -4.21875 2.5625 -4.21875 C 2.179688 -4.21875 1.875 -4.042969 1.652344 -3.6875 C 1.429688 -3.332031 1.316406 -2.832031 1.316406 -2.183594 C 1.316406 -1.570312 1.425781 -1.078125 1.636719 -0.707031 C 1.851562 -0.332031 2.15625 -0.144531 2.554688 -0.144531 C 2.953125 -0.144531 3.261719 -0.332031 3.476562 -0.707031 C 3.6875 -1.078125 3.796875 -1.570312 3.796875 -2.183594 Z "/>
</g>
<g id="glyph-1-8">
<path d="M 4.375 -1.875 C 4.375 -1.59375 4.324219 -1.328125 4.222656 -1.082031 C 4.121094 -0.835938 3.984375 -0.625 3.8125 -0.449219 C 3.613281 -0.253906 3.394531 -0.105469 3.15625 -0.0117188 C 2.914062 0.0820312 2.664062 0.128906 2.40625 0.128906 C 2.105469 0.128906 1.832031 0.0742188 1.585938 -0.0351562 C 1.34375 -0.148438 1.136719 -0.304688 0.964844 -0.507812 C 0.789062 -0.714844 0.65625 -0.964844 0.5625 -1.265625 C 0.464844 -1.5625 0.417969 -1.898438 0.417969 -2.269531 C 0.417969 -3.238281 0.707031 -4.050781 1.285156 -4.714844 C 1.859375 -5.382812 2.632812 -5.78125 3.601562 -5.914062 L 3.675781 -5.546875 L 3.308594 -5.480469 C 2.71875 -5.292969 2.265625 -4.996094 1.941406 -4.59375 C 1.621094 -4.191406 1.414062 -3.707031 1.316406 -3.132812 C 1.550781 -3.335938 1.78125 -3.480469 2.011719 -3.566406 C 2.238281 -3.648438 2.476562 -3.691406 2.730469 -3.691406 C 3.183594 -3.691406 3.570312 -3.515625 3.890625 -3.171875 C 4.214844 -2.824219 4.375 -2.390625 4.375 -1.875 M 3.492188 -1.765625 C 3.492188 -2.207031 3.390625 -2.558594 3.1875 -2.824219 C 2.984375 -3.089844 2.714844 -3.222656 2.375 -3.222656 C 2.171875 -3.222656 1.984375 -3.183594 1.808594 -3.109375 C 1.632812 -3.03125 1.464844 -2.90625 1.300781 -2.726562 C 1.300781 -2.695312 1.296875 -2.617188 1.289062 -2.5 C 1.285156 -2.382812 1.28125 -2.289062 1.28125 -2.222656 C 1.28125 -1.585938 1.386719 -1.089844 1.59375 -0.730469 C 1.800781 -0.371094 2.074219 -0.191406 2.414062 -0.191406 C 2.734375 -0.191406 2.996094 -0.332031 3.195312 -0.613281 C 3.390625 -0.894531 3.492188 -1.277344 3.492188 -1.765625 Z "/>
</g>
<g id="glyph-1-9">
<path d="M 4.410156 -0.367188 L 3.585938 -0.367188 L 3.585938 1.484375 L 2.804688 1.484375 L 2.804688 -0.367188 L 0.199219 -0.367188 L 0.199219 -0.992188 L 3.050781 -4.472656 L 3.585938 -4.472656 L 3.585938 -0.898438 L 4.410156 -0.898438 L 4.410156 -0.367188 M 2.804688 -0.898438 L 2.804688 -3.566406 L 0.601562 -0.898438 Z "/>
</g>
<g id="glyph-1-10">
<path d="M 2.148438 0.105469 C 1.566406 0.105469 1.113281 -0.0859375 0.785156 -0.472656 C 0.457031 -0.855469 0.292969 -1.375 0.292969 -2.023438 C 0.292969 -2.304688 0.335938 -2.566406 0.425781 -2.8125 C 0.511719 -3.058594 0.640625 -3.28125 0.808594 -3.484375 C 0.96875 -3.675781 1.171875 -3.832031 1.410156 -3.949219 C 1.652344 -4.066406 1.917969 -4.125 2.203125 -4.125 C 2.59375 -4.125 2.914062 -4.03125 3.160156 -3.84375 C 3.410156 -3.65625 3.53125 -3.398438 3.53125 -3.070312 C 3.53125 -2.9375 3.5 -2.816406 3.433594 -2.710938 C 3.367188 -2.609375 3.261719 -2.554688 3.113281 -2.554688 C 2.953125 -2.554688 2.828125 -2.597656 2.742188 -2.675781 C 2.652344 -2.757812 2.609375 -2.847656 2.609375 -2.949219 C 2.609375 -3.070312 2.625 -3.195312 2.65625 -3.324219 C 2.691406 -3.453125 2.707031 -3.546875 2.714844 -3.605469 C 2.664062 -3.691406 2.59375 -3.746094 2.496094 -3.773438 C 2.402344 -3.800781 2.296875 -3.816406 2.1875 -3.816406 C 2.054688 -3.816406 1.933594 -3.789062 1.816406 -3.734375 C 1.699219 -3.675781 1.582031 -3.574219 1.472656 -3.425781 C 1.371094 -3.289062 1.289062 -3.105469 1.230469 -2.875 C 1.167969 -2.644531 1.136719 -2.371094 1.136719 -2.050781 C 1.136719 -1.546875 1.246094 -1.132812 1.46875 -0.816406 C 1.695312 -0.496094 1.988281 -0.335938 2.351562 -0.335938 C 2.613281 -0.335938 2.832031 -0.402344 3.011719 -0.53125 C 3.1875 -0.65625 3.351562 -0.851562 3.503906 -1.105469 L 3.765625 -0.9375 C 3.585938 -0.617188 3.347656 -0.363281 3.054688 -0.175781 C 2.761719 0.0117188 2.460938 0.105469 2.148438 0.105469 Z "/>
</g>
<g id="glyph-1-11">
<path d="M 7.15625 0 L 5.203125 0 L 5.203125 -0.269531 C 5.265625 -0.273438 5.328125 -0.28125 5.394531 -0.285156 C 5.457031 -0.289062 5.511719 -0.300781 5.5625 -0.316406 C 5.636719 -0.339844 5.695312 -0.382812 5.730469 -0.445312 C 5.769531 -0.507812 5.785156 -0.585938 5.785156 -0.683594 L 5.785156 -2.753906 C 5.785156 -3.035156 5.722656 -3.253906 5.59375 -3.40625 C 5.464844 -3.5625 5.304688 -3.636719 5.109375 -3.636719 C 4.976562 -3.636719 4.851562 -3.617188 4.734375 -3.578125 C 4.621094 -3.535156 4.511719 -3.480469 4.414062 -3.40625 C 4.335938 -3.347656 4.269531 -3.28125 4.21875 -3.210938 C 4.164062 -3.144531 4.125 -3.085938 4.097656 -3.039062 L 4.097656 -0.722656 C 4.097656 -0.628906 4.113281 -0.550781 4.144531 -0.492188 C 4.179688 -0.429688 4.234375 -0.382812 4.3125 -0.351562 C 4.375 -0.324219 4.433594 -0.308594 4.480469 -0.296875 C 4.53125 -0.28125 4.597656 -0.273438 4.679688 -0.269531 L 4.679688 0 L 2.765625 0 L 2.765625 -0.269531 C 2.828125 -0.273438 2.890625 -0.28125 2.949219 -0.285156 C 3.007812 -0.289062 3.058594 -0.300781 3.109375 -0.316406 C 3.183594 -0.339844 3.242188 -0.382812 3.277344 -0.445312 C 3.3125 -0.507812 3.332031 -0.585938 3.332031 -0.683594 L 3.332031 -2.753906 C 3.332031 -3.035156 3.269531 -3.253906 3.140625 -3.40625 C 3.007812 -3.5625 2.847656 -3.636719 2.65625 -3.636719 C 2.523438 -3.636719 2.398438 -3.617188 2.28125 -3.574219 C 2.164062 -3.53125 2.054688 -3.476562 1.957031 -3.402344 C 1.878906 -3.34375 1.8125 -3.273438 1.757812 -3.199219 C 1.703125 -3.125 1.664062 -3.070312 1.636719 -3.03125 L 1.636719 -0.730469 C 1.636719 -0.640625 1.65625 -0.5625 1.691406 -0.5 C 1.730469 -0.4375 1.789062 -0.390625 1.863281 -0.359375 C 1.921875 -0.332031 1.980469 -0.3125 2.039062 -0.296875 C 2.097656 -0.285156 2.164062 -0.273438 2.238281 -0.269531 L 2.238281 0 L 0.289062 0 L 0.289062 -0.269531 C 0.351562 -0.273438 0.414062 -0.28125 0.480469 -0.285156 C 0.546875 -0.289062 0.605469 -0.300781 0.65625 -0.316406 C 0.730469 -0.339844 0.789062 -0.382812 0.824219 -0.445312 C 0.859375 -0.507812 0.878906 -0.585938 0.878906 -0.683594 L 0.878906 -3.175781 C 0.878906 -3.261719 0.859375 -3.339844 0.820312 -3.40625 C 0.78125 -3.476562 0.726562 -3.535156 0.65625 -3.585938 C 0.605469 -3.617188 0.539062 -3.644531 0.464844 -3.664062 C 0.386719 -3.683594 0.308594 -3.699219 0.226562 -3.703125 L 0.226562 -3.972656 L 1.570312 -4.0625 L 1.628906 -4.003906 L 1.628906 -3.429688 L 1.65625 -3.429688 C 1.722656 -3.496094 1.804688 -3.578125 1.902344 -3.671875 C 2 -3.761719 2.09375 -3.835938 2.175781 -3.894531 C 2.273438 -3.960938 2.390625 -4.011719 2.53125 -4.058594 C 2.675781 -4.101562 2.828125 -4.121094 2.996094 -4.121094 C 3.253906 -4.121094 3.480469 -4.050781 3.667969 -3.914062 C 3.851562 -3.773438 3.988281 -3.605469 4.070312 -3.40625 C 4.167969 -3.5 4.253906 -3.585938 4.328125 -3.65625 C 4.402344 -3.726562 4.5 -3.804688 4.621094 -3.886719 C 4.722656 -3.957031 4.84375 -4.011719 4.984375 -4.058594 C 5.125 -4.101562 5.28125 -4.121094 5.449219 -4.121094 C 5.789062 -4.121094 6.058594 -4.011719 6.253906 -3.789062 C 6.453125 -3.566406 6.550781 -3.222656 6.550781 -2.761719 L 6.550781 -0.722656 C 6.550781 -0.628906 6.566406 -0.550781 6.601562 -0.492188 C 6.632812 -0.429688 6.6875 -0.382812 6.765625 -0.351562 C 6.828125 -0.324219 6.890625 -0.308594 6.953125 -0.296875 C 7.011719 -0.28125 7.082031 -0.273438 7.15625 -0.269531 Z "/>
</g>
</g>
</defs>
<g fill="rgb(100%, 100%, 0%)" fill-opacity="1">
<use xlink:href="#glyph-0-0" x="30" y="28.183594"/>
<use xlink:href="#glyph-0-1" x="38" y="28.183594"/>
</g>
<g fill="rgb(100%, 100%, 0%)" fill-opacity="1">
<use xlink:href="#glyph-1-0" x="46" y="27.641602"/>
<use xlink:href="#glyph-1-1" x="52" y="27.641602"/>
<use xlink:href="#glyph-1-2" x="57" y="27.641602"/>
</g>
<g fill="rgb(100%, 100%, 0%)" fill-opacity="1">
<use xlink:href="#glyph-0-2" x="59" y="28.183594"/>
<use xlink:href="#glyph-0-3" x="67" y="28.183594"/>
<use xlink:href="#glyph-0-4" x="75" y="28.183594"/>
<use xlink:href="#glyph-0-5" x="83" y="28.183594"/>
</g>
<g fill="rgb(100%, 100%, 0%)" fill-opacity="1">
<use xlink:href="#glyph-1-0" x="91" y="27.641602"/>
<use xlink:href="#glyph-1-1" x="97" y="27.641602"/>
<use xlink:href="#glyph-1-2" x="102" y="27.641602"/>
<use xlink:href="#glyph-1-3" x="104" y="27.641602"/>
<use xlink:href="#glyph-1-0" x="109" y="27.641602"/>
<use xlink:href="#glyph-1-4" x="115" y="27.641602"/>
<use xlink:href="#glyph-1-5" x="120" y="27.641602"/>
<use xlink:href="#glyph-1-4" x="123" y="27.641602"/>
<use xlink:href="#glyph-1-1" x="128" y="27.641602"/>
<use xlink:href="#glyph-1-2" x="133" y="27.641602"/>
<use xlink:href="#glyph-1-3" x="135" y="27.641602"/>
<use xlink:href="#glyph-1-6" x="140" y="27.641602"/>
<use xlink:href="#glyph-1-7" x="144" y="27.641602"/>
<use xlink:href="#glyph-1-5" x="149" y="27.641602"/>
<use xlink:href="#glyph-1-8" x="152" y="27.641602"/>
<use xlink:href="#glyph-1-3" x="157" y="27.641602"/>
<use xlink:href="#glyph-1-9" x="162" y="27.641602"/>
<use xlink:href="#glyph-1-10" x="167" y="27.641602"/>
<use xlink:href="#glyph-1-11" x="171" y="27.641602"/>
</g>
</svg>
