<?xml version="1.0" encoding="UTF-8"?>
<svg xmlns="http://www.w3.org/2000/svg" xmlns:xlink="http://www.w3.org/1999/xlink" width="1920" height="1080" viewBox="0 0 1920 1080">
<defs>
<g>
<g id="glyph-0-0">
<path d="M 3.074219 -9.792969 L 3.074219 -8.175781 L 10.417969 -8.175781 L 10.417969 -9.792969 L 3.074219 -9.792969 M 6.09375 -5.574219 L 6.09375 -3.855469 L 8.28125 -3.855469 L 8.28125 -5.574219 L 6.09375 -5.574219 M 0.625 1.09375 C 1.214844 0.121094 1.632812 -0.851562 1.875 -1.824219 C 2.117188 -2.796875 2.257812 -3.820312 2.292969 -4.894531 C 2.328125 -5.972656 2.34375 -6.996094 2.34375 -7.96875 C 2.34375 -8.941406 2.328125 -9.792969 2.292969 -10.519531 L 3.074219 -10.105469 L 10.3125 -10.105469 L 10.730469 -10.625 L 11.5625 -10 L 11.144531 -9.636719 C 11.144531 -8.628906 11.164062 -7.933594 11.199219 -7.550781 L 10.417969 -7.292969 L 10.417969 -7.863281 L 3.074219 -7.863281 C 3.074219 -6.335938 3.039062 -5.140625 2.96875 -4.269531 C 2.898438 -3.402344 2.726562 -2.515625 2.449219 -1.613281 C 2.171875 -0.710938 1.613281 0.226562 0.78125 1.199219 L 0.625 1.09375 M 4.636719 -3.542969 L 2.863281 -3.542969 L 2.917969 -3.855469 L 5.417969 -3.855469 L 5.417969 -5.574219 L 3.019531 -5.574219 L 3.019531 -5.886719 L 5.417969 -5.886719 C 5.417969 -6.890625 5.398438 -7.5 5.363281 -7.707031 L 6.5625 -7.1875 L 6.09375 -6.824219 L 6.09375 -5.886719 L 8.28125 -5.886719 C 8.28125 -6.648438 8.265625 -7.238281 8.230469 -7.65625 L 9.425781 -7.136719 L 8.957031 -6.824219 L 8.957031 -5.886719 L 9.949219 -5.886719 L 10.574219 -6.511719 L 11.511719 -5.574219 L 8.957031 -5.574219 L 8.957031 -3.855469 L 10.625 -3.855469 L 11.355469 -4.582031 L 12.394531 -3.542969 L 6.980469 -3.542969 C 7.328125 -2.777344 7.761719 -2.117188 8.28125 -1.5625 C 9.113281 -2.152344 9.757812 -2.742188 10.207031 -3.332031 L 10.9375 -2.5 C 10.589844 -2.5 9.773438 -2.117188 8.488281 -1.355469 C 9.011719 -0.902344 9.625 -0.574219 10.339844 -0.363281 C 11.050781 -0.15625 11.804688 -0.0507812 12.605469 -0.0507812 L 12.605469 0.15625 C 11.980469 0.296875 11.613281 0.554688 11.511719 0.9375 C 10.574219 0.765625 9.644531 0.320312 8.722656 -0.390625 C 7.804688 -1.101562 7.136719 -2.152344 6.71875 -3.542969 L 5.3125 -3.542969 L 5.3125 -0.0507812 L 7.449219 -0.9375 L 7.550781 -0.78125 C 6.265625 -0.015625 5.433594 0.625 5.050781 1.144531 L 4.425781 0.363281 C 4.601562 0.191406 4.671875 -0.0507812 4.636719 -0.363281 Z "/>
</g>
<g id="glyph-0-1">
<path d="M 5.105469 -9.375 L 5.105469 -5.46875 L 8.332031 -5.46875 L 8.332031 -9.375 L 5.105469 -9.375 M 9.113281 -5.15625 L 9.113281 -1.09375 C 9.113281 -0.433594 9.132812 0.207031 9.167969 0.832031 L 8.28125 1.144531 C 8.316406 0.105469 8.332031 -0.78125 8.332031 -1.511719 L 8.332031 -5.15625 L 5.105469 -5.15625 C 5.070312 -3.664062 4.738281 -2.421875 4.113281 -1.433594 C 3.488281 -0.441406 2.429688 0.453125 0.9375 1.25 L 0.78125 1.09375 C 1.925781 0.363281 2.796875 -0.46875 3.386719 -1.40625 C 3.976562 -2.34375 4.289062 -3.59375 4.324219 -5.15625 L 2.292969 -5.15625 C 1.839844 -5.15625 1.421875 -5.105469 1.042969 -5 L 0.574219 -5.46875 L 4.324219 -5.46875 L 4.324219 -9.375 L 3.019531 -9.375 C 2.570312 -9.375 2.152344 -9.324219 1.769531 -9.21875 L 1.300781 -9.6875 L 10.207031 -9.6875 L 10.988281 -10.46875 L 12.082031 -9.375 L 9.113281 -9.375 L 9.113281 -5.46875 L 10.78125 -5.46875 L 11.613281 -6.300781 L 12.761719 -5.15625 Z "/>
</g>
<g id="glyph-0-2">
<path d="M 0.574219 -8.175781 L 10.9375 -8.175781 L 11.71875 -8.957031 L 12.8125 -7.863281 L 6.40625 -7.863281 C 6.371094 -7.203125 6.285156 -6.441406 6.144531 -5.574219 L 9.53125 -5.574219 L 10.050781 -6.09375 L 10.886719 -5.3125 L 10.363281 -5 C 10.015625 -2.328125 9.773438 -0.746094 9.636719 -0.261719 C 9.496094 0.226562 9.28125 0.5625 8.984375 0.753906 C 8.6875 0.945312 8.28125 1.109375 7.761719 1.25 C 7.621094 0.695312 7.046875 0.207031 6.042969 -0.207031 L 6.09375 -0.417969 C 7.03125 -0.140625 7.648438 0.0078125 7.941406 0.0273438 C 8.238281 0.0429688 8.464844 -0.015625 8.621094 -0.15625 C 8.777344 -0.296875 8.921875 -0.738281 9.0625 -1.484375 C 9.203125 -2.230469 9.375 -3.488281 9.582031 -5.261719 L 6.09375 -5.261719 C 5.503906 -2.238281 3.800781 -0.0859375 0.988281 1.199219 L 0.886719 0.988281 C 4.011719 -0.78125 5.574219 -3.734375 5.574219 -7.863281 L 2.292969 -7.863281 C 1.839844 -7.863281 1.421875 -7.8125 1.042969 -7.707031 L 0.574219 -8.175781 M 5.574219 -10.730469 C 6.476562 -10.382812 7.003906 -10.085938 7.160156 -9.84375 C 7.316406 -9.601562 7.394531 -9.410156 7.394531 -9.269531 C 7.394531 -9.132812 7.328125 -8.96875 7.1875 -8.777344 C 7.046875 -8.585938 6.960938 -8.488281 6.925781 -8.488281 C 6.789062 -8.488281 6.648438 -8.679688 6.511719 -9.0625 C 6.300781 -9.582031 5.953125 -10.085938 5.46875 -10.574219 Z "/>
</g>
<g id="glyph-0-3">
<path d="M 6.355469 -5.730469 C 6.390625 -6.527344 6.40625 -7.316406 6.40625 -8.097656 C 6.40625 -8.878906 6.390625 -9.652344 6.355469 -10.417969 L 7.136719 -9.949219 L 10.9375 -9.949219 L 11.40625 -10.417969 L 12.136719 -9.6875 L 11.667969 -9.375 C 11.667969 -7.777344 11.683594 -6.734375 11.71875 -6.25 L 10.988281 -5.988281 L 10.988281 -6.613281 L 7.082031 -6.613281 L 7.082031 -6.042969 L 6.355469 -5.730469 M 7.082031 -9.636719 L 7.082031 -6.925781 L 10.988281 -6.925781 L 10.988281 -9.636719 L 7.082031 -9.636719 M 5.675781 -5.050781 L 11.09375 -5.050781 L 11.667969 -5.625 L 12.5 -4.738281 L 9.324219 -4.738281 L 9.324219 -2.5 L 10.832031 -2.5 L 11.40625 -3.074219 L 12.238281 -2.1875 L 9.324219 -2.1875 L 9.324219 0.207031 L 11.355469 0.207031 L 11.980469 -0.417969 L 12.863281 0.519531 L 6.613281 0.519531 C 6.164062 0.519531 5.746094 0.574219 5.363281 0.675781 L 4.894531 0.207031 L 8.644531 0.207031 L 8.644531 -2.1875 L 7.707031 -2.1875 C 7.257812 -2.1875 6.839844 -2.136719 6.457031 -2.03125 L 5.988281 -2.5 L 8.644531 -2.5 L 8.644531 -4.738281 L 7.394531 -4.738281 C 6.945312 -4.738281 6.527344 -4.6875 6.144531 -4.582031 L 5.675781 -5.050781 M 3.074219 -9.425781 C 2.621094 -9.359375 1.890625 -9.269531 0.886719 -9.167969 L 0.886719 -9.375 C 1.546875 -9.480469 2.316406 -9.671875 3.203125 -9.949219 C 4.089844 -10.226562 4.671875 -10.484375 4.949219 -10.730469 L 5.625 -9.792969 C 5.3125 -9.792969 4.6875 -9.703125 3.75 -9.53125 L 3.75 -6.925781 L 4.53125 -6.925781 L 5.105469 -7.5 L 5.9375 -6.613281 L 3.75 -6.613281 L 3.75 -5.625 C 4.480469 -5.3125 4.957031 -5.042969 5.183594 -4.816406 C 5.40625 -4.59375 5.519531 -4.375 5.519531 -4.167969 C 5.519531 -3.992188 5.476562 -3.828125 5.390625 -3.671875 C 5.304688 -3.515625 5.226562 -3.4375 5.15625 -3.4375 C 5.050781 -3.4375 4.929688 -3.609375 4.792969 -3.957031 C 4.582031 -4.480469 4.234375 -4.964844 3.75 -5.417969 C 3.75 -1.804688 3.765625 0.3125 3.800781 0.9375 L 3.019531 1.300781 C 3.054688 -0.015625 3.074219 -2.03125 3.074219 -4.738281 C 2.449219 -3.140625 1.632812 -1.804688 0.625 -0.730469 L 0.519531 -0.886719 C 1.214844 -1.960938 1.753906 -3.003906 2.136719 -4.011719 C 2.515625 -5.015625 2.777344 -5.886719 2.917969 -6.613281 L 2.1875 -6.613281 C 1.734375 -6.613281 1.320312 -6.5625 0.9375 -6.457031 L 0.46875 -6.925781 L 3.074219 -6.925781 Z "/>
</g>
<g id="glyph-0-4">
<path d="M 3.230469 -1.40625 C 3.4375 -1.265625 3.53125 -1.03125 3.515625 -0.703125 C 3.5 -0.375 3.367188 -0.140625 3.125 0 C 2.882812 0.140625 2.707031 0.207031 2.605469 0.207031 C 2.5 0.207031 2.328125 0.140625 2.082031 0 C 1.839844 -0.140625 1.710938 -0.382812 1.691406 -0.730469 C 1.675781 -1.078125 1.78125 -1.3125 2.003906 -1.433594 C 2.230469 -1.554688 2.429688 -1.613281 2.605469 -1.613281 C 2.8125 -1.613281 3.019531 -1.546875 3.230469 -1.40625 M 3.230469 -4.558594 C 3.472656 -4.4375 3.59375 -4.191406 3.59375 -3.828125 C 3.59375 -3.464844 3.453125 -3.21875 3.175781 -3.097656 C 2.898438 -2.976562 2.707031 -2.917969 2.605469 -2.917969 C 2.429688 -2.917969 2.230469 -2.996094 2.003906 -3.152344 C 1.78125 -3.308594 1.675781 -3.550781 1.691406 -3.878906 C 1.710938 -4.210938 1.839844 -4.4375 2.082031 -4.558594 C 2.328125 -4.679688 2.515625 -4.738281 2.65625 -4.738281 C 2.796875 -4.738281 2.984375 -4.679688 3.230469 -4.558594 Z "/>
</g>
<g id="glyph-1-0">
<path d="M 7 -2.996094 C 7 -2.546875 6.917969 -2.125 6.753906 -1.730469 C 6.589844 -1.335938 6.375 -1 6.101562 -0.722656 C 5.785156 -0.40625 5.433594 -0.171875 5.046875 -0.0195312 C 4.664062 0.132812 4.265625 0.207031 3.847656 0.207031 C 3.367188 0.207031 2.929688 0.121094 2.539062 -0.0585938 C 2.148438 -0.234375 1.816406 -0.488281 1.542969 -0.8125 C 1.265625 -1.144531 1.050781 -1.546875 0.898438 -2.023438 C 0.746094 -2.5 0.671875 -3.035156 0.671875 -3.628906 C 0.671875 -5.179688 1.132812 -6.484375 2.054688 -7.546875 C 2.976562 -8.609375 4.210938 -9.246094 5.761719 -9.460938 L 5.878906 -8.875 L 5.292969 -8.769531 C 4.351562 -8.464844 3.621094 -7.992188 3.109375 -7.351562 C 2.59375 -6.707031 2.261719 -5.929688 2.109375 -5.015625 C 2.484375 -5.339844 2.851562 -5.570312 3.214844 -5.703125 C 3.582031 -5.835938 3.964844 -5.90625 4.367188 -5.90625 C 5.09375 -5.90625 5.710938 -5.628906 6.226562 -5.074219 C 6.742188 -4.515625 7 -3.824219 7 -2.996094 M 5.585938 -2.824219 C 5.585938 -3.527344 5.425781 -4.09375 5.101562 -4.519531 C 4.777344 -4.945312 4.34375 -5.15625 3.800781 -5.15625 C 3.476562 -5.15625 3.171875 -5.09375 2.894531 -4.972656 C 2.613281 -4.851562 2.34375 -4.648438 2.082031 -4.363281 C 2.078125 -4.308594 2.074219 -4.1875 2.0625 -4 C 2.054688 -3.8125 2.050781 -3.664062 2.050781 -3.554688 C 2.050781 -2.539062 2.21875 -1.742188 2.546875 -1.167969 C 2.878906 -0.59375 3.316406 -0.304688 3.859375 -0.304688 C 4.378906 -0.304688 4.792969 -0.53125 5.109375 -0.980469 C 5.425781 -1.429688 5.585938 -2.042969 5.585938 -2.824219 Z "/>
</g>
<g id="glyph-1-1">
<path d="M 7.058594 -0.585938 L 5.734375 -0.585938 L 5.734375 2.375 L 4.484375 2.375 L 4.484375 -0.585938 L 0.320312 -0.585938 L 0.320312 -1.589844 L 4.882812 -7.15625 L 5.734375 -7.15625 L 5.734375 -1.4375 L 7.058594 -1.4375 L 7.058594 -0.585938 M 4.484375 -1.4375 L 4.484375 -5.707031 L 0.960938 -1.4375 Z "/>
</g>
<g id="glyph-1-2">
</g>
<g id="glyph-1-3">
<path d="M 4.433594 -3.019531 L 0.554688 -3.019531 L 0.554688 -4.050781 L 4.433594 -4.050781 Z "/>
</g>
<g id="glyph-1-4">
<path d="M 5.265625 0 L 0.878906 0 L 0.878906 -0.460938 C 1.007812 -0.472656 1.210938 -0.488281 1.488281 -0.515625 C 1.761719 -0.546875 1.953125 -0.574219 2.058594 -0.605469 C 2.191406 -0.648438 2.296875 -0.71875 2.367188 -0.816406 C 2.4375 -0.914062 2.472656 -1.0625 2.472656 -1.257812 L 2.472656 -5.828125 L 0.851562 -5.828125 L 0.851562 -6.375 L 1.210938 -6.375 C 1.679688 -6.375 2.101562 -6.460938 2.46875 -6.632812 C 2.839844 -6.808594 3.109375 -6.996094 3.269531 -7.195312 L 3.808594 -7.195312 C 3.796875 -6.910156 3.78125 -6.582031 3.769531 -6.203125 C 3.757812 -5.828125 3.75 -5.488281 3.75 -5.1875 L 3.75 -1.328125 C 3.75 -1.175781 3.785156 -1.039062 3.851562 -0.921875 C 3.917969 -0.800781 4.015625 -0.714844 4.140625 -0.65625 C 4.253906 -0.609375 4.4375 -0.566406 4.695312 -0.527344 C 4.949219 -0.488281 5.140625 -0.464844 5.265625 -0.460938 Z "/>
</g>
<g id="glyph-1-5">
<path d="M 6.652344 0 L 3.710938 0 L 3.710938 -0.429688 C 3.90625 -0.453125 4.074219 -0.472656 4.210938 -0.496094 C 4.347656 -0.515625 4.417969 -0.574219 4.417969 -0.664062 C 4.417969 -0.703125 4.394531 -0.765625 4.351562 -0.847656 C 4.308594 -0.929688 4.265625 -1.003906 4.222656 -1.074219 C 4.113281 -1.242188 3.964844 -1.46875 3.773438 -1.753906 C 3.585938 -2.039062 3.355469 -2.378906 3.078125 -2.773438 C 2.855469 -2.492188 2.644531 -2.21875 2.453125 -1.949219 C 2.261719 -1.683594 2.0625 -1.398438 1.855469 -1.101562 C 1.824219 -1.058594 1.792969 -1.003906 1.757812 -0.9375 C 1.726562 -0.871094 1.710938 -0.820312 1.710938 -0.78125 C 1.710938 -0.6875 1.773438 -0.605469 1.894531 -0.542969 C 2.019531 -0.480469 2.207031 -0.4375 2.453125 -0.417969 L 2.453125 0 L 0.078125 0 L 0.078125 -0.402344 C 0.375 -0.492188 0.609375 -0.59375 0.789062 -0.71875 C 0.972656 -0.84375 1.136719 -0.996094 1.289062 -1.179688 C 1.421875 -1.351562 1.613281 -1.59375 1.851562 -1.898438 C 2.09375 -2.203125 2.40625 -2.617188 2.789062 -3.140625 C 2.566406 -3.453125 2.296875 -3.839844 1.976562 -4.296875 C 1.660156 -4.753906 1.394531 -5.132812 1.1875 -5.4375 C 1.074219 -5.601562 0.945312 -5.734375 0.796875 -5.835938 C 0.652344 -5.9375 0.449219 -5.988281 0.183594 -5.988281 L 0.183594 -6.417969 L 2.976562 -6.417969 L 2.976562 -5.988281 C 2.835938 -5.988281 2.699219 -5.980469 2.566406 -5.964844 C 2.433594 -5.945312 2.363281 -5.90625 2.363281 -5.847656 C 2.363281 -5.808594 2.378906 -5.765625 2.402344 -5.714844 C 2.429688 -5.667969 2.460938 -5.617188 2.5 -5.558594 C 2.597656 -5.414062 2.746094 -5.183594 2.945312 -4.875 C 3.148438 -4.570312 3.367188 -4.242188 3.601562 -3.898438 C 3.753906 -4.109375 3.929688 -4.351562 4.132812 -4.628906 C 4.335938 -4.90625 4.519531 -5.171875 4.691406 -5.421875 C 4.707031 -5.453125 4.722656 -5.492188 4.742188 -5.535156 C 4.757812 -5.582031 4.769531 -5.628906 4.769531 -5.671875 C 4.769531 -5.761719 4.691406 -5.835938 4.542969 -5.886719 C 4.390625 -5.941406 4.25 -5.980469 4.113281 -6.003906 L 4.113281 -6.417969 L 6.484375 -6.417969 L 6.484375 -6.015625 C 6.148438 -5.929688 5.890625 -5.824219 5.703125 -5.707031 C 5.515625 -5.585938 5.359375 -5.449219 5.226562 -5.292969 C 5.085938 -5.113281 4.914062 -4.894531 4.71875 -4.636719 C 4.519531 -4.375 4.242188 -4.011719 3.886719 -3.542969 C 4.28125 -2.984375 4.601562 -2.53125 4.851562 -2.175781 C 5.097656 -1.820312 5.347656 -1.453125 5.597656 -1.074219 C 5.726562 -0.882812 5.863281 -0.730469 6.019531 -0.621094 C 6.171875 -0.511719 6.382812 -0.445312 6.652344 -0.429688 Z "/>
</g>
<g id="glyph-1-6">
<path d="M 7.636719 -3.234375 L 4.699219 -3.234375 L 4.699219 -0.300781 L 3.875 -0.300781 L 3.875 -3.234375 L 0.9375 -3.234375 L 0.9375 -4.050781 L 3.875 -4.050781 L 3.875 -6.984375 L 4.699219 -6.984375 L 4.699219 -4.050781 L 7.636719 -4.050781 Z "/>
</g>
<g id="glyph-1-7">
<path d="M 5.859375 -3.191406 L 0.957031 -3.191406 L 0.957031 -3.914062 C 1.125 -4.195312 1.382812 -4.472656 1.730469 -4.746094 C 2.078125 -5.019531 2.496094 -5.308594 2.988281 -5.617188 C 3.140625 -5.714844 3.308594 -5.839844 3.492188 -6 C 3.675781 -6.15625 3.820312 -6.304688 3.917969 -6.4375 C 4.050781 -6.613281 4.148438 -6.792969 4.214844 -6.980469 C 4.28125 -7.171875 4.316406 -7.410156 4.316406 -7.695312 C 4.316406 -8.113281 4.210938 -8.429688 3.996094 -8.644531 C 3.785156 -8.863281 3.503906 -8.972656 3.15625 -8.972656 C 2.910156 -8.972656 2.699219 -8.929688 2.523438 -8.84375 C 2.347656 -8.757812 2.21875 -8.660156 2.140625 -8.546875 C 2.167969 -8.445312 2.195312 -8.324219 2.230469 -8.195312 C 2.261719 -8.0625 2.277344 -7.921875 2.277344 -7.78125 C 2.277344 -7.644531 2.21875 -7.527344 2.101562 -7.429688 C 1.980469 -7.328125 1.804688 -7.277344 1.574219 -7.277344 C 1.367188 -7.277344 1.21875 -7.347656 1.128906 -7.484375 C 1.039062 -7.621094 0.996094 -7.773438 0.996094 -7.941406 C 0.996094 -8.335938 1.222656 -8.6875 1.675781 -8.996094 C 2.128906 -9.304688 2.65625 -9.460938 3.253906 -9.460938 C 3.9375 -9.460938 4.492188 -9.296875 4.921875 -8.96875 C 5.351562 -8.640625 5.566406 -8.199219 5.566406 -7.648438 C 5.566406 -7.324219 5.515625 -7.039062 5.417969 -6.800781 C 5.320312 -6.558594 5.191406 -6.355469 5.03125 -6.183594 C 4.863281 -6.007812 4.671875 -5.851562 4.460938 -5.722656 C 4.253906 -5.59375 4.035156 -5.472656 3.808594 -5.363281 C 3.53125 -5.230469 3.191406 -5.050781 2.796875 -4.824219 C 2.398438 -4.597656 2.074219 -4.367188 1.816406 -4.128906 L 5.859375 -4.128906 Z "/>
</g>
<g id="glyph-1-8">
<path d="M 7.570312 -4.445312 L 1.003906 -4.445312 L 1.003906 -5.261719 L 7.570312 -5.261719 L 7.570312 -4.445312 M 7.570312 -2.023438 L 1.003906 -2.023438 L 1.003906 -2.839844 L 7.570312 -2.839844 Z "/>
</g>
</g>
</defs>
<g fill="rgb(100%, 100%, 100%)" fill-opacity="1">
<use xlink:href="#glyph-0-0" x="30" y="33.092773"/>
<use xlink:href="#glyph-0-1" x="43" y="33.092773"/>
<use xlink:href="#glyph-0-2" x="56" y="33.092773"/>
<use xlink:href="#glyph-0-3" x="69" y="33.092773"/>
<use xlink:href="#glyph-0-4" x="82" y="33.092773"/>
</g>
<g fill="rgb(100%, 100%, 100%)" fill-opacity="1">
<use xlink:href="#glyph-1-0" x="95" y="32.226562"/>
<use xlink:href="#glyph-1-1" x="103" y="32.226562"/>
<use xlink:href="#glyph-1-2" x="111" y="32.226562"/>
<use xlink:href="#glyph-1-3" x="114" y="32.226562"/>
<use xlink:href="#glyph-1-2" x="119" y="32.226562"/>
<use xlink:href="#glyph-1-4" x="122" y="32.226562"/>
<use xlink:href="#glyph-1-0" x="128" y="32.226562"/>
</g>
<g fill="rgb(100%, 100%, 100%)" fill-opacity="1">
<use xlink:href="#glyph-1-5" x="136" y="32.226562"/>
<use xlink:href="#glyph-1-2" x="143" y="32.226562"/>
<use xlink:href="#glyph-1-6" x="146" y="32.226562"/>
<use xlink:href="#glyph-1-2" x="155" y="32.226562"/>
<use xlink:href="#glyph-1-5" x="158" y="32.226562"/>
<use xlink:href="#glyph-1-7" x="165" y="32.226562"/>
<use xlink:href="#glyph-1-2" x="172" y="32.226562"/>
<use xlink:href="#glyph-1-8" x="175" y="32.226562"/>
<use xlink:href="#glyph-1-2" x="184" y="32.226562"/>
<use xlink:href="#glyph-1-4" x="187" y="32.226562"/>
<use xlink:href="#glyph-1-0" x="193" y="32.226562"/>
<use xlink:href="#glyph-1-2" x="201" y="32.226562"/>
<use xlink:href="#glyph-1-6" x="204" y="32.226562"/>
<use xlink:href="#glyph-1-2" x="213" y="32.226562"/>
<use xlink:href="#glyph-1-5" x="216" y="32.226562"/>
<use xlink:href="#glyph-1-7" x="223" y="32.226562"/>
</g>
</svg>
