<?xml version="1.0" encoding="UTF-8"?>
<svg xmlns="http://www.w3.org/2000/svg" xmlns:xlink="http://www.w3.org/1999/xlink" width="1920" height="1080" viewBox="0 0 1920 1080">
<defs>
<g>
<g id="glyph-0-0">
<path d="M 6.925781 -5.527344 C 6.90625 -4.960938 6.882812 -4.585938 6.851562 -4.40625 C 6.820312 -4.222656 6.765625 -4.074219 6.683594 -3.964844 C 6.601562 -3.851562 6.429688 -3.757812 6.167969 -3.675781 C 6.1875 -3.859375 5.945312 -4.03125 5.4375 -4.191406 L 5.46875 -4.3125 C 5.773438 -4.253906 6 -4.21875 6.152344 -4.207031 C 6.304688 -4.199219 6.398438 -4.261719 6.441406 -4.40625 C 6.480469 -4.546875 6.511719 -4.953125 6.53125 -5.621094 L 5.316406 -5.621094 C 5.296875 -5.195312 5.175781 -4.808594 4.953125 -4.464844 C 4.730469 -4.121094 4.324219 -3.808594 3.738281 -3.523438 L 3.644531 -3.617188 C 4.089844 -3.898438 4.40625 -4.226562 4.585938 -4.601562 C 4.769531 -4.976562 4.859375 -5.316406 4.859375 -5.621094 L 4.433594 -5.621094 L 4.160156 -5.527344 L 3.890625 -5.800781 L 6.5 -5.800781 L 6.746094 -6.074219 L 7.167969 -5.710938 L 6.925781 -5.527344 M 5.347656 0.757812 C 5.367188 0.335938 5.378906 -0.3125 5.378906 -1.183594 L 4.585938 -1.183594 C 4.324219 -1.183594 4.082031 -1.15625 3.859375 -1.09375 L 3.585938 -1.367188 L 5.378906 -1.367188 L 5.378906 -2.460938 L 4.558594 -2.460938 C 4.273438 -2.054688 4.011719 -1.75 3.765625 -1.550781 L 3.707031 -1.609375 C 3.910156 -1.914062 4.085938 -2.269531 4.238281 -2.671875 C 4.390625 -3.078125 4.484375 -3.402344 4.527344 -3.644531 L 5.105469 -3.28125 L 4.832031 -3.128906 L 4.617188 -2.644531 L 5.378906 -2.644531 C 5.378906 -3.167969 5.367188 -3.574219 5.347656 -3.859375 L 6.015625 -3.523438 L 5.773438 -3.34375 L 5.773438 -2.644531 L 6.320312 -2.644531 L 6.652344 -2.976562 L 7.140625 -2.460938 L 5.773438 -2.460938 L 5.773438 -1.367188 L 6.621094 -1.367188 L 6.988281 -1.730469 L 7.503906 -1.183594 L 5.773438 -1.183594 C 5.773438 -0.355469 5.78125 0.222656 5.800781 0.546875 L 5.347656 0.757812 M 1.792969 -6.320312 L 2.398438 -5.925781 L 2.125 -5.800781 C 2.003906 -5.601562 1.902344 -5.398438 1.824219 -5.195312 L 2.644531 -5.195312 L 2.917969 -5.46875 L 3.371094 -5.011719 C 3.191406 -4.933594 3.054688 -4.84375 2.960938 -4.753906 C 2.871094 -4.664062 2.683594 -4.445312 2.398438 -4.101562 L 3.070312 -4.101562 L 3.34375 -4.375 L 3.738281 -3.980469 L 3.492188 -3.796875 L 3.492188 0.242188 C 3.492188 0.34375 3.464844 0.433594 3.402344 0.515625 C 3.34375 0.597656 3.21875 0.679688 3.039062 0.757812 C 3.039062 0.597656 2.867188 0.445312 2.523438 0.304688 L 2.523438 0.183594 C 2.765625 0.222656 2.925781 0.242188 3.007812 0.242188 C 3.089844 0.242188 3.128906 0.191406 3.128906 0.0898438 L 3.128906 -1.578125 L 2.429688 -1.578125 C 2.429688 -0.851562 2.441406 -0.304688 2.460938 0.0625 L 2.035156 0.304688 C 2.054688 -0.101562 2.066406 -0.730469 2.066406 -1.578125 L 1.367188 -1.578125 C 1.328125 -0.648438 0.980469 0.132812 0.335938 0.757812 L 0.273438 0.667969 C 0.558594 0.261719 0.746094 -0.125 0.835938 -0.5 C 0.925781 -0.875 0.976562 -1.167969 0.988281 -1.382812 C 0.996094 -1.59375 1.003906 -2.449219 1.003906 -3.949219 C 0.820312 -3.746094 0.628906 -3.554688 0.425781 -3.371094 L 0.363281 -3.464844 C 0.808594 -4.03125 1.140625 -4.5625 1.351562 -5.058594 C 1.566406 -5.554688 1.710938 -5.976562 1.792969 -6.320312 M 1.367188 -2.765625 L 1.367188 -1.761719 L 2.066406 -1.761719 L 2.066406 -2.765625 L 1.367188 -2.765625 M 1.367188 -3.917969 L 1.367188 -2.945312 L 2.066406 -2.945312 L 2.066406 -3.917969 L 1.367188 -3.917969 M 2.429688 -3.917969 L 2.429688 -2.945312 L 3.128906 -2.945312 L 3.128906 -3.917969 L 2.429688 -3.917969 M 2.429688 -2.765625 L 2.429688 -1.761719 L 3.128906 -1.761719 L 3.128906 -2.765625 L 2.429688 -2.765625 M 1.761719 -5.011719 C 1.621094 -4.769531 1.457031 -4.507812 1.277344 -4.222656 L 1.429688 -4.101562 L 2.25 -4.101562 L 2.671875 -5.011719 Z "/>
</g>
<g id="glyph-0-1">
<path d="M 1.640625 -5.652344 L 1.640625 -4.769531 L 3.070312 -4.769531 L 3.070312 -5.652344 L 1.640625 -5.652344 M 1.640625 -4.585938 L 1.640625 -3.738281 L 3.070312 -3.738281 L 3.070312 -4.585938 L 1.640625 -4.585938 M 3.464844 -5.589844 C 3.464844 -4.660156 3.472656 -3.960938 3.492188 -3.492188 L 3.070312 -3.28125 L 3.070312 -3.554688 L 1.640625 -3.554688 L 1.640625 -3.371094 L 1.214844 -3.21875 C 1.234375 -3.6875 1.246094 -4.171875 1.246094 -4.679688 C 1.246094 -5.183594 1.234375 -5.652344 1.214844 -6.074219 L 1.640625 -5.832031 L 3.007812 -5.832031 L 3.21875 -6.136719 L 3.675781 -5.773438 L 3.464844 -5.589844 M 1.335938 -1.15625 C 1.558594 -0.871094 1.84375 -0.617188 2.1875 -0.394531 L 2.1875 -2.703125 L 1.550781 -2.703125 C 1.285156 -2.703125 1.042969 -2.671875 0.820312 -2.613281 L 0.546875 -2.886719 L 3.21875 -2.886719 L 3.585938 -3.25 L 4.070312 -2.703125 L 2.582031 -2.703125 L 2.582031 -1.640625 L 3.160156 -1.640625 L 3.492188 -1.976562 L 3.949219 -1.457031 L 2.582031 -1.457031 L 2.582031 -0.273438 C 2.988281 -0.0898438 3.679688 0.00390625 4.664062 0.015625 C 5.644531 0.0234375 6.550781 -0.0195312 7.382812 -0.121094 L 7.382812 0 C 6.996094 0.140625 6.804688 0.304688 6.804688 0.484375 C 5.082031 0.507812 3.964844 0.464844 3.449219 0.363281 C 2.933594 0.261719 2.523438 0.125 2.21875 -0.046875 C 1.914062 -0.21875 1.601562 -0.527344 1.277344 -0.972656 C 1.03125 -0.242188 0.738281 0.3125 0.394531 0.699219 L 0.304688 0.636719 C 0.546875 0.210938 0.734375 -0.289062 0.867188 -0.867188 C 0.996094 -1.441406 1.074219 -1.953125 1.09375 -2.398438 L 1.703125 -2.097656 C 1.539062 -2.035156 1.417969 -1.722656 1.335938 -1.15625 M 6.804688 -3.039062 C 6.804688 -2.875 6.816406 -2.5625 6.835938 -2.097656 L 6.410156 -1.882812 L 6.410156 -4.558594 L 4.648438 -4.558594 L 4.648438 -2.035156 L 4.222656 -1.792969 C 4.242188 -2.21875 4.253906 -2.738281 4.253906 -3.355469 C 4.253906 -3.976562 4.242188 -4.515625 4.222656 -4.980469 L 4.648438 -4.738281 L 5.042969 -4.738281 C 5.125 -5.042969 5.175781 -5.335938 5.195312 -5.621094 L 4.832031 -5.621094 C 4.566406 -5.621094 4.324219 -5.589844 4.101562 -5.527344 L 3.828125 -5.800781 L 6.472656 -5.800781 L 6.835938 -6.167969 L 7.320312 -5.621094 L 5.710938 -5.621094 C 5.628906 -5.5 5.457031 -5.207031 5.195312 -4.738281 L 6.347656 -4.738281 L 6.5625 -5.011719 L 7.019531 -4.679688 L 6.804688 -4.496094 L 6.804688 -3.039062 M 5.253906 -4.101562 L 5.925781 -3.765625 L 5.679688 -3.554688 C 5.679688 -2.703125 5.628906 -2.113281 5.527344 -1.777344 C 5.429688 -1.441406 5.230469 -1.132812 4.9375 -0.851562 C 4.644531 -0.566406 4.210938 -0.324219 3.644531 -0.121094 L 3.585938 -0.210938 C 4.191406 -0.535156 4.613281 -0.871094 4.84375 -1.214844 C 5.078125 -1.558594 5.210938 -1.980469 5.242188 -2.476562 C 5.269531 -2.972656 5.277344 -3.515625 5.253906 -4.101562 M 5.621094 -1.730469 L 5.679688 -1.824219 C 6.472656 -1.457031 6.902344 -1.214844 6.972656 -1.09375 C 7.042969 -0.972656 7.078125 -0.871094 7.078125 -0.789062 C 7.078125 -0.707031 7.058594 -0.613281 7.019531 -0.5 C 6.976562 -0.390625 6.9375 -0.335938 6.894531 -0.335938 C 6.855469 -0.335938 6.785156 -0.433594 6.683594 -0.636719 C 6.523438 -0.921875 6.167969 -1.285156 5.621094 -1.730469 Z "/>
</g>
<g id="glyph-0-2">
<path d="M 2.125 -6.199219 L 2.1875 -6.289062 C 2.59375 -6.066406 2.894531 -5.863281 3.097656 -5.679688 C 3.300781 -5.5 3.402344 -5.328125 3.402344 -5.164062 C 3.402344 -5.0625 3.367188 -4.953125 3.296875 -4.832031 C 3.226562 -4.707031 3.179688 -4.648438 3.160156 -4.648438 C 3.078125 -4.648438 2.988281 -4.789062 2.886719 -5.074219 C 2.722656 -5.480469 2.472656 -5.851562 2.125 -6.199219 M 4.101562 -4.253906 C 4.082031 -3.726562 4.050781 -3.179688 4.011719 -2.613281 L 6.320312 -2.613281 L 6.773438 -3.070312 L 7.414062 -2.429688 L 4.40625 -2.429688 C 4.585938 -1.902344 4.910156 -1.398438 5.378906 -0.910156 C 5.84375 -0.425781 6.523438 -0.0625 7.414062 0.183594 L 7.414062 0.273438 C 7.089844 0.292969 6.867188 0.425781 6.746094 0.667969 C 6.199219 0.386719 5.695312 0.00390625 5.242188 -0.472656 C 4.785156 -0.945312 4.445312 -1.601562 4.222656 -2.429688 L 3.980469 -2.429688 C 3.796875 -1.679688 3.40625 -1.039062 2.808594 -0.5 C 2.210938 0.0351562 1.429688 0.457031 0.457031 0.757812 L 0.425781 0.636719 C 1.457031 0.191406 2.199219 -0.296875 2.644531 -0.835938 C 3.089844 -1.371094 3.382812 -1.902344 3.523438 -2.429688 L 1.429688 -2.429688 C 1.164062 -2.429688 0.921875 -2.398438 0.699219 -2.339844 L 0.425781 -2.613281 L 3.554688 -2.613281 C 3.59375 -3.058594 3.617188 -3.605469 3.617188 -4.253906 L 1.824219 -4.253906 C 1.558594 -4.253906 1.316406 -4.222656 1.09375 -4.160156 L 0.820312 -4.433594 L 4.253906 -4.433594 C 4.414062 -4.71875 4.566406 -5.046875 4.707031 -5.421875 C 4.851562 -5.796875 4.953125 -6.105469 5.011719 -6.347656 L 5.742188 -5.863281 L 5.378906 -5.710938 C 5.03125 -5.183594 4.730469 -4.757812 4.464844 -4.433594 L 6.046875 -4.433594 L 6.472656 -4.859375 L 7.078125 -4.253906 Z "/>
</g>
<g id="glyph-0-3">
<path d="M 5.652344 -5.132812 L 5.652344 -4.433594 L 6.347656 -4.433594 L 6.347656 -5.132812 L 5.652344 -5.132812 M 5.652344 -4.253906 L 5.652344 -3.492188 L 6.347656 -3.492188 L 6.347656 -4.253906 L 5.652344 -4.253906 M 3.917969 -5.011719 L 3.28125 -3.34375 L 3.796875 -3.34375 L 4.070312 -3.617188 L 4.433594 -3.25 L 4.222656 -3.070312 C 4.101562 -1.914062 3.910156 -1.132812 3.644531 -0.730469 C 3.96875 -0.363281 4.359375 -0.140625 4.816406 -0.0625 C 5.269531 0.0195312 5.671875 0.0625 6.015625 0.0625 C 6.320312 0.0625 6.796875 0.03125 7.441406 -0.03125 L 7.441406 0.0898438 C 7.140625 0.152344 6.96875 0.292969 6.925781 0.515625 C 5.875 0.496094 5.117188 0.425781 4.664062 0.304688 C 4.207031 0.183594 3.816406 -0.0703125 3.492188 -0.457031 C 3.046875 0.03125 2.472656 0.425781 1.761719 0.730469 L 1.730469 0.609375 C 2.378906 0.242188 2.894531 -0.203125 3.28125 -0.730469 C 3.039062 -1.253906 2.875 -1.800781 2.796875 -2.371094 L 2.886719 -2.429688 C 3.148438 -1.660156 3.332031 -1.207031 3.433594 -1.0625 C 3.617188 -1.46875 3.757812 -2.167969 3.859375 -3.160156 L 3.28125 -3.160156 L 3.070312 -2.945312 L 2.734375 -3.3125 L 2.976562 -3.464844 L 3.554688 -5.105469 C 3.332031 -5.105469 3.109375 -5.074219 2.886719 -5.011719 L 2.613281 -5.285156 L 3.523438 -5.285156 L 3.796875 -5.558594 L 4.160156 -5.195312 L 3.917969 -5.011719 M 5.285156 -0.121094 C 5.285156 -0.667969 5.285156 -1.0625 5.285156 -1.304688 L 5.011719 -1.304688 C 4.75 -1.304688 4.507812 -1.277344 4.285156 -1.214844 L 4.011719 -1.488281 L 5.285156 -1.488281 L 5.285156 -2.339844 L 5.226562 -2.339844 C 4.960938 -2.339844 4.71875 -2.308594 4.496094 -2.25 L 4.222656 -2.523438 L 5.285156 -2.523438 L 5.285156 -3.3125 C 5.105469 -3.3125 4.902344 -3.28125 4.679688 -3.21875 L 4.40625 -3.492188 L 5.285156 -3.492188 L 5.285156 -4.253906 L 4.980469 -4.253906 C 4.71875 -4.253906 4.476562 -4.222656 4.253906 -4.160156 L 3.980469 -4.433594 L 5.285156 -4.433594 L 5.285156 -5.132812 C 5.0625 -5.132812 4.839844 -5.105469 4.617188 -5.042969 L 4.34375 -5.316406 L 5.285156 -5.316406 C 5.285156 -5.660156 5.277344 -5.996094 5.253906 -6.320312 L 5.894531 -6.046875 L 5.652344 -5.863281 L 5.652344 -5.316406 L 6.320312 -5.316406 L 6.5625 -5.558594 L 6.925781 -5.195312 L 6.714844 -5.042969 L 6.714844 -4.433594 L 6.773438 -4.433594 L 7.046875 -4.707031 L 7.472656 -4.253906 L 6.714844 -4.253906 C 6.714844 -3.828125 6.722656 -3.484375 6.746094 -3.21875 L 6.347656 -3.070312 L 6.347656 -3.3125 L 5.652344 -3.3125 L 5.652344 -2.523438 L 6.347656 -2.523438 L 6.652344 -2.824219 L 7.109375 -2.339844 L 5.652344 -2.339844 L 5.652344 -1.488281 L 6.5625 -1.488281 L 6.867188 -1.792969 L 7.320312 -1.304688 L 5.652344 -1.304688 C 5.652344 -0.882812 5.660156 -0.546875 5.679688 -0.304688 L 5.285156 -0.121094 M 1.730469 -0.484375 L 2.582031 -1.003906 L 2.644531 -0.910156 C 2.054688 -0.363281 1.679688 0.03125 1.519531 0.273438 L 1.214844 -0.152344 C 1.296875 -0.253906 1.335938 -0.414062 1.335938 -0.636719 L 1.335938 -2.25 L 1.304688 -2.25 C 1.042969 -2.25 0.800781 -2.21875 0.578125 -2.15625 L 0.304688 -2.429688 L 1.335938 -2.429688 L 1.335938 -3.644531 L 0.730469 -3.644531 C 0.609375 -3.503906 0.484375 -3.363281 0.363281 -3.21875 L 0.273438 -3.28125 C 0.78125 -4.132812 1.15625 -5.144531 1.398438 -6.320312 L 1.976562 -6.015625 L 1.730469 -5.800781 C 1.609375 -5.519531 1.507812 -5.253906 1.429688 -5.011719 L 2.035156 -5.011719 L 2.339844 -5.316406 L 2.796875 -4.832031 L 1.367188 -4.832031 C 1.164062 -4.425781 0.980469 -4.089844 0.820312 -3.828125 L 1.882812 -3.828125 L 2.1875 -4.132812 L 2.644531 -3.644531 L 1.730469 -3.644531 L 1.730469 -2.429688 L 2.003906 -2.429688 L 2.308594 -2.734375 L 2.765625 -2.25 L 1.730469 -2.25 Z "/>
</g>
<g id="glyph-0-4">
<path d="M 1.882812 -0.820312 C 2.003906 -0.738281 2.0625 -0.601562 2.050781 -0.410156 C 2.039062 -0.21875 1.964844 -0.0820312 1.824219 0 C 1.679688 0.0820312 1.578125 0.121094 1.519531 0.121094 C 1.457031 0.121094 1.355469 0.0820312 1.214844 0 C 1.074219 -0.0820312 0.996094 -0.222656 0.988281 -0.425781 C 0.976562 -0.628906 1.039062 -0.765625 1.167969 -0.835938 C 1.300781 -0.90625 1.417969 -0.941406 1.519531 -0.941406 C 1.640625 -0.941406 1.761719 -0.902344 1.882812 -0.820312 M 1.882812 -2.660156 C 2.023438 -2.585938 2.097656 -2.445312 2.097656 -2.234375 C 2.097656 -2.019531 2.015625 -1.878906 1.851562 -1.808594 C 1.691406 -1.738281 1.578125 -1.703125 1.519531 -1.703125 C 1.417969 -1.703125 1.300781 -1.746094 1.167969 -1.839844 C 1.039062 -1.929688 0.976562 -2.070312 0.988281 -2.261719 C 0.996094 -2.457031 1.074219 -2.585938 1.214844 -2.660156 C 1.355469 -2.730469 1.46875 -2.765625 1.550781 -2.765625 C 1.628906 -2.765625 1.742188 -2.730469 1.882812 -2.660156 Z "/>
</g>
<g id="glyph-0-5">
<path d="M 4.101562 -0.910156 C 4.101562 -0.464844 4.113281 -0.0195312 4.132812 0.425781 L 3.617188 0.636719 C 3.636719 0.0117188 3.644531 -0.558594 3.644531 -1.0625 L 3.644531 -2.824219 L 1.277344 -2.824219 C 1.011719 -2.824219 0.769531 -2.796875 0.546875 -2.734375 L 0.273438 -3.007812 L 3.644531 -3.007812 L 3.644531 -5.558594 L 1.945312 -5.558594 C 1.679688 -5.558594 1.4375 -5.527344 1.214844 -5.46875 L 0.941406 -5.742188 L 5.894531 -5.742188 L 6.320312 -6.167969 L 6.925781 -5.558594 L 4.101562 -5.558594 L 4.101562 -3.007812 L 6.320312 -3.007812 L 6.773438 -3.464844 L 7.414062 -2.824219 L 4.101562 -2.824219 L 4.101562 -0.910156 M 5.773438 -5.253906 L 6.410156 -4.769531 C 6.25 -4.769531 6.027344 -4.585938 5.742188 -4.222656 C 5.4375 -3.859375 5.113281 -3.515625 4.769531 -3.191406 L 4.679688 -3.25 C 5.207031 -3.960938 5.570312 -4.628906 5.773438 -5.253906 M 1.578125 -5.105469 C 2.167969 -4.679688 2.511719 -4.390625 2.613281 -4.238281 C 2.714844 -4.085938 2.765625 -3.949219 2.765625 -3.828125 C 2.765625 -3.765625 2.75 -3.691406 2.71875 -3.601562 C 2.6875 -3.507812 2.617188 -3.421875 2.507812 -3.34375 C 2.394531 -3.261719 2.289062 -3.402344 2.1875 -3.765625 C 2.085938 -4.113281 1.851562 -4.535156 1.488281 -5.042969 Z "/>
</g>
<g id="glyph-0-6">
<path d="M 4.859375 -6.257812 L 5.40625 -5.863281 C 5.265625 -5.824219 5.03125 -5.609375 4.707031 -5.226562 L 6.347656 -5.226562 L 6.59375 -5.5 L 7.046875 -5.042969 L 6.773438 -4.921875 C 6.449219 -4.535156 6.15625 -4.210938 5.894531 -3.949219 C 5.628906 -3.6875 5.304688 -3.421875 4.921875 -3.160156 C 4.535156 -2.894531 4.039062 -2.652344 3.433594 -2.429688 L 3.371094 -2.523438 C 3.695312 -2.683594 4.015625 -2.871094 4.328125 -3.082031 C 4.644531 -3.296875 4.972656 -3.566406 5.316406 -3.890625 C 5.660156 -4.210938 6.003906 -4.597656 6.347656 -5.042969 L 4.617188 -5.042969 L 4.40625 -4.859375 C 4.667969 -4.738281 4.859375 -4.621094 4.980469 -4.511719 C 5.105469 -4.398438 5.164062 -4.304688 5.164062 -4.222656 C 5.164062 -4.140625 5.128906 -4.050781 5.058594 -3.949219 C 4.988281 -3.847656 4.933594 -3.796875 4.890625 -3.796875 C 4.851562 -3.796875 4.808594 -3.867188 4.769531 -4.011719 C 4.6875 -4.253906 4.546875 -4.507812 4.34375 -4.769531 C 4.082031 -4.507812 3.796875 -4.261719 3.492188 -4.039062 L 3.433594 -4.132812 C 3.777344 -4.476562 4.066406 -4.824219 4.296875 -5.179688 C 4.53125 -5.535156 4.71875 -5.894531 4.859375 -6.257812 M 5.5 -3.371094 L 6.015625 -2.917969 C 5.773438 -2.816406 5.5 -2.613281 5.195312 -2.308594 L 6.652344 -2.308594 L 6.894531 -2.582031 L 7.351562 -2.125 L 7.109375 -2.003906 C 6.90625 -1.703125 6.632812 -1.351562 6.289062 -0.957031 C 5.945312 -0.5625 5.472656 -0.21875 4.875 0.0742188 C 4.277344 0.371094 3.492188 0.578125 2.523438 0.699219 L 2.523438 0.609375 C 3.167969 0.464844 3.730469 0.289062 4.207031 0.0742188 C 4.683594 -0.136719 5.117188 -0.40625 5.515625 -0.730469 C 5.910156 -1.054688 6.289062 -1.519531 6.652344 -2.125 L 5.074219 -2.125 L 4.496094 -1.671875 C 4.800781 -1.488281 4.988281 -1.339844 5.058594 -1.230469 C 5.128906 -1.117188 5.164062 -1.023438 5.164062 -0.941406 C 5.164062 -0.839844 5.125 -0.746094 5.042969 -0.652344 C 4.960938 -0.5625 4.910156 -0.515625 4.890625 -0.515625 C 4.832031 -0.515625 4.789062 -0.609375 4.769531 -0.789062 C 4.707031 -1.054688 4.585938 -1.316406 4.40625 -1.578125 C 3.917969 -1.234375 3.515625 -0.980469 3.191406 -0.820312 L 3.128906 -0.910156 C 3.492188 -1.15625 3.917969 -1.519531 4.40625 -2.003906 C 4.890625 -2.492188 5.253906 -2.945312 5.5 -3.371094 M 0.578125 -5.316406 C 1.0625 -5.398438 1.527344 -5.515625 1.976562 -5.664062 C 2.421875 -5.816406 2.734375 -5.964844 2.917969 -6.105469 L 3.34375 -5.589844 C 3.039062 -5.550781 2.683594 -5.5 2.277344 -5.4375 L 2.277344 -3.917969 L 2.765625 -3.917969 L 3.097656 -4.253906 L 3.585938 -3.738281 L 2.277344 -3.738281 L 2.277344 -3.070312 C 2.621094 -2.925781 2.875 -2.789062 3.039062 -2.660156 C 3.199219 -2.527344 3.28125 -2.398438 3.28125 -2.277344 C 3.28125 -2.175781 3.253906 -2.074219 3.207031 -1.976562 C 3.15625 -1.875 3.109375 -1.824219 3.070312 -1.824219 C 3.007812 -1.824219 2.945312 -1.902344 2.886719 -2.066406 C 2.785156 -2.308594 2.582031 -2.59375 2.277344 -2.917969 C 2.277344 -1.175781 2.289062 -0.0390625 2.308594 0.484375 L 1.824219 0.730469 C 1.84375 -0.0390625 1.851562 -1.175781 1.851562 -2.671875 C 1.429688 -1.800781 0.953125 -1.113281 0.425781 -0.609375 L 0.363281 -0.667969 C 0.707031 -1.175781 1.007812 -1.703125 1.261719 -2.25 C 1.515625 -2.796875 1.703125 -3.292969 1.824219 -3.738281 L 1.335938 -3.738281 C 1.074219 -3.738281 0.832031 -3.707031 0.609375 -3.644531 L 0.335938 -3.917969 L 1.882812 -3.917969 L 1.882812 -5.347656 C 1.277344 -5.265625 0.839844 -5.214844 0.578125 -5.195312 Z "/>
</g>
<g id="glyph-0-7">
<path d="M 4.222656 -4.648438 C 3.859375 -4.019531 3.492188 -3.515625 3.128906 -3.128906 L 3.039062 -3.191406 C 3.644531 -4.101562 4.082031 -5.164062 4.34375 -6.378906 L 5.074219 -5.984375 L 4.769531 -5.800781 C 4.609375 -5.4375 4.457031 -5.113281 4.3125 -4.832031 L 6.5 -4.832031 L 6.773438 -5.132812 L 7.261719 -4.679688 L 6.988281 -4.496094 C 6.925781 -2.023438 6.882812 -0.644531 6.851562 -0.347656 C 6.820312 -0.0546875 6.722656 0.183594 6.5625 0.363281 C 6.398438 0.546875 6.15625 0.679688 5.832031 0.757812 C 5.851562 0.476562 5.507812 0.234375 4.800781 0.03125 L 4.832031 -0.121094 C 5.378906 0 5.726562 0.0546875 5.878906 0.046875 C 6.03125 0.0351562 6.148438 -0.0117188 6.226562 -0.0898438 C 6.308594 -0.171875 6.363281 -0.335938 6.394531 -0.578125 C 6.425781 -0.820312 6.472656 -2.175781 6.53125 -4.648438 L 4.222656 -4.648438 M 3.617188 -1.488281 L 5.347656 -1.550781 C 5.226562 -1.894531 5.09375 -2.1875 4.953125 -2.429688 L 5.042969 -2.492188 C 5.550781 -2.023438 5.832031 -1.695312 5.894531 -1.503906 C 5.953125 -1.3125 5.929688 -1.160156 5.816406 -1.046875 C 5.707031 -0.9375 5.628906 -0.882812 5.589844 -0.882812 C 5.550781 -0.882812 5.515625 -0.921875 5.484375 -1.003906 C 5.453125 -1.082031 5.417969 -1.226562 5.378906 -1.429688 C 5.074219 -1.386719 4.734375 -1.328125 4.359375 -1.246094 C 3.984375 -1.164062 3.714844 -1.054688 3.554688 -0.910156 L 3.21875 -1.488281 C 3.441406 -1.527344 3.679688 -1.847656 3.933594 -2.445312 C 4.1875 -3.042969 4.34375 -3.515625 4.40625 -3.859375 L 5.042969 -3.464844 L 4.769531 -3.34375 C 4.304688 -2.429688 3.917969 -1.8125 3.617188 -1.488281 M 2.097656 -3.402344 C 2.097656 -1.195312 2.105469 0.132812 2.125 0.578125 L 1.640625 0.757812 C 1.660156 -0.152344 1.671875 -1.429688 1.671875 -3.070312 C 1.386719 -2.296875 1.011719 -1.601562 0.546875 -0.972656 L 0.425781 -1.03125 C 0.972656 -2.003906 1.386719 -3.117188 1.671875 -4.375 L 0.910156 -4.375 L 0.636719 -4.3125 L 0.394531 -4.558594 L 1.671875 -4.558594 C 1.671875 -5.226562 1.660156 -5.832031 1.640625 -6.378906 L 2.339844 -6.015625 L 2.097656 -5.800781 L 2.097656 -4.558594 L 2.460938 -4.558594 L 2.824219 -4.921875 L 3.371094 -4.375 L 2.097656 -4.375 L 2.097656 -3.585938 C 2.582031 -3.320312 2.882812 -3.125 2.992188 -2.992188 C 3.105469 -2.859375 3.160156 -2.734375 3.160156 -2.613281 C 3.160156 -2.53125 3.132812 -2.433594 3.082031 -2.324219 C 3.03125 -2.210938 2.988281 -2.15625 2.945312 -2.15625 C 2.886719 -2.15625 2.804688 -2.269531 2.703125 -2.492188 C 2.5625 -2.835938 2.359375 -3.140625 2.097656 -3.402344 Z "/>
</g>
<g id="glyph-0-8">
<path d="M 3.707031 -2.371094 L 3.707031 -0.972656 L 5.894531 -0.972656 L 5.894531 -2.371094 L 3.707031 -2.371094 M 3.28125 -0.304688 C 3.300781 -0.628906 3.3125 -1.027344 3.3125 -1.503906 C 3.3125 -1.980469 3.300781 -2.421875 3.28125 -2.824219 L 3.707031 -2.550781 L 5.863281 -2.550781 L 6.074219 -2.855469 L 6.53125 -2.492188 L 6.289062 -2.277344 C 6.289062 -1.550781 6.300781 -0.992188 6.320312 -0.609375 L 5.894531 -0.394531 L 5.894531 -0.789062 L 3.707031 -0.789062 L 3.707031 -0.484375 L 3.28125 -0.304688 M 3.464844 -5.832031 L 4.101562 -5.5 L 3.859375 -5.347656 L 3.617188 -4.859375 L 4.558594 -4.859375 C 4.558594 -5.488281 4.546875 -5.964844 4.527344 -6.289062 L 5.195312 -5.984375 L 4.953125 -5.800781 L 4.953125 -4.859375 L 5.742188 -4.859375 L 6.136719 -5.253906 L 6.683594 -4.679688 L 4.953125 -4.679688 L 4.953125 -3.464844 L 6.347656 -3.464844 L 6.773438 -3.890625 L 7.320312 -3.28125 L 3.3125 -3.28125 C 3.046875 -3.28125 2.804688 -3.25 2.582031 -3.191406 L 2.308594 -3.464844 L 4.558594 -3.464844 L 4.558594 -4.679688 L 3.554688 -4.679688 C 3.3125 -4.292969 3.039062 -3.9375 2.734375 -3.617188 L 2.644531 -3.675781 C 2.886719 -4.082031 3.082031 -4.496094 3.234375 -4.921875 C 3.386719 -5.347656 3.464844 -5.652344 3.464844 -5.832031 M 0.941406 -5.894531 L 1.03125 -5.953125 C 1.335938 -5.792969 1.574219 -5.644531 1.746094 -5.515625 C 1.917969 -5.382812 1.996094 -5.234375 1.976562 -5.074219 C 1.953125 -4.910156 1.902344 -4.796875 1.824219 -4.722656 C 1.742188 -4.652344 1.691406 -4.617188 1.671875 -4.617188 C 1.589844 -4.617188 1.519531 -4.71875 1.457031 -4.921875 C 1.378906 -5.183594 1.207031 -5.507812 0.941406 -5.894531 M 1.882812 -0.941406 C 2.085938 -0.699219 2.347656 -0.492188 2.671875 -0.320312 C 2.996094 -0.148438 3.363281 -0.046875 3.765625 -0.015625 C 4.171875 0.015625 4.546875 0.03125 4.890625 0.03125 C 5.601562 0.03125 6.460938 -0.0117188 7.472656 -0.0898438 L 7.472656 0.03125 C 7.128906 0.113281 6.9375 0.273438 6.894531 0.515625 C 5.945312 0.496094 5.167969 0.476562 4.570312 0.457031 C 3.976562 0.433594 3.484375 0.363281 3.097656 0.242188 C 2.714844 0.121094 2.410156 -0.0703125 2.1875 -0.335938 C 1.964844 -0.578125 1.796875 -0.714844 1.6875 -0.746094 C 1.574219 -0.773438 1.414062 -0.667969 1.199219 -0.425781 C 0.988281 -0.183594 0.839844 0.03125 0.757812 0.210938 L 0.273438 -0.183594 C 0.617188 -0.527344 1.023438 -0.789062 1.488281 -0.972656 L 1.488281 -3.371094 L 1.304688 -3.371094 C 1.042969 -3.371094 0.800781 -3.34375 0.578125 -3.28125 L 0.304688 -3.554688 L 1.429688 -3.554688 L 1.640625 -3.859375 L 2.15625 -3.464844 L 1.882812 -3.28125 Z "/>
</g>
</g>
</defs>
<g fill="rgb(100%, 100%, 0%)" fill-opacity="1">
<use xlink:href="#glyph-0-0" x="30" y="26.683594"/>
<use xlink:href="#glyph-0-1" x="38" y="26.683594"/>
<use xlink:href="#glyph-0-2" x="46" y="26.683594"/>
<use xlink:href="#glyph-0-3" x="54" y="26.683594"/>
<use xlink:href="#glyph-0-4" x="62" y="26.683594"/>
<use xlink:href="#glyph-0-5" x="70" y="26.683594"/>
<use xlink:href="#glyph-0-6" x="78" y="26.683594"/>
<use xlink:href="#glyph-0-7" x="86" y="26.683594"/>
<use xlink:href="#glyph-0-8" x="94" y="26.683594"/>
</g>
</svg>
