<?xml version="1.0" encoding="UTF-8"?>
<svg xmlns="http://www.w3.org/2000/svg" xmlns:xlink="http://www.w3.org/1999/xlink" width="1920" height="1080" viewBox="0 0 1920 1080">
<defs>
<g>
<g id="glyph-0-0">
<path d="M 6.804688 -5.527344 L 7.019531 -5.285156 L 1.730469 -0.304688 L 6.5625 -0.304688 L 6.5625 0 L 0.972656 0 Z "/>
</g>
<g id="glyph-0-1">
<path d="M 4.101562 -0.910156 C 4.101562 -0.464844 4.113281 -0.0195312 4.132812 0.425781 L 3.617188 0.636719 C 3.636719 0.0117188 3.644531 -0.558594 3.644531 -1.0625 L 3.644531 -2.824219 L 1.277344 -2.824219 C 1.011719 -2.824219 0.769531 -2.796875 0.546875 -2.734375 L 0.273438 -3.007812 L 3.644531 -3.007812 L 3.644531 -5.558594 L 1.945312 -5.558594 C 1.679688 -5.558594 1.4375 -5.527344 1.214844 -5.46875 L 0.941406 -5.742188 L 5.894531 -5.742188 L 6.320312 -6.167969 L 6.925781 -5.558594 L 4.101562 -5.558594 L 4.101562 -3.007812 L 6.320312 -3.007812 L 6.773438 -3.464844 L 7.414062 -2.824219 L 4.101562 -2.824219 L 4.101562 -0.910156 M 5.773438 -5.253906 L 6.410156 -4.769531 C 6.25 -4.769531 6.027344 -4.585938 5.742188 -4.222656 C 5.4375 -3.859375 5.113281 -3.515625 4.769531 -3.191406 L 4.679688 -3.25 C 5.207031 -3.960938 5.570312 -4.628906 5.773438 -5.253906 M 1.578125 -5.105469 C 2.167969 -4.679688 2.511719 -4.390625 2.613281 -4.238281 C 2.714844 -4.085938 2.765625 -3.949219 2.765625 -3.828125 C 2.765625 -3.765625 2.75 -3.691406 2.71875 -3.601562 C 2.6875 -3.507812 2.617188 -3.421875 2.507812 -3.34375 C 2.394531 -3.261719 2.289062 -3.402344 2.1875 -3.765625 C 2.085938 -4.113281 1.851562 -4.535156 1.488281 -5.042969 Z "/>
</g>
<g id="glyph-0-2">
<path d="M 4.859375 -6.257812 L 5.40625 -5.863281 C 5.265625 -5.824219 5.03125 -5.609375 4.707031 -5.226562 L 6.347656 -5.226562 L 6.59375 -5.5 L 7.046875 -5.042969 L 6.773438 -4.921875 C 6.449219 -4.535156 6.15625 -4.210938 5.894531 -3.949219 C 5.628906 -3.6875 5.304688 -3.421875 4.921875 -3.160156 C 4.535156 -2.894531 4.039062 -2.652344 3.433594 -2.429688 L 3.371094 -2.523438 C 3.695312 -2.683594 4.015625 -2.871094 4.328125 -3.082031 C 4.644531 -3.296875 4.972656 -3.566406 5.316406 -3.890625 C 5.660156 -4.210938 6.003906 -4.597656 6.347656 -5.042969 L 4.617188 -5.042969 L 4.40625 -4.859375 C 4.667969 -4.738281 4.859375 -4.621094 4.980469 -4.511719 C 5.105469 -4.398438 5.164062 -4.304688 5.164062 -4.222656 C 5.164062 -4.140625 5.128906 -4.050781 5.058594 -3.949219 C 4.988281 -3.847656 4.933594 -3.796875 4.890625 -3.796875 C 4.851562 -3.796875 4.808594 -3.867188 4.769531 -4.011719 C 4.6875 -4.253906 4.546875 -4.507812 4.34375 -4.769531 C 4.082031 -4.507812 3.796875 -4.261719 3.492188 -4.039062 L 3.433594 -4.132812 C 3.777344 -4.476562 4.066406 -4.824219 4.296875 -5.179688 C 4.53125 -5.535156 4.71875 -5.894531 4.859375 -6.257812 M 5.5 -3.371094 L 6.015625 -2.917969 C 5.773438 -2.816406 5.5 -2.613281 5.195312 -2.308594 L 6.652344 -2.308594 L 6.894531 -2.582031 L 7.351562 -2.125 L 7.109375 -2.003906 C 6.90625 -1.703125 6.632812 -1.351562 6.289062 -0.957031 C 5.945312 -0.5625 5.472656 -0.21875 4.875 0.0742188 C 4.277344 0.371094 3.492188 0.578125 2.523438 0.699219 L 2.523438 0.609375 C 3.167969 0.464844 3.730469 0.289062 4.207031 0.0742188 C 4.683594 -0.136719 5.117188 -0.40625 5.515625 -0.730469 C 5.910156 -1.054688 6.289062 -1.519531 6.652344 -2.125 L 5.074219 -2.125 L 4.496094 -1.671875 C 4.800781 -1.488281 4.988281 -1.339844 5.058594 -1.230469 C 5.128906 -1.117188 5.164062 -1.023438 5.164062 -0.941406 C 5.164062 -0.839844 5.125 -0.746094 5.042969 -0.652344 C 4.960938 -0.5625 4.910156 -0.515625 4.890625 -0.515625 C 4.832031 -0.515625 4.789062 -0.609375 4.769531 -0.789062 C 4.707031 -1.054688 4.585938 -1.316406 4.40625 -1.578125 C 3.917969 -1.234375 3.515625 -0.980469 3.191406 -0.820312 L 3.128906 -0.910156 C 3.492188 -1.15625 3.917969 -1.519531 4.40625 -2.003906 C 4.890625 -2.492188 5.253906 -2.945312 5.5 -3.371094 M 0.578125 -5.316406 C 1.0625 -5.398438 1.527344 -5.515625 1.976562 -5.664062 C 2.421875 -5.816406 2.734375 -5.964844 2.917969 -6.105469 L 3.34375 -5.589844 C 3.039062 -5.550781 2.683594 -5.5 2.277344 -5.4375 L 2.277344 -3.917969 L 2.765625 -3.917969 L 3.097656 -4.253906 L 3.585938 -3.738281 L 2.277344 -3.738281 L 2.277344 -3.070312 C 2.621094 -2.925781 2.875 -2.789062 3.039062 -2.660156 C 3.199219 -2.527344 3.28125 -2.398438 3.28125 -2.277344 C 3.28125 -2.175781 3.253906 -2.074219 3.207031 -1.976562 C 3.15625 -1.875 3.109375 -1.824219 3.070312 -1.824219 C 3.007812 -1.824219 2.945312 -1.902344 2.886719 -2.066406 C 2.785156 -2.308594 2.582031 -2.59375 2.277344 -2.917969 C 2.277344 -1.175781 2.289062 -0.0390625 2.308594 0.484375 L 1.824219 0.730469 C 1.84375 -0.0390625 1.851562 -1.175781 1.851562 -2.671875 C 1.429688 -1.800781 0.953125 -1.113281 0.425781 -0.609375 L 0.363281 -0.667969 C 0.707031 -1.175781 1.007812 -1.703125 1.261719 -2.25 C 1.515625 -2.796875 1.703125 -3.292969 1.824219 -3.738281 L 1.335938 -3.738281 C 1.074219 -3.738281 0.832031 -3.707031 0.609375 -3.644531 L 0.335938 -3.917969 L 1.882812 -3.917969 L 1.882812 -5.347656 C 1.277344 -5.265625 0.839844 -5.214844 0.578125 -5.195312 Z "/>
</g>
<g id="glyph-0-3">
<path d="M 4.832031 -4.191406 C 4.832031 -5.285156 4.820312 -5.996094 4.800781 -6.320312 L 5.558594 -5.984375 L 5.253906 -5.773438 L 5.253906 -4.191406 L 6.136719 -4.191406 L 6.5625 -4.617188 L 7.167969 -4.011719 L 5.253906 -4.011719 L 5.253906 -2.339844 L 6.046875 -2.339844 L 6.441406 -2.734375 L 7.019531 -2.15625 L 5.253906 -2.15625 L 5.253906 -0.03125 L 6.441406 -0.03125 L 6.867188 -0.457031 L 7.472656 0.152344 L 3.492188 0.152344 C 3.230469 0.152344 2.988281 0.183594 2.765625 0.242188 L 2.492188 -0.03125 L 4.832031 -0.03125 L 4.832031 -2.15625 L 4.191406 -2.15625 C 3.929688 -2.15625 3.6875 -2.125 3.464844 -2.066406 L 3.191406 -2.339844 L 4.832031 -2.339844 L 4.832031 -4.011719 L 3.585938 -4.011719 C 3.320312 -3.363281 3.027344 -2.835938 2.703125 -2.429688 L 2.613281 -2.492188 C 2.855469 -2.976562 3.058594 -3.519531 3.21875 -4.117188 C 3.382812 -4.714844 3.484375 -5.207031 3.523438 -5.589844 L 4.222656 -5.253906 L 3.949219 -5.074219 L 3.644531 -4.191406 L 4.832031 -4.191406 M 1.0625 -4.40625 C 1.125 -3.796875 1.132812 -3.417969 1.09375 -3.265625 C 1.054688 -3.113281 0.988281 -3.011719 0.894531 -2.960938 C 0.804688 -2.910156 0.730469 -2.886719 0.667969 -2.886719 C 0.628906 -2.886719 0.570312 -2.902344 0.5 -2.933594 C 0.429688 -2.960938 0.394531 -2.988281 0.394531 -3.007812 C 0.394531 -3.089844 0.464844 -3.210938 0.609375 -3.371094 C 0.789062 -3.59375 0.902344 -3.9375 0.941406 -4.40625 L 1.0625 -4.40625 M 1.914062 -4.800781 C 2.238281 -4.679688 2.472656 -4.566406 2.613281 -4.464844 C 2.753906 -4.363281 2.816406 -4.234375 2.796875 -4.070312 C 2.773438 -3.910156 2.722656 -3.796875 2.644531 -3.738281 C 2.5625 -3.675781 2.480469 -3.757812 2.398438 -3.980469 C 2.296875 -4.203125 2.136719 -4.425781 1.914062 -4.648438 L 1.914062 -0.609375 C 1.914062 -0.261719 1.925781 0.113281 1.945312 0.515625 L 1.457031 0.730469 C 1.476562 0.140625 1.488281 -0.386719 1.488281 -0.851562 L 1.488281 -5.132812 C 1.488281 -5.480469 1.476562 -5.894531 1.457031 -6.378906 L 2.1875 -6.046875 L 1.914062 -5.832031 Z "/>
</g>
<g id="glyph-0-4">
<path d="M 0.335938 0.515625 C 1.0625 -0.660156 1.40625 -2.046875 1.367188 -3.644531 C 1.367188 -4.660156 1.355469 -5.367188 1.335938 -5.773438 L 1.761719 -5.5 C 2.976562 -5.601562 3.9375 -5.726562 4.648438 -5.878906 C 5.355469 -6.03125 5.824219 -6.175781 6.046875 -6.320312 L 6.5625 -5.800781 C 5.914062 -5.742188 5.246094 -5.671875 4.558594 -5.589844 C 3.847656 -5.507812 2.917969 -5.429688 1.761719 -5.347656 L 1.761719 -3.34375 C 1.824219 -1.800781 1.367188 -0.496094 0.394531 0.578125 L 0.335938 0.515625 M 4.132812 -4.433594 C 4.132812 -4.757812 4.121094 -5.074219 4.101562 -5.378906 L 4.738281 -5.105469 L 4.527344 -4.921875 L 4.527344 -4.433594 L 5.984375 -4.433594 L 6.378906 -4.800781 L 6.894531 -4.253906 L 4.527344 -4.253906 L 4.527344 -3.402344 L 5.773438 -3.402344 L 5.984375 -3.707031 L 6.472656 -3.34375 L 6.226562 -3.128906 C 6.226562 -2.097656 6.238281 -1.398438 6.257812 -1.03125 L 5.832031 -0.820312 L 5.832031 -3.21875 L 2.917969 -3.21875 L 2.917969 -0.882812 L 2.492188 -0.699219 C 2.511719 -1.304688 2.523438 -1.847656 2.523438 -2.324219 C 2.523438 -2.800781 2.511719 -3.242188 2.492188 -3.644531 L 2.917969 -3.402344 L 4.132812 -3.402344 L 4.132812 -4.253906 L 2.855469 -4.253906 C 2.632812 -4.253906 2.410156 -4.222656 2.1875 -4.160156 L 1.914062 -4.433594 L 4.132812 -4.433594 M 1.488281 0.667969 C 1.953125 0.507812 2.40625 0.289062 2.839844 0.015625 C 3.277344 -0.257812 3.585938 -0.570312 3.765625 -0.925781 C 3.949219 -1.28125 4.050781 -1.636719 4.070312 -1.988281 C 4.089844 -2.34375 4.101562 -2.652344 4.101562 -2.917969 L 4.769531 -2.582031 L 4.527344 -2.371094 C 4.484375 -1.4375 4.238281 -0.75 3.78125 -0.304688 C 3.328125 0.140625 2.570312 0.496094 1.519531 0.757812 L 1.488281 0.667969 M 4.40625 -0.882812 C 5.316406 -0.636719 5.925781 -0.449219 6.226562 -0.320312 C 6.53125 -0.1875 6.695312 -0.0664062 6.714844 0.046875 C 6.734375 0.15625 6.746094 0.242188 6.746094 0.304688 C 6.746094 0.40625 6.730469 0.492188 6.699219 0.5625 C 6.667969 0.632812 6.644531 0.667969 6.621094 0.667969 C 6.5625 0.667969 6.480469 0.617188 6.378906 0.515625 C 6.21875 0.335938 5.996094 0.148438 5.710938 -0.046875 C 5.429688 -0.238281 4.980469 -0.476562 4.375 -0.757812 Z "/>
</g>
<g id="glyph-1-0">
<path d="M 4.496094 -4.058594 C 4.496094 -3.777344 4.441406 -3.53125 4.332031 -3.3125 C 4.222656 -3.097656 4.070312 -2.917969 3.875 -2.777344 C 3.679688 -2.632812 3.46875 -2.53125 3.238281 -2.464844 C 3.007812 -2.398438 2.765625 -2.367188 2.507812 -2.367188 L 1.902344 -2.367188 L 1.902344 -0.734375 C 1.902344 -0.644531 1.917969 -0.566406 1.945312 -0.5 C 1.976562 -0.433594 2.035156 -0.382812 2.125 -0.34375 C 2.171875 -0.328125 2.253906 -0.3125 2.367188 -0.296875 C 2.484375 -0.28125 2.589844 -0.273438 2.683594 -0.269531 L 2.683594 0 L 0.371094 0 L 0.371094 -0.269531 C 0.433594 -0.273438 0.519531 -0.285156 0.636719 -0.296875 C 0.75 -0.308594 0.832031 -0.324219 0.878906 -0.34375 C 0.953125 -0.378906 1.007812 -0.425781 1.042969 -0.488281 C 1.078125 -0.554688 1.09375 -0.632812 1.09375 -0.734375 L 1.09375 -4.621094 C 1.09375 -4.710938 1.082031 -4.789062 1.054688 -4.859375 C 1.03125 -4.933594 0.972656 -4.984375 0.878906 -5.019531 C 0.78125 -5.054688 0.683594 -5.078125 0.589844 -5.089844 C 0.496094 -5.105469 0.414062 -5.113281 0.34375 -5.117188 L 0.34375 -5.390625 L 2.804688 -5.390625 C 3.308594 -5.390625 3.714844 -5.269531 4.027344 -5.027344 C 4.339844 -4.785156 4.496094 -4.460938 4.496094 -4.058594 M 3.34375 -3.140625 C 3.429688 -3.261719 3.484375 -3.386719 3.511719 -3.519531 C 3.539062 -3.648438 3.554688 -3.765625 3.554688 -3.871094 C 3.554688 -4.015625 3.539062 -4.160156 3.503906 -4.308594 C 3.46875 -4.460938 3.410156 -4.589844 3.328125 -4.703125 C 3.238281 -4.820312 3.121094 -4.914062 2.976562 -4.980469 C 2.832031 -5.042969 2.652344 -5.078125 2.4375 -5.078125 L 1.902344 -5.078125 L 1.902344 -2.695312 L 2.289062 -2.695312 C 2.5625 -2.695312 2.785156 -2.738281 2.957031 -2.824219 C 3.128906 -2.910156 3.253906 -3.015625 3.34375 -3.140625 Z "/>
</g>
<g id="glyph-1-1">
<path d="M 5.394531 0 L 3.15625 0 L 3.15625 -0.269531 C 3.355469 -0.28125 3.519531 -0.308594 3.648438 -0.34375 C 3.777344 -0.382812 3.84375 -0.429688 3.84375 -0.484375 C 3.84375 -0.507812 3.839844 -0.535156 3.835938 -0.570312 C 3.832031 -0.601562 3.824219 -0.632812 3.8125 -0.65625 L 3.367188 -1.863281 L 1.476562 -1.863281 C 1.40625 -1.6875 1.347656 -1.53125 1.300781 -1.402344 C 1.257812 -1.269531 1.21875 -1.148438 1.183594 -1.035156 C 1.148438 -0.929688 1.125 -0.839844 1.113281 -0.769531 C 1.101562 -0.703125 1.09375 -0.648438 1.09375 -0.605469 C 1.09375 -0.503906 1.175781 -0.425781 1.335938 -0.367188 C 1.492188 -0.3125 1.671875 -0.28125 1.875 -0.269531 L 1.875 0 L -0.15625 0 L -0.15625 -0.269531 C -0.0898438 -0.273438 -0.0078125 -0.289062 0.0898438 -0.3125 C 0.191406 -0.335938 0.269531 -0.371094 0.335938 -0.410156 C 0.433594 -0.476562 0.515625 -0.550781 0.570312 -0.625 C 0.625 -0.699219 0.679688 -0.800781 0.734375 -0.933594 C 1.003906 -1.609375 1.300781 -2.371094 1.628906 -3.210938 C 1.957031 -4.054688 2.246094 -4.804688 2.503906 -5.464844 L 2.804688 -5.464844 L 4.601562 -0.816406 C 4.640625 -0.71875 4.683594 -0.636719 4.730469 -0.578125 C 4.78125 -0.515625 4.847656 -0.457031 4.933594 -0.398438 C 4.992188 -0.363281 5.066406 -0.332031 5.160156 -0.308594 C 5.253906 -0.285156 5.332031 -0.273438 5.394531 -0.269531 L 5.394531 0 M 3.226562 -2.203125 L 2.410156 -4.292969 L 1.609375 -2.203125 Z "/>
</g>
<g id="glyph-1-2">
<path d="M 4.191406 -2.511719 C 4.347656 -2.402344 4.480469 -2.265625 4.582031 -2.09375 C 4.6875 -1.921875 4.738281 -1.710938 4.738281 -1.464844 C 4.738281 -1.214844 4.683594 -0.996094 4.574219 -0.8125 C 4.46875 -0.628906 4.324219 -0.476562 4.152344 -0.355469 C 3.980469 -0.242188 3.789062 -0.152344 3.574219 -0.0898438 C 3.363281 -0.03125 3.140625 0 2.914062 0 L 0.359375 0 L 0.359375 -0.269531 C 0.421875 -0.273438 0.511719 -0.285156 0.625 -0.300781 C 0.742188 -0.320312 0.828125 -0.339844 0.878906 -0.359375 C 0.957031 -0.394531 1.011719 -0.445312 1.042969 -0.503906 C 1.078125 -0.5625 1.09375 -0.640625 1.09375 -0.734375 L 1.09375 -4.605469 C 1.09375 -4.691406 1.078125 -4.769531 1.050781 -4.835938 C 1.019531 -4.898438 0.964844 -4.953125 0.878906 -4.992188 C 0.800781 -5.03125 0.714844 -5.0625 0.621094 -5.082031 C 0.527344 -5.101562 0.449219 -5.113281 0.386719 -5.117188 L 0.386719 -5.390625 L 2.875 -5.390625 C 3.066406 -5.390625 3.25 -5.371094 3.425781 -5.332031 C 3.601562 -5.292969 3.769531 -5.226562 3.929688 -5.128906 C 4.078125 -5.042969 4.203125 -4.921875 4.296875 -4.769531 C 4.394531 -4.617188 4.441406 -4.433594 4.441406 -4.214844 C 4.441406 -4.023438 4.410156 -3.855469 4.339844 -3.707031 C 4.273438 -3.558594 4.175781 -3.433594 4.050781 -3.328125 C 3.933594 -3.226562 3.800781 -3.140625 3.652344 -3.070312 C 3.5 -3 3.339844 -2.945312 3.164062 -2.910156 L 3.164062 -2.875 C 3.316406 -2.855469 3.492188 -2.820312 3.683594 -2.757812 C 3.871094 -2.699219 4.042969 -2.617188 4.191406 -2.511719 M 3.273438 -3.324219 C 3.367188 -3.433594 3.433594 -3.550781 3.46875 -3.679688 C 3.503906 -3.808594 3.523438 -3.964844 3.523438 -4.140625 C 3.523438 -4.4375 3.441406 -4.671875 3.28125 -4.839844 C 3.121094 -5.007812 2.863281 -5.09375 2.515625 -5.09375 C 2.433594 -5.09375 2.332031 -5.089844 2.210938 -5.085938 C 2.089844 -5.082031 1.984375 -5.078125 1.902344 -5.078125 L 1.902344 -3.003906 L 2.382812 -3.003906 C 2.589844 -3.003906 2.769531 -3.03125 2.917969 -3.082031 C 3.0625 -3.136719 3.183594 -3.21875 3.273438 -3.324219 M 3.800781 -1.601562 C 3.800781 -1.921875 3.695312 -2.183594 3.480469 -2.386719 C 3.265625 -2.59375 2.960938 -2.695312 2.5625 -2.695312 C 2.402344 -2.695312 2.265625 -2.695312 2.152344 -2.691406 C 2.042969 -2.6875 1.957031 -2.683594 1.902344 -2.679688 L 1.902344 -0.78125 C 1.902344 -0.621094 1.96875 -0.503906 2.097656 -0.421875 C 2.226562 -0.339844 2.40625 -0.300781 2.636719 -0.300781 C 3.011719 -0.300781 3.300781 -0.410156 3.5 -0.628906 C 3.703125 -0.851562 3.800781 -1.175781 3.800781 -1.601562 Z "/>
</g>
<g id="glyph-1-3">
</g>
<g id="glyph-1-4">
<path d="M 4.417969 -2.59375 L 0.585938 -2.59375 L 0.585938 -3.070312 L 4.417969 -3.070312 L 4.417969 -2.59375 M 4.417969 -1.179688 L 0.585938 -1.179688 L 0.585938 -1.65625 L 4.417969 -1.65625 Z "/>
</g>
<g id="glyph-1-5">
<path d="M 4.722656 -4.75 C 4.960938 -4.503906 5.148438 -4.203125 5.28125 -3.851562 C 5.417969 -3.503906 5.484375 -3.113281 5.484375 -2.6875 C 5.484375 -2.347656 5.4375 -2.035156 5.351562 -1.746094 C 5.261719 -1.457031 5.136719 -1.199219 4.976562 -0.972656 C 4.820312 -0.753906 4.636719 -0.566406 4.425781 -0.402344 C 4.210938 -0.242188 3.972656 -0.113281 3.710938 -0.0195312 C 3.714844 0.257812 3.816406 0.507812 4.011719 0.730469 C 4.207031 0.953125 4.414062 1.0625 4.640625 1.0625 C 4.847656 1.0625 5.007812 1.054688 5.117188 1.042969 C 5.222656 1.027344 5.3125 1.015625 5.386719 1.003906 L 5.386719 1.300781 C 5.269531 1.335938 5.128906 1.371094 4.957031 1.40625 C 4.785156 1.445312 4.550781 1.460938 4.246094 1.460938 C 4.074219 1.460938 3.910156 1.4375 3.75 1.386719 C 3.585938 1.339844 3.4375 1.257812 3.308594 1.152344 C 3.175781 1.042969 3.066406 0.902344 2.980469 0.738281 C 2.890625 0.570312 2.835938 0.363281 2.808594 0.121094 C 2.449219 0.109375 2.113281 0.03125 1.804688 -0.113281 C 1.496094 -0.253906 1.230469 -0.449219 1.011719 -0.699219 C 0.789062 -0.949219 0.613281 -1.242188 0.488281 -1.582031 C 0.367188 -1.917969 0.304688 -2.289062 0.304688 -2.6875 C 0.304688 -3.125 0.371094 -3.515625 0.507812 -3.859375 C 0.644531 -4.203125 0.835938 -4.5 1.074219 -4.75 C 1.3125 -5 1.589844 -5.1875 1.90625 -5.320312 C 2.21875 -5.453125 2.550781 -5.519531 2.894531 -5.519531 C 3.25 -5.519531 3.585938 -5.449219 3.902344 -5.316406 C 4.21875 -5.183594 4.492188 -4.992188 4.722656 -4.75 M 4.160156 -0.929688 C 4.300781 -1.160156 4.402344 -1.421875 4.46875 -1.710938 C 4.53125 -2.003906 4.566406 -2.328125 4.566406 -2.6875 C 4.566406 -3.058594 4.527344 -3.398438 4.457031 -3.707031 C 4.382812 -4.015625 4.277344 -4.277344 4.140625 -4.496094 C 4 -4.710938 3.824219 -4.878906 3.617188 -5 C 3.40625 -5.121094 3.164062 -5.179688 2.894531 -5.179688 C 2.589844 -5.179688 2.332031 -5.109375 2.117188 -4.972656 C 1.90625 -4.832031 1.734375 -4.644531 1.597656 -4.414062 C 1.472656 -4.191406 1.378906 -3.929688 1.316406 -3.628906 C 1.253906 -3.332031 1.222656 -3.019531 1.222656 -2.6875 C 1.222656 -2.324219 1.253906 -1.996094 1.320312 -1.703125 C 1.386719 -1.40625 1.492188 -1.148438 1.632812 -0.917969 C 1.769531 -0.695312 1.941406 -0.523438 2.148438 -0.398438 C 2.355469 -0.273438 2.605469 -0.207031 2.894531 -0.207031 C 3.164062 -0.207031 3.410156 -0.273438 3.625 -0.398438 C 3.84375 -0.523438 4.023438 -0.703125 4.160156 -0.929688 Z "/>
</g>
<g id="glyph-1-6">
<path d="M 5.53125 -2.660156 C 5.53125 -2.203125 5.445312 -1.804688 5.273438 -1.46875 C 5.101562 -1.132812 4.878906 -0.855469 4.601562 -0.640625 C 4.324219 -0.425781 4.011719 -0.265625 3.664062 -0.160156 C 3.316406 -0.0546875 2.960938 0 2.589844 0 L 0.355469 0 L 0.355469 -0.269531 C 0.429688 -0.269531 0.527344 -0.277344 0.644531 -0.289062 C 0.761719 -0.304688 0.839844 -0.320312 0.878906 -0.339844 C 0.953125 -0.371094 1.007812 -0.417969 1.042969 -0.484375 C 1.078125 -0.546875 1.09375 -0.625 1.09375 -0.71875 L 1.09375 -4.605469 C 1.09375 -4.691406 1.078125 -4.769531 1.050781 -4.839844 C 1.019531 -4.90625 0.964844 -4.960938 0.878906 -5 C 0.796875 -5.039062 0.714844 -5.066406 0.621094 -5.085938 C 0.53125 -5.101562 0.453125 -5.113281 0.386719 -5.117188 L 0.386719 -5.390625 L 2.742188 -5.390625 C 3.066406 -5.390625 3.386719 -5.339844 3.699219 -5.238281 C 4.011719 -5.140625 4.285156 -5.003906 4.519531 -4.835938 C 4.835938 -4.609375 5.082031 -4.3125 5.261719 -3.949219 C 5.441406 -3.585938 5.53125 -3.15625 5.53125 -2.660156 M 4.601562 -2.664062 C 4.601562 -3.027344 4.554688 -3.351562 4.457031 -3.644531 C 4.363281 -3.9375 4.222656 -4.191406 4.035156 -4.410156 C 3.863281 -4.617188 3.648438 -4.78125 3.394531 -4.898438 C 3.136719 -5.019531 2.855469 -5.078125 2.542969 -5.078125 C 2.441406 -5.078125 2.324219 -5.074219 2.191406 -5.070312 C 2.0625 -5.066406 1.964844 -5.066406 1.902344 -5.0625 L 1.902344 -0.921875 C 1.902344 -0.691406 1.96875 -0.53125 2.105469 -0.445312 C 2.238281 -0.355469 2.445312 -0.3125 2.722656 -0.3125 C 3.042969 -0.3125 3.324219 -0.367188 3.566406 -0.480469 C 3.804688 -0.597656 4 -0.753906 4.152344 -0.957031 C 4.308594 -1.167969 4.421875 -1.414062 4.496094 -1.695312 C 4.566406 -1.972656 4.601562 -2.296875 4.601562 -2.664062 Z "/>
</g>
<g id="glyph-1-7">
<path d="M 2.742188 0.128906 C 2.421875 0.128906 2.113281 0.0664062 1.820312 -0.0625 C 1.523438 -0.1875 1.265625 -0.371094 1.035156 -0.609375 C 0.8125 -0.847656 0.632812 -1.136719 0.496094 -1.480469 C 0.363281 -1.824219 0.296875 -2.210938 0.296875 -2.640625 C 0.296875 -3.070312 0.363281 -3.460938 0.492188 -3.8125 C 0.625 -4.164062 0.808594 -4.464844 1.039062 -4.71875 C 1.269531 -4.96875 1.542969 -5.164062 1.855469 -5.300781 C 2.167969 -5.4375 2.503906 -5.507812 2.859375 -5.507812 C 3.125 -5.507812 3.367188 -5.472656 3.582031 -5.40625 C 3.796875 -5.34375 4 -5.25 4.195312 -5.128906 L 4.351562 -5.390625 L 4.65625 -5.390625 L 4.691406 -3.46875 L 4.378906 -3.46875 C 4.339844 -3.65625 4.277344 -3.859375 4.195312 -4.078125 C 4.117188 -4.296875 4.019531 -4.480469 3.910156 -4.632812 C 3.789062 -4.804688 3.648438 -4.941406 3.480469 -5.039062 C 3.3125 -5.136719 3.121094 -5.183594 2.90625 -5.183594 C 2.660156 -5.183594 2.433594 -5.128906 2.222656 -5.019531 C 2.011719 -4.910156 1.828125 -4.75 1.675781 -4.539062 C 1.527344 -4.332031 1.414062 -4.070312 1.328125 -3.753906 C 1.246094 -3.4375 1.203125 -3.085938 1.203125 -2.695312 C 1.203125 -2.351562 1.246094 -2.035156 1.335938 -1.746094 C 1.421875 -1.457031 1.546875 -1.207031 1.707031 -0.988281 C 1.871094 -0.773438 2.0625 -0.605469 2.28125 -0.484375 C 2.503906 -0.359375 2.75 -0.300781 3.023438 -0.300781 C 3.230469 -0.300781 3.417969 -0.332031 3.589844 -0.398438 C 3.761719 -0.460938 3.910156 -0.546875 4.039062 -0.652344 C 4.164062 -0.765625 4.273438 -0.890625 4.371094 -1.03125 C 4.46875 -1.175781 4.546875 -1.328125 4.605469 -1.496094 L 4.890625 -1.359375 C 4.671875 -0.824219 4.386719 -0.445312 4.027344 -0.214844 C 3.667969 0.015625 3.238281 0.128906 2.742188 0.128906 Z "/>
</g>
<g id="glyph-1-8">
<path d="M 2.660156 1.246094 C 1.972656 1.160156 1.429688 0.8125 1.035156 0.203125 C 0.640625 -0.410156 0.445312 -1.230469 0.445312 -2.261719 C 0.445312 -3.3125 0.640625 -4.144531 1.035156 -4.761719 C 1.429688 -5.375 1.972656 -5.726562 2.660156 -5.816406 L 2.660156 -5.503906 C 2.175781 -5.414062 1.804688 -5.105469 1.554688 -4.570312 C 1.300781 -4.039062 1.171875 -3.269531 1.171875 -2.253906 C 1.171875 -1.292969 1.296875 -0.542969 1.546875 -0.00390625 C 1.792969 0.53125 2.164062 0.84375 2.660156 0.933594 Z "/>
</g>
<g id="glyph-1-9">
<path d="M 2.472656 -2.261719 C 2.472656 -1.230469 2.273438 -0.410156 1.882812 0.203125 C 1.488281 0.8125 0.945312 1.160156 0.253906 1.246094 L 0.253906 0.933594 C 0.75 0.84375 1.121094 0.53125 1.371094 -0.00390625 C 1.617188 -0.542969 1.742188 -1.292969 1.742188 -2.253906 C 1.742188 -3.269531 1.617188 -4.039062 1.363281 -4.570312 C 1.109375 -5.105469 0.742188 -5.414062 0.253906 -5.503906 L 0.253906 -5.816406 C 0.945312 -5.726562 1.488281 -5.375 1.882812 -4.761719 C 2.273438 -4.144531 2.472656 -3.3125 2.472656 -2.261719 Z "/>
</g>
</g>
</defs>
<g fill="rgb(100%, 100%, 0%)" fill-opacity="1">
<use xlink:href="#glyph-0-0" x="30" y="27.131836"/>
</g>
<g fill="rgb(100%, 100%, 0%)" fill-opacity="1">
<use xlink:href="#glyph-1-0" x="38" y="27.131836"/>
<use xlink:href="#glyph-1-1" x="43" y="27.131836"/>
<use xlink:href="#glyph-1-2" x="48" y="27.131836"/>
<use xlink:href="#glyph-1-3" x="53" y="27.131836"/>
<use xlink:href="#glyph-1-4" x="55" y="27.131836"/>
<use xlink:href="#glyph-1-3" x="60" y="27.131836"/>
</g>
<g fill="rgb(100%, 100%, 0%)" fill-opacity="1">
<use xlink:href="#glyph-0-0" x="62" y="27.131836"/>
</g>
<g fill="rgb(100%, 100%, 0%)" fill-opacity="1">
<use xlink:href="#glyph-1-5" x="70" y="27.131836"/>
<use xlink:href="#glyph-1-6" x="76" y="27.131836"/>
<use xlink:href="#glyph-1-7" x="82" y="27.131836"/>
<use xlink:href="#glyph-1-3" x="87" y="27.131836"/>
<use xlink:href="#glyph-1-8" x="89" y="27.131836"/>
</g>
<g fill="rgb(100%, 100%, 0%)" fill-opacity="1">
<use xlink:href="#glyph-0-1" x="92" y="27.131836"/>
<use xlink:href="#glyph-0-2" x="100" y="27.131836"/>
<use xlink:href="#glyph-0-3" x="108" y="27.131836"/>
<use xlink:href="#glyph-0-4" x="116" y="27.131836"/>
</g>
<g fill="rgb(100%, 100%, 0%)" fill-opacity="1">
<use xlink:href="#glyph-1-9" x="124" y="27.131836"/>
</g>
</svg>
