<?xml version="1.0" encoding="UTF-8"?>
<svg xmlns="http://www.w3.org/2000/svg" xmlns:xlink="http://www.w3.org/1999/xlink" width="1920" height="1080" viewBox="0 0 1920 1080">
<defs>
<g>
<g id="glyph-0-0">
<path d="M 2.351562 0.109375 C 2.078125 0.109375 1.8125 0.0546875 1.558594 -0.0507812 C 1.308594 -0.160156 1.082031 -0.316406 0.886719 -0.519531 C 0.695312 -0.726562 0.542969 -0.972656 0.425781 -1.269531 C 0.3125 -1.5625 0.253906 -1.894531 0.253906 -2.265625 C 0.253906 -2.632812 0.308594 -2.96875 0.421875 -3.269531 C 0.535156 -3.570312 0.691406 -3.828125 0.890625 -4.046875 C 1.089844 -4.261719 1.320312 -4.425781 1.589844 -4.542969 C 1.859375 -4.660156 2.148438 -4.71875 2.453125 -4.71875 C 2.679688 -4.71875 2.886719 -4.691406 3.070312 -4.636719 C 3.253906 -4.578125 3.429688 -4.5 3.597656 -4.398438 L 3.730469 -4.617188 L 3.992188 -4.617188 L 4.019531 -2.972656 L 3.753906 -2.972656 C 3.71875 -3.132812 3.667969 -3.308594 3.597656 -3.496094 C 3.527344 -3.683594 3.445312 -3.839844 3.351562 -3.972656 C 3.25 -4.117188 3.125 -4.234375 2.984375 -4.316406 C 2.839844 -4.402344 2.675781 -4.445312 2.492188 -4.445312 C 2.28125 -4.445312 2.085938 -4.398438 1.90625 -4.304688 C 1.722656 -4.210938 1.566406 -4.070312 1.433594 -3.890625 C 1.308594 -3.714844 1.210938 -3.488281 1.140625 -3.21875 C 1.066406 -2.945312 1.03125 -2.644531 1.03125 -2.308594 C 1.03125 -2.015625 1.070312 -1.742188 1.144531 -1.496094 C 1.21875 -1.25 1.324219 -1.035156 1.464844 -0.847656 C 1.601562 -0.664062 1.765625 -0.519531 1.957031 -0.414062 C 2.148438 -0.308594 2.359375 -0.257812 2.59375 -0.257812 C 2.769531 -0.257812 2.929688 -0.285156 3.078125 -0.339844 C 3.222656 -0.394531 3.351562 -0.46875 3.460938 -0.558594 C 3.570312 -0.65625 3.664062 -0.765625 3.746094 -0.886719 C 3.828125 -1.007812 3.898438 -1.140625 3.949219 -1.28125 L 4.191406 -1.164062 C 4.007812 -0.707031 3.757812 -0.378906 3.449219 -0.183594 C 3.144531 0.0117188 2.777344 0.109375 2.351562 0.109375 Z "/>
</g>
<g id="glyph-0-1">
<path d="M 2.632812 0 L 0.4375 0 L 0.4375 -0.230469 C 0.503906 -0.234375 0.605469 -0.246094 0.742188 -0.257812 C 0.882812 -0.273438 0.976562 -0.289062 1.027344 -0.304688 C 1.097656 -0.324219 1.148438 -0.359375 1.183594 -0.410156 C 1.21875 -0.457031 1.238281 -0.53125 1.238281 -0.628906 L 1.238281 -2.914062 L 0.425781 -2.914062 L 0.425781 -3.1875 L 0.605469 -3.1875 C 0.839844 -3.1875 1.050781 -3.230469 1.234375 -3.316406 C 1.421875 -3.402344 1.554688 -3.496094 1.632812 -3.597656 L 1.902344 -3.597656 C 1.898438 -3.457031 1.890625 -3.289062 1.882812 -3.101562 C 1.878906 -2.914062 1.875 -2.742188 1.875 -2.59375 L 1.875 -0.664062 C 1.875 -0.589844 1.890625 -0.519531 1.925781 -0.460938 C 1.960938 -0.402344 2.007812 -0.355469 2.070312 -0.328125 C 2.125 -0.304688 2.21875 -0.28125 2.347656 -0.265625 C 2.476562 -0.242188 2.570312 -0.234375 2.632812 -0.230469 Z "/>
</g>
</g>
</defs>
<g fill="rgb(100%, 100%, 100%)" fill-opacity="1">
<use xlink:href="#glyph-0-0" x="30" y="26.112305"/>
<use xlink:href="#glyph-0-1" x="34" y="26.112305"/>
</g>
</svg>
