<?xml version="1.0" encoding="UTF-8"?>
<svg xmlns="http://www.w3.org/2000/svg" xmlns:xlink="http://www.w3.org/1999/xlink" width="1920" height="1080" viewBox="0 0 1920 1080">
<defs>
<g>
<g id="glyph-0-0">
<path d="M 8.125 -6.980469 C 8.125 -9.132812 8.109375 -10.433594 8.074219 -10.886719 L 9.269531 -10.3125 L 8.855469 -10 L 8.855469 -6.980469 L 10.519531 -6.980469 L 10.9375 -7.5 L 11.769531 -6.824219 L 11.355469 -6.457031 L 11.355469 -0.261719 C 11.355469 0.46875 10.972656 0.972656 10.207031 1.25 C 10.140625 0.695312 9.582031 0.328125 8.542969 0.15625 L 8.542969 -0.0507812 C 9.269531 -0.015625 9.808594 0.015625 10.15625 0.0507812 C 10.46875 0.0507812 10.625 -0.140625 10.625 -0.519531 L 10.625 -2.605469 L 6.355469 -2.605469 L 6.355469 0.832031 L 5.574219 1.199219 C 5.609375 0.226562 5.625 -1.320312 5.625 -3.4375 C 5.625 -5.554688 5.609375 -6.890625 5.574219 -7.449219 L 6.355469 -6.980469 L 8.125 -6.980469 M 5.261719 -10.105469 C 6.199219 -9.617188 6.746094 -9.261719 6.902344 -9.035156 C 7.058594 -8.8125 7.136719 -8.628906 7.136719 -8.488281 C 7.136719 -8.316406 7.074219 -8.125 6.953125 -7.917969 C 6.832031 -7.707031 6.734375 -7.605469 6.667969 -7.605469 C 6.5625 -7.605469 6.457031 -7.761719 6.355469 -8.074219 C 6.179688 -8.558594 5.78125 -9.203125 5.15625 -10 L 5.261719 -10.105469 M 11.09375 -10.3125 L 12.03125 -9.53125 C 11.789062 -9.496094 11.457031 -9.253906 11.042969 -8.800781 C 10.589844 -8.351562 10.085938 -7.882812 9.53125 -7.394531 L 9.375 -7.5 C 10.3125 -8.785156 10.886719 -9.722656 11.09375 -10.3125 M 6.355469 -4.6875 L 6.355469 -2.917969 L 10.625 -2.917969 L 10.625 -4.6875 L 6.355469 -4.6875 M 6.355469 -6.667969 L 6.355469 -5 L 10.625 -5 L 10.625 -6.667969 L 6.355469 -6.667969 M 5.261719 -8.332031 C 4.078125 -4.722656 3.4375 -2.691406 3.332031 -2.238281 C 3.230469 -1.789062 3.175781 -1.25 3.175781 -0.625 C 3.175781 0 3.195312 0.46875 3.230469 0.78125 C 3.230469 0.953125 3.160156 1.042969 3.019531 1.042969 C 2.953125 1.042969 2.804688 0.980469 2.578125 0.859375 C 2.351562 0.738281 2.238281 0.539062 2.238281 0.261719 C 2.238281 0.015625 2.273438 -0.226562 2.34375 -0.46875 C 2.414062 -0.746094 2.449219 -1.007812 2.449219 -1.25 C 2.449219 -1.527344 2.359375 -1.734375 2.1875 -1.875 C 2.015625 -2.015625 1.597656 -2.152344 0.9375 -2.292969 L 0.9375 -2.5 C 1.703125 -2.429688 2.152344 -2.40625 2.292969 -2.421875 C 2.429688 -2.4375 2.605469 -2.59375 2.8125 -2.890625 C 3.019531 -3.1875 3.765625 -5.015625 5.050781 -8.386719 L 5.261719 -8.332031 M 0.886719 -7.394531 C 2.066406 -6.875 2.664062 -6.441406 2.683594 -6.09375 C 2.699219 -5.746094 2.65625 -5.496094 2.550781 -5.339844 C 2.449219 -5.183594 2.359375 -5.105469 2.292969 -5.105469 C 2.152344 -5.105469 2.03125 -5.261719 1.925781 -5.574219 C 1.71875 -6.023438 1.335938 -6.578125 0.78125 -7.238281 L 0.886719 -7.394531 M 2.136719 -10.3125 C 3.109375 -9.859375 3.636719 -9.53125 3.722656 -9.324219 C 3.8125 -9.113281 3.855469 -8.957031 3.855469 -8.855469 C 3.855469 -8.679688 3.785156 -8.5 3.644531 -8.308594 C 3.507812 -8.117188 3.421875 -8.019531 3.386719 -8.019531 C 3.28125 -8.019531 3.175781 -8.175781 3.074219 -8.488281 C 2.898438 -8.976562 2.550781 -9.53125 2.03125 -10.15625 Z "/>
</g>
<g id="glyph-0-1">
<path d="M 6.25 -7.761719 C 6.25 -9.011719 6.234375 -10.050781 6.199219 -10.886719 L 7.5 -10.3125 L 7.03125 -9.949219 L 7.03125 -7.761719 L 9.53125 -7.761719 L 10.261719 -8.488281 L 11.300781 -7.449219 L 7.03125 -7.449219 L 7.03125 -4.792969 L 10.519531 -4.792969 L 11.355469 -5.625 L 12.5 -4.480469 L 6.457031 -4.480469 L 7.394531 -3.855469 L 6.769531 -3.644531 C 6.457031 -3.332031 5.972656 -2.828125 5.3125 -2.136719 C 4.652344 -1.40625 3.992188 -0.816406 3.332031 -0.363281 L 9.894531 -0.417969 C 9.582031 -0.902344 8.957031 -1.546875 8.019531 -2.34375 L 8.175781 -2.5 C 9.425781 -1.875 10.269531 -1.363281 10.703125 -0.964844 C 11.136719 -0.5625 11.355469 -0.191406 11.355469 0.15625 C 11.355469 0.261719 11.300781 0.433594 11.199219 0.675781 C 11.09375 0.921875 11.007812 1.042969 10.9375 1.042969 C 10.832031 1.042969 10.746094 0.972656 10.675781 0.832031 C 10.503906 0.519531 10.3125 0.191406 10.105469 -0.15625 C 6.769531 0.0507812 4.808594 0.226562 4.21875 0.363281 C 3.628906 0.503906 3.210938 0.640625 2.96875 0.78125 L 2.292969 -0.417969 C 2.847656 -0.453125 3.53125 -0.921875 4.347656 -1.824219 C 5.164062 -2.726562 5.765625 -3.609375 6.144531 -4.480469 L 2.449219 -4.480469 C 1.996094 -4.480469 1.578125 -4.425781 1.199219 -4.324219 L 0.730469 -4.792969 L 6.25 -4.792969 L 6.25 -7.449219 L 3.855469 -7.449219 C 3.402344 -7.449219 2.984375 -7.394531 2.605469 -7.292969 L 2.136719 -7.761719 Z "/>
</g>
<g id="glyph-0-2">
<path d="M 3.230469 -1.40625 C 3.4375 -1.265625 3.53125 -1.03125 3.515625 -0.703125 C 3.5 -0.375 3.367188 -0.140625 3.125 0 C 2.882812 0.140625 2.707031 0.207031 2.605469 0.207031 C 2.5 0.207031 2.328125 0.140625 2.082031 0 C 1.839844 -0.140625 1.710938 -0.382812 1.691406 -0.730469 C 1.675781 -1.078125 1.78125 -1.3125 2.003906 -1.433594 C 2.230469 -1.554688 2.429688 -1.613281 2.605469 -1.613281 C 2.8125 -1.613281 3.019531 -1.546875 3.230469 -1.40625 M 3.230469 -4.558594 C 3.472656 -4.4375 3.59375 -4.191406 3.59375 -3.828125 C 3.59375 -3.464844 3.453125 -3.21875 3.175781 -3.097656 C 2.898438 -2.976562 2.707031 -2.917969 2.605469 -2.917969 C 2.429688 -2.917969 2.230469 -2.996094 2.003906 -3.152344 C 1.78125 -3.308594 1.675781 -3.550781 1.691406 -3.878906 C 1.710938 -4.210938 1.839844 -4.4375 2.082031 -4.558594 C 2.328125 -4.679688 2.515625 -4.738281 2.65625 -4.738281 C 2.796875 -4.738281 2.984375 -4.679688 3.230469 -4.558594 Z "/>
</g>
<g id="glyph-1-0">
<path d="M 6.652344 0 L 3.710938 0 L 3.710938 -0.429688 C 3.90625 -0.453125 4.074219 -0.472656 4.210938 -0.496094 C 4.347656 -0.515625 4.417969 -0.574219 4.417969 -0.664062 C 4.417969 -0.703125 4.394531 -0.765625 4.351562 -0.847656 C 4.308594 -0.929688 4.265625 -1.003906 4.222656 -1.074219 C 4.113281 -1.242188 3.964844 -1.46875 3.773438 -1.753906 C 3.585938 -2.039062 3.355469 -2.378906 3.078125 -2.773438 C 2.855469 -2.492188 2.644531 -2.21875 2.453125 -1.949219 C 2.261719 -1.683594 2.0625 -1.398438 1.855469 -1.101562 C 1.824219 -1.058594 1.792969 -1.003906 1.757812 -0.9375 C 1.726562 -0.871094 1.710938 -0.820312 1.710938 -0.78125 C 1.710938 -0.6875 1.773438 -0.605469 1.894531 -0.542969 C 2.019531 -0.480469 2.207031 -0.4375 2.453125 -0.417969 L 2.453125 0 L 0.078125 0 L 0.078125 -0.402344 C 0.375 -0.492188 0.609375 -0.59375 0.789062 -0.71875 C 0.972656 -0.84375 1.136719 -0.996094 1.289062 -1.179688 C 1.421875 -1.351562 1.613281 -1.59375 1.851562 -1.898438 C 2.09375 -2.203125 2.40625 -2.617188 2.789062 -3.140625 C 2.566406 -3.453125 2.296875 -3.839844 1.976562 -4.296875 C 1.660156 -4.753906 1.394531 -5.132812 1.1875 -5.4375 C 1.074219 -5.601562 0.945312 -5.734375 0.796875 -5.835938 C 0.652344 -5.9375 0.449219 -5.988281 0.183594 -5.988281 L 0.183594 -6.417969 L 2.976562 -6.417969 L 2.976562 -5.988281 C 2.835938 -5.988281 2.699219 -5.980469 2.566406 -5.964844 C 2.433594 -5.945312 2.363281 -5.90625 2.363281 -5.847656 C 2.363281 -5.808594 2.378906 -5.765625 2.402344 -5.714844 C 2.429688 -5.667969 2.460938 -5.617188 2.5 -5.558594 C 2.597656 -5.414062 2.746094 -5.183594 2.945312 -4.875 C 3.148438 -4.570312 3.367188 -4.242188 3.601562 -3.898438 C 3.753906 -4.109375 3.929688 -4.351562 4.132812 -4.628906 C 4.335938 -4.90625 4.519531 -5.171875 4.691406 -5.421875 C 4.707031 -5.453125 4.722656 -5.492188 4.742188 -5.535156 C 4.757812 -5.582031 4.769531 -5.628906 4.769531 -5.671875 C 4.769531 -5.761719 4.691406 -5.835938 4.542969 -5.886719 C 4.390625 -5.941406 4.25 -5.980469 4.113281 -6.003906 L 4.113281 -6.417969 L 6.484375 -6.417969 L 6.484375 -6.015625 C 6.148438 -5.929688 5.890625 -5.824219 5.703125 -5.707031 C 5.515625 -5.585938 5.359375 -5.449219 5.226562 -5.292969 C 5.085938 -5.113281 4.914062 -4.894531 4.71875 -4.636719 C 4.519531 -4.375 4.242188 -4.011719 3.886719 -3.542969 C 4.28125 -2.984375 4.601562 -2.53125 4.851562 -2.175781 C 5.097656 -1.820312 5.347656 -1.453125 5.597656 -1.074219 C 5.726562 -0.882812 5.863281 -0.730469 6.019531 -0.621094 C 6.171875 -0.511719 6.382812 -0.445312 6.652344 -0.429688 Z "/>
</g>
<g id="glyph-1-1">
<path d="M 5.859375 -3.191406 L 0.957031 -3.191406 L 0.957031 -3.914062 C 1.125 -4.195312 1.382812 -4.472656 1.730469 -4.746094 C 2.078125 -5.019531 2.496094 -5.308594 2.988281 -5.617188 C 3.140625 -5.714844 3.308594 -5.839844 3.492188 -6 C 3.675781 -6.15625 3.820312 -6.304688 3.917969 -6.4375 C 4.050781 -6.613281 4.148438 -6.792969 4.214844 -6.980469 C 4.28125 -7.171875 4.316406 -7.410156 4.316406 -7.695312 C 4.316406 -8.113281 4.210938 -8.429688 3.996094 -8.644531 C 3.785156 -8.863281 3.503906 -8.972656 3.15625 -8.972656 C 2.910156 -8.972656 2.699219 -8.929688 2.523438 -8.84375 C 2.347656 -8.757812 2.21875 -8.660156 2.140625 -8.546875 C 2.167969 -8.445312 2.195312 -8.324219 2.230469 -8.195312 C 2.261719 -8.0625 2.277344 -7.921875 2.277344 -7.78125 C 2.277344 -7.644531 2.21875 -7.527344 2.101562 -7.429688 C 1.980469 -7.328125 1.804688 -7.277344 1.574219 -7.277344 C 1.367188 -7.277344 1.21875 -7.347656 1.128906 -7.484375 C 1.039062 -7.621094 0.996094 -7.773438 0.996094 -7.941406 C 0.996094 -8.335938 1.222656 -8.6875 1.675781 -8.996094 C 2.128906 -9.304688 2.65625 -9.460938 3.253906 -9.460938 C 3.9375 -9.460938 4.492188 -9.296875 4.921875 -8.96875 C 5.351562 -8.640625 5.566406 -8.199219 5.566406 -7.648438 C 5.566406 -7.324219 5.515625 -7.039062 5.417969 -6.800781 C 5.320312 -6.558594 5.191406 -6.355469 5.03125 -6.183594 C 4.863281 -6.007812 4.671875 -5.851562 4.460938 -5.722656 C 4.253906 -5.59375 4.035156 -5.472656 3.808594 -5.363281 C 3.53125 -5.230469 3.191406 -5.050781 2.796875 -4.824219 C 2.398438 -4.597656 2.074219 -4.367188 1.816406 -4.128906 L 5.859375 -4.128906 Z "/>
</g>
<g id="glyph-1-2">
<path d="M 7 -2.996094 C 7 -2.546875 6.917969 -2.125 6.753906 -1.730469 C 6.589844 -1.335938 6.375 -1 6.101562 -0.722656 C 5.785156 -0.40625 5.433594 -0.171875 5.046875 -0.0195312 C 4.664062 0.132812 4.265625 0.207031 3.847656 0.207031 C 3.367188 0.207031 2.929688 0.121094 2.539062 -0.0585938 C 2.148438 -0.234375 1.816406 -0.488281 1.542969 -0.8125 C 1.265625 -1.144531 1.050781 -1.546875 0.898438 -2.023438 C 0.746094 -2.5 0.671875 -3.035156 0.671875 -3.628906 C 0.671875 -5.179688 1.132812 -6.484375 2.054688 -7.546875 C 2.976562 -8.609375 4.210938 -9.246094 5.761719 -9.460938 L 5.878906 -8.875 L 5.292969 -8.769531 C 4.351562 -8.464844 3.621094 -7.992188 3.109375 -7.351562 C 2.59375 -6.707031 2.261719 -5.929688 2.109375 -5.015625 C 2.484375 -5.339844 2.851562 -5.570312 3.214844 -5.703125 C 3.582031 -5.835938 3.964844 -5.90625 4.367188 -5.90625 C 5.09375 -5.90625 5.710938 -5.628906 6.226562 -5.074219 C 6.742188 -4.515625 7 -3.824219 7 -2.996094 M 5.585938 -2.824219 C 5.585938 -3.527344 5.425781 -4.09375 5.101562 -4.519531 C 4.777344 -4.945312 4.34375 -5.15625 3.800781 -5.15625 C 3.476562 -5.15625 3.171875 -5.09375 2.894531 -4.972656 C 2.613281 -4.851562 2.34375 -4.648438 2.082031 -4.363281 C 2.078125 -4.308594 2.074219 -4.1875 2.0625 -4 C 2.054688 -3.8125 2.050781 -3.664062 2.050781 -3.554688 C 2.050781 -2.539062 2.21875 -1.742188 2.546875 -1.167969 C 2.878906 -0.59375 3.316406 -0.304688 3.859375 -0.304688 C 4.378906 -0.304688 4.792969 -0.53125 5.109375 -0.980469 C 5.425781 -1.429688 5.585938 -2.042969 5.585938 -2.824219 Z "/>
</g>
<g id="glyph-1-3">
<path d="M 7.058594 -0.585938 L 5.734375 -0.585938 L 5.734375 2.375 L 4.484375 2.375 L 4.484375 -0.585938 L 0.320312 -0.585938 L 0.320312 -1.589844 L 4.882812 -7.15625 L 5.734375 -7.15625 L 5.734375 -1.4375 L 7.058594 -1.4375 L 7.058594 -0.585938 M 4.484375 -1.4375 L 4.484375 -5.707031 L 0.960938 -1.4375 Z "/>
</g>
<g id="glyph-1-4">
</g>
<g id="glyph-1-5">
<path d="M 4.433594 -3.019531 L 0.554688 -3.019531 L 0.554688 -4.050781 L 4.433594 -4.050781 Z "/>
</g>
<g id="glyph-1-6">
<path d="M 5.265625 0 L 0.878906 0 L 0.878906 -0.460938 C 1.007812 -0.472656 1.210938 -0.488281 1.488281 -0.515625 C 1.761719 -0.546875 1.953125 -0.574219 2.058594 -0.605469 C 2.191406 -0.648438 2.296875 -0.71875 2.367188 -0.816406 C 2.4375 -0.914062 2.472656 -1.0625 2.472656 -1.257812 L 2.472656 -5.828125 L 0.851562 -5.828125 L 0.851562 -6.375 L 1.210938 -6.375 C 1.679688 -6.375 2.101562 -6.460938 2.46875 -6.632812 C 2.839844 -6.808594 3.109375 -6.996094 3.269531 -7.195312 L 3.808594 -7.195312 C 3.796875 -6.910156 3.78125 -6.582031 3.769531 -6.203125 C 3.757812 -5.828125 3.75 -5.488281 3.75 -5.1875 L 3.75 -1.328125 C 3.75 -1.175781 3.785156 -1.039062 3.851562 -0.921875 C 3.917969 -0.800781 4.015625 -0.714844 4.140625 -0.65625 C 4.253906 -0.609375 4.4375 -0.566406 4.695312 -0.527344 C 4.949219 -0.488281 5.140625 -0.464844 5.265625 -0.460938 Z "/>
</g>
<g id="glyph-1-7">
<path d="M 7.570312 -4.445312 L 1.003906 -4.445312 L 1.003906 -5.261719 L 7.570312 -5.261719 L 7.570312 -4.445312 M 7.570312 -2.023438 L 1.003906 -2.023438 L 1.003906 -2.839844 L 7.570312 -2.839844 Z "/>
</g>
</g>
</defs>
<g fill="rgb(100%, 100%, 100%)" fill-opacity="1">
<use xlink:href="#glyph-0-0" x="30" y="33.092773"/>
<use xlink:href="#glyph-0-1" x="43" y="33.092773"/>
</g>
<g fill="rgb(100%, 100%, 100%)" fill-opacity="1">
<use xlink:href="#glyph-1-0" x="56" y="32.226562"/>
<use xlink:href="#glyph-1-1" x="63" y="32.226562"/>
</g>
<g fill="rgb(100%, 100%, 100%)" fill-opacity="1">
<use xlink:href="#glyph-0-2" x="70" y="33.092773"/>
</g>
<g fill="rgb(100%, 100%, 100%)" fill-opacity="1">
<use xlink:href="#glyph-1-2" x="83" y="32.226562"/>
<use xlink:href="#glyph-1-3" x="91" y="32.226562"/>
<use xlink:href="#glyph-1-4" x="99" y="32.226562"/>
<use xlink:href="#glyph-1-5" x="102" y="32.226562"/>
<use xlink:href="#glyph-1-4" x="107" y="32.226562"/>
<use xlink:href="#glyph-1-6" x="110" y="32.226562"/>
<use xlink:href="#glyph-1-2" x="116" y="32.226562"/>
<use xlink:href="#glyph-1-0" x="124" y="32.226562"/>
<use xlink:href="#glyph-1-4" x="131" y="32.226562"/>
<use xlink:href="#glyph-1-7" x="134" y="32.226562"/>
<use xlink:href="#glyph-1-4" x="143" y="32.226562"/>
<use xlink:href="#glyph-1-6" x="146" y="32.226562"/>
<use xlink:href="#glyph-1-2" x="152" y="32.226562"/>
</g>
</svg>
